<?xml version="1.0" encoding="UTF-8" standalone="no"?>
<!-- Created with Inkscape (http://www.inkscape.org/) -->

<svg
   xmlns:dc="http://purl.org/dc/elements/1.1/"
   xmlns:cc="http://creativecommons.org/ns#"
   xmlns:rdf="http://www.w3.org/1999/02/22-rdf-syntax-ns#"
   xmlns:svg="http://www.w3.org/2000/svg"
   xmlns="http://www.w3.org/2000/svg"
   xmlns:sodipodi="http://sodipodi.sourceforge.net/DTD/sodipodi-0.dtd"
   xmlns:inkscape="http://www.inkscape.org/namespaces/inkscape"
   version="1.1"
   id="svg2"
   width="150"
   height="200"
   viewBox="0 0 150 200"
   sodipodi:docname="img.svg"
   inkscape:version="0.92.3 (2405546, 2018-03-11)">
  <metadata
     id="metadata8">
    <rdf:RDF>
      <cc:Work
         rdf:about="">
        <dc:format>image/svg+xml</dc:format>
        <dc:type
           rdf:resource="http://purl.org/dc/dcmitype/StillImage" />
        <dc:title />
      </cc:Work>
    </rdf:RDF>
  </metadata>
  <defs
     id="defs6" />
  <sodipodi:namedview
     pagecolor="#ffffff"
     bordercolor="#666666"
     borderopacity="1"
     objecttolerance="10"
     gridtolerance="10"
     guidetolerance="10"
     inkscape:pageopacity="0"
     inkscape:pageshadow="2"
     inkscape:window-width="2160"
     inkscape:window-height="1346"
     id="namedview4"
     showgrid="false"
     inkscape:zoom="2.6700352"
     inkscape:cx="75.243654"
     inkscape:cy="98.861116"
     inkscape:window-x="-11"
     inkscape:window-y="-11"
     inkscape:window-maximized="1"
     inkscape:current-layer="svg2" />
  <g
     id="g4994"
     transform="matrix(0.38616529,0,0,0.39306816,263.70836,-54.060284)">
    <path
       inkscape:connector-curvature="0"
       id="path4963"
       d="m -488.88097,624.31088 c -15.89541,-13.36561 -27.24006,-29.21 -50.33414,-70.29852 -7.99076,-14.21701 -18.33624,-31.90459 -22.52097,-38.50391 -1.49738,-2.36138 -3.17242,-5.1712 -3.7223,-6.24401 l -0.99978,-1.95061 5.86755,-8.45582 c 3.22716,-4.65069 8.214,-12.66531 11.08188,-17.81024 2.86787,-5.14493 5.38934,-9.54421 5.60326,-9.77615 0.21392,-0.23193 15.04066,7.48337 32.9483,17.14511 17.90765,9.66171 34.75404,18.70012 37.43643,20.08529 l 4.87706,2.51851 0.38758,11.13031 c 0.32645,9.37493 0.26148,11.37407 -0.41196,12.676 -0.78982,1.52694 -5.19795,5.94418 -9.03093,9.04965 l -1.97388,1.5992 5.58202,7.16335 c 3.75871,4.82352 5.58551,7.61455 5.59273,8.54464 0.0135,1.73802 -14.05474,67.93762 -14.43257,67.9141 -0.15288,-0.01 -2.83051,-2.16363 -5.95028,-4.7869 z"
       style="opacity:0.98999999;fill:#000000;fill-opacity:1;stroke:none;stroke-width:20.7788372;stroke-miterlimit:4;stroke-dasharray:none;stroke-dashoffset:0;stroke-opacity:1" />
    <path
       inkscape:connector-curvature="0"
       id="path4965"
       d="m -426.82085,637.21701 c -0.0663,-0.58798 -0.0794,-1.28757 -0.029,-1.55464 0.0503,-0.26704 -0.14019,-0.62875 -0.42339,-0.80377 -0.73843,-0.45638 -2.76706,-5.9994 -2.40817,-6.58011 0.16556,-0.26787 -0.0407,-0.77171 -0.45828,-1.11964 -0.4176,-0.34795 -2.9534,-6.40564 -5.63511,-13.46155 -2.68171,-7.05591 -6.66556,-17.51952 -8.85301,-23.25246 -2.18745,-5.73293 -4.13454,-11.15814 -4.32685,-12.056 -0.21572,-1.00711 0.26406,-4.6931 1.25237,-9.62171 0.88113,-4.39406 1.89052,-10.68834 2.24309,-13.98727 l 0.64105,-5.99808 -5.83176,-5.55551 -5.83177,-5.55551 -0.15194,-10.89083 c -0.13243,-9.49216 -0.0418,-10.97137 0.70547,-11.51781 0.78344,-0.57285 0.77986,-0.67035 -0.0414,-1.12996 -0.79088,-0.44262 -0.71509,-0.63233 0.63088,-1.57922 0.84135,-0.59193 2.25136,-1.47667 3.13335,-1.96609 0.88199,-0.48945 2.25261,-1.30355 3.04582,-1.80909 0.79321,-0.50557 4.8448,-3.01993 9.00354,-5.58747 l 7.56134,-4.66831 6.40647,-0.056 c 3.52356,-0.0308 6.52597,0.0635 6.67203,0.20955 0.64423,0.64424 0.83122,29.02813 0.24714,37.51361 -1.50062,21.80055 -3.41665,50.46366 -5.43126,81.24991 -0.98224,15.01005 -1.79909,22.62871 -2.12053,19.77795 z m -14.69376,-73.4991 c 0.1817,-0.29401 0.0756,-0.53454 -0.23573,-0.53454 -0.31135,0 -0.56608,0.24053 -0.56608,0.53454 0,0.29397 0.10607,0.53453 0.23572,0.53453 0.12965,0 0.38439,-0.24056 0.56609,-0.53453 z"
       style="opacity:0.98999999;fill:#000000;fill-opacity:1;stroke:none;stroke-width:20.7788372;stroke-miterlimit:4;stroke-dasharray:none;stroke-dashoffset:0;stroke-opacity:1" />
    <path
       inkscape:connector-curvature="0"
       id="path4971"
       d="m -578.25703,415.75131 c -53.70671,-28.17178 -89.63366,-61.70251 -95.43248,-89.06743 -1.0957,-5.1706 -0.98994,-15.20517 0.19544,-18.54464 0.85765,-2.41611 2.22724,-3.92202 2.22724,-2.44889 0,0.96039 1.4814,2.24018 1.86836,1.61408 0.18309,-0.29625 0.03,-0.53864 -0.3401,-0.53864 -0.52343,0 -0.53044,-0.14255 -0.0315,-0.64145 1.01963,-1.01963 0.74679,-2.02755 -0.56126,-2.07345 -0.66151,-0.0232 -0.90054,-0.16402 -0.53123,-0.31292 0.36933,-0.1489 0.54158,-0.48098 0.38275,-0.73795 -0.48726,-0.78839 11.79615,-13.01996 12.58533,-12.53222 0.44815,0.27698 0.5602,0.21552 0.31887,-0.17493 -0.47371,-0.76651 5.17726,-4.96597 9.86047,-7.32768 8.7725,-4.42392 12.50159,-4.43839 25.9225,-0.10061 15.81531,5.11167 23.60609,6.26377 42.31187,6.25703 13.22865,-0.005 17.64844,-0.37327 28.87462,-2.40748 9.5471,-1.72996 9.55907,-1.73298 10.46499,-2.6389 0.42507,-0.42507 5.07234,-1.64935 10.32725,-2.72063 5.25493,-1.07128 14.48553,-3.14769 20.51246,-4.61426 6.02693,-1.46656 13.12293,-3.11111 15.7689,-3.65456 2.64597,-0.54344 10.10279,-2.18937 16.57071,-3.65762 18.95678,-4.3033 45.93014,-9.57114 53.72118,-10.49164 10.28439,-1.21509 28.87181,-1.6545 35.81411,-0.84666 22.2716,2.59164 35.55707,9.29659 41.44547,20.91679 0.69833,1.37808 1.12012,2.65516 0.93731,2.83797 -0.18281,0.1828 -0.0797,0.33237 0.22917,0.33237 0.30885,0 1.11161,1.38312 1.7839,3.0736 0.6723,1.69048 3.47281,7.59402 6.22336,13.11898 2.75055,5.52496 5.37661,11.17772 5.83569,12.56167 1.17688,3.54787 6.27805,13.11462 9.11909,17.10197 4.36088,6.12041 7.41832,7.2032 16.18347,5.73134 2.99362,-0.5027 5.56547,-0.79146 5.71523,-0.6417 0.56551,0.56551 -20.69637,24.01184 -31.60096,34.84766 -3.25448,3.23396 -8.07652,8.37136 -10.71563,11.41645 -3.25893,3.76024 -6.98195,7.23843 -11.60434,10.84119 -3.74326,2.91758 -7.47167,5.92804 -8.28535,6.68992 -6.2439,5.84642 -19.69105,14.53288 -25.48181,16.46049 -2.84417,0.94676 -16.89836,4.03681 -18.36025,4.03681 -1.68755,0 4.78586,-5.88027 10.99657,-9.989 9.72329,-6.43249 17.11852,-14.57547 19.83797,-21.84385 1.98844,-5.31461 1.3258,-15.73767 -1.36242,-21.43015 -1.65218,-3.49859 -5.34626,-6.95276 -7.96008,-7.44312 -4.99492,-0.93705 -11.25912,3.1837 -15.87207,10.44107 l -1.54062,2.42381 0.32263,-20.57976 c 0.17744,-11.31886 0.5481,-23.69475 0.82368,-27.50197 0.91694,-12.66776 0.49779,-20.44001 -1.32749,-24.61558 -0.38554,-0.88199 -2.95171,-7.49691 -5.7026,-14.69983 -2.86653,-7.5057 -5.51083,-13.60962 -6.19449,-14.29892 -1.45152,-1.4635 -3.48178,-1.5327 -12.03849,-0.41033 -6.74493,0.88473 -45.82399,7.82123 -65.90932,11.69886 -16.87554,3.25796 -50.97695,11.49732 -61.32335,14.81657 -8.71838,2.79695 -9.25151,3.21557 -9.70261,7.61858 -0.52015,5.07695 -2.89832,19.23858 -4.05386,24.14017 -1.15799,4.91192 -1.28739,7.673 -0.58874,12.56167 0.27309,1.91098 0.76529,5.39885 1.09375,7.75082 0.32847,2.35197 1.28423,7.76418 2.12392,12.02713 0.83969,4.26294 1.68584,9.2978 1.88035,11.18855 l 0.35366,3.43774 -3.17257,-4.27884 c -3.13778,-4.23192 -8.78083,-10.24919 -12.40407,-13.22664 -2.62261,-2.15517 -5.39867,-3.00074 -9.85153,-3.00074 -3.33103,0 -4.16525,0.20806 -6.32433,1.5773 -1.45067,0.91999 -3.31001,2.81663 -4.46172,4.55125 -1.71374,2.58107 -2.00777,3.49051 -2.22555,6.88412 -0.17634,2.74786 0.0212,4.85093 0.66453,7.07497 2.29525,7.9349 9.36079,18.45449 20.00607,29.78619 3.2597,3.46989 6.19587,6.81179 6.52482,7.42643 1.38153,2.58141 3.6008,10.05143 2.98373,10.04319 -0.34885,-0.005 -3.88161,-1.71184 -7.85056,-3.79375 z m 205.79753,-35.21913 c 0,-0.294 -0.24054,-0.53454 -0.53453,-0.53454 -0.294,0 -0.53454,0.24054 -0.53454,0.53454 0,0.29399 0.24054,0.53454 0.53454,0.53454 0.29399,0 0.53453,-0.24055 0.53453,-0.53454 z m 0.53454,-1.60362 c 0,-0.294 -0.25474,-0.53454 -0.56608,-0.53454 -0.31135,0 -0.41742,0.24054 -0.23572,0.53454 0.1817,0.294 0.43644,0.53454 0.56608,0.53454 0.12965,0 0.23572,-0.24054 0.23572,-0.53454 z m -286.51291,-65.44949 c 0,-0.12964 -0.24056,-0.38438 -0.53457,-0.56608 -0.29398,-0.1817 -0.53453,-0.0756 -0.53453,0.23572 0,0.31135 0.24055,0.56609 0.53453,0.56609 0.29401,0 0.53457,-0.10608 0.53457,-0.23573 z m -10.15625,-4.04059 c 0,-0.29399 -0.37502,-0.53454 -0.83335,-0.53454 -0.45837,0 -0.68469,0.24055 -0.503,0.53454 0.18169,0.294 0.55671,0.53454 0.83336,0.53454 0.27664,0 0.50299,-0.24054 0.50299,-0.53454 z m -2.67271,-1.3048 c 0,-0.12965 -0.24053,-0.38438 -0.53454,-0.56608 -0.29398,-0.1817 -0.53454,-0.0756 -0.53454,0.23572 0,0.31135 0.24056,0.56609 0.53454,0.56609 0.29401,0 0.53454,-0.10608 0.53454,-0.23573 z m 6.94902,-3.50605 c 0,-0.294 -0.25474,-0.53454 -0.56608,-0.53454 -0.31136,0 -0.41743,0.24054 -0.23574,0.53454 0.18171,0.294 0.43645,0.53454 0.5661,0.53454 0.12965,0 0.23572,-0.24054 0.23572,-0.53454 z m -1.60362,-2.67269 c 0,-0.294 -0.25474,-0.53454 -0.5661,-0.53454 -0.31133,0 -0.41741,0.24054 -0.23572,0.53454 0.18172,0.29399 0.43646,0.53454 0.56611,0.53454 0.12964,0 0.23571,-0.24055 0.23571,-0.53454 z m 268.60587,-3.74178 c 0.1817,-0.29399 0.0756,-0.53453 -0.23572,-0.53453 -0.31135,0 -0.56609,0.24054 -0.56609,0.53453 0,0.294 0.10608,0.53454 0.23572,0.53454 0.12965,0 0.38439,-0.24054 0.56609,-0.53454 z m -263.79503,-2.13815 c 0,-0.294 -0.24053,-0.53454 -0.53454,-0.53454 -0.29397,0 -0.53453,0.24054 -0.53453,0.53454 0,0.29399 0.24056,0.53454 0.53453,0.53454 0.29401,0 0.53454,-0.24055 0.53454,-0.53454 z"
       style="opacity:0.98999999;fill:#000000;fill-opacity:1;stroke:none;stroke-width:20.7788372;stroke-miterlimit:4;stroke-dasharray:none;stroke-dashoffset:0;stroke-opacity:1" />
    <path
       inkscape:connector-curvature="0"
       id="path4973"
       d="m -579.77851,255.94522 c -0.0348,-0.2205 -0.0289,-0.59919 0.0132,-0.84154 0.0421,-0.24236 -0.19685,-0.27167 -0.531,-0.0652 -0.33415,0.20652 -0.79197,0.0771 -1.01737,-0.28761 -0.25895,-0.41899 0.3042,-1.30827 1.52975,-2.41565 2.31418,-2.09104 5.48628,-7.89762 8.90549,-16.30162 1.37556,-3.38096 2.89666,-6.60415 3.38021,-7.16265 1.43135,-1.65318 12.13108,-6.55567 19.32078,-8.85255 11.50014,-3.67393 24.0624,-5.76781 41.90046,-6.98398 7.46194,-0.50874 9.10491,-0.49137 9.47988,0.10021 0.37458,0.59096 0.455,0.58663 0.46176,-0.0249 0.0137,-1.24378 28.30766,-0.50411 36.54701,0.95541 18.79872,3.33003 29.93149,10.472 39.66005,25.44297 2.46593,3.79474 5.05106,8.39627 5.05106,8.99088 0,0.11747 -2.10474,-0.83465 -4.67721,-2.11584 -22.97845,-11.44409 -78.76056,-8.60192 -149.11878,7.59779 -11.38564,2.6215 -10.81771,2.51921 -10.90533,1.96425 z m 82.23754,-37.87432 c -0.17762,-0.17763 -0.63866,-0.19662 -1.02453,-0.0422 -0.42642,0.17063 -0.29976,0.2973 0.32295,0.32295 0.56349,0.0232 0.87921,-0.10313 0.70158,-0.28075 z m 1.28204,-2.18256 c 0.63955,-0.78625 0.61811,-0.85864 -0.16729,-0.56457 -0.49693,0.18607 -1.00342,0.0512 -1.12953,-0.30082 -0.12574,-0.35098 -0.38749,-0.49217 -0.58166,-0.31375 -0.43187,0.39685 0.1613,2.08103 0.73295,2.08103 0.22655,0 0.74203,-0.40585 1.14553,-0.90189 z m 1.53543,-1.77081 c 0,-0.29399 -0.10608,-0.53453 -0.23572,-0.53453 -0.12965,0 -0.38439,0.24054 -0.56609,0.53453 -0.1817,0.294 -0.0756,0.53454 0.23572,0.53454 0.31135,0 0.56609,-0.24054 0.56609,-0.53454 z"
       style="opacity:0.98999999;fill:#000000;fill-opacity:1;stroke:none;stroke-width:20.7788372;stroke-miterlimit:4;stroke-dasharray:none;stroke-dashoffset:0;stroke-opacity:1" />
    <path
       inkscape:connector-curvature="0"
       id="path4977"
       d="m -435.06223,219.4157 c -12.41423,-9.89853 -24.5024,-13.34998 -48.80259,-13.93429 -12.40185,-0.2982 -13.02747,-0.36302 -13.407,-1.389 -0.33809,-0.91393 -0.44777,-0.94681 -0.7274,-0.2181 -0.49886,1.30002 -3.80241,1.73975 -5.2824,0.70313 -0.67148,-0.47032 -1.5883,-0.85145 -2.03738,-0.84695 -0.71118,0.007 -0.71501,0.0724 -0.0297,0.50579 0.69275,0.4381 0.69275,0.53097 0,0.77671 -0.43275,0.15353 -5.4774,0.76624 -11.21033,1.36158 -18.9649,1.96945 -32.94312,5.03762 -44.9919,9.87555 -3.29906,1.32467 -6.09516,2.31162 -6.21356,2.19322 -0.1184,-0.1184 1.27108,-5.66457 3.08773,-12.32482 1.81664,-6.66025 3.18798,-12.22456 3.04742,-12.36512 -0.28026,-0.28025 13.2757,-54.09716 13.74467,-54.56613 0.15934,-0.15935 9.9108,1.08759 21.6699,2.77098 l 21.38018,3.06071 14.86306,-0.65274 c 17.96551,-0.78898 26.92738,-0.56224 29.41308,0.74416 6.15996,3.23748 13.14826,20.19773 21.03719,51.05619 2.31376,9.0505 3.76891,13.63506 5.28475,16.64992 1.96704,3.91224 3.61419,8.84785 3.11827,9.34377 -0.12247,0.12247 -1.89727,-1.11259 -3.94402,-2.74456 z M -502.661,203.15622 c 0,-0.31135 -0.24054,-0.41742 -0.53454,-0.23572 -0.29399,0.1817 -0.53454,0.0756 -0.53454,-0.23572 0,-0.31135 -0.26999,-0.56609 -0.59999,-0.56609 -0.41454,0 -0.3943,0.24783 0.0654,0.80181 0.77273,0.93108 1.60362,1.05322 1.60362,0.23572 z"
       style="opacity:0.98999999;fill:#000000;fill-opacity:1;stroke:none;stroke-width:20.7788372;stroke-miterlimit:4;stroke-dasharray:none;stroke-dashoffset:0;stroke-opacity:1" />
    <path
       inkscape:connector-curvature="0"
       id="path4979"
       d="m -501.83195,429.85873 c -3.49236,-0.92634 -8.09206,-5.08596 -8.09206,-7.31784 0,-1.5875 0.0638,-1.59804 2.39044,-0.3949 3.52939,1.82512 10.43564,2.27193 13.15477,0.85107 1.22082,-0.63793 6.06754,-4.2086 10.7705,-7.93482 8.16422,-6.46863 13.63591,-9.96734 17.34054,-11.08789 1.69585,-0.51294 1.70089,-0.4884 1.70089,8.27294 v 8.7874 l -5.54845,2.52851 c -13.72365,6.25407 -24.10458,8.31462 -31.71663,6.29553 z"
       style="opacity:0.98999999;fill:#000000;fill-opacity:1;stroke:none;stroke-width:29.38571358;stroke-miterlimit:4;stroke-dasharray:none;stroke-dashoffset:0;stroke-opacity:1" />
    <path
       inkscape:connector-curvature="0"
       id="path4981"
       d="m -446.45285,428.318 c -3.53408,-1.15956 -9.05549,-3.27267 -12.26981,-4.6958 l -5.84421,-2.58751 -0.0144,-8.88244 c -0.008,-4.88534 0.16537,-8.88244 0.38511,-8.88244 1.74602,0 10.6618,5.58066 17.06284,10.68016 11.51798,9.176 12.46833,9.73549 16.47199,9.69737 3.08492,-0.0294 5.5482,-0.6614 10.09987,-2.59143 2.15204,-0.91252 1.60642,1.49315 -1.01609,4.48003 -4.61691,5.25837 -14.09674,6.31858 -24.87528,2.78206 z"
       style="opacity:0.98999999;fill:#000000;fill-opacity:1;stroke:none;stroke-width:29.38571358;stroke-miterlimit:4;stroke-dasharray:none;stroke-dashoffset:0;stroke-opacity:1" />
  </g>
</svg>
