<?xml version="1.0" encoding="UTF-8" standalone="no"?>
<!-- Created with Inkscape (http://www.inkscape.org/) -->

<svg
   xmlns:dc="http://purl.org/dc/elements/1.1/"
   xmlns:cc="http://creativecommons.org/ns#"
   xmlns:rdf="http://www.w3.org/1999/02/22-rdf-syntax-ns#"
   xmlns:svg="http://www.w3.org/2000/svg"
   xmlns="http://www.w3.org/2000/svg"
   xmlns:sodipodi="http://sodipodi.sourceforge.net/DTD/sodipodi-0.dtd"
   xmlns:inkscape="http://www.inkscape.org/namespaces/inkscape"
   version="1.1"
   id="svg2"
   width="165"
   height="164"
   viewBox="0 0 165 164"
   sodipodi:docname="1.svg"
   inkscape:export-filename="C:\Users\danie\OneDrive\Ãrea de Trabalho\playground\img\3.png"
   inkscape:export-xdpi="76"
   inkscape:export-ydpi="76"
   inkscape:version="0.92.3 (2405546, 2018-03-11)">
  <metadata
     id="metadata8">
    <rdf:RDF>
      <cc:Work
         rdf:about="">
        <dc:format>image/svg+xml</dc:format>
        <dc:type
           rdf:resource="http://purl.org/dc/dcmitype/StillImage" />
        <dc:title></dc:title>
      </cc:Work>
    </rdf:RDF>
  </metadata>
  <defs
     id="defs6" />
  <sodipodi:namedview
     pagecolor="#ffffff"
     bordercolor="#666666"
     borderopacity="1"
     objecttolerance="10"
     gridtolerance="10"
     guidetolerance="10"
     inkscape:pageopacity="0"
     inkscape:pageshadow="2"
     inkscape:window-width="2160"
     inkscape:window-height="1346"
     id="namedview4"
     showgrid="false"
     inkscape:zoom="2.0350878"
     inkscape:cx="55.525546"
     inkscape:cy="143.14332"
     inkscape:window-x="-11"
     inkscape:window-y="-11"
     inkscape:window-maximized="1"
     inkscape:current-layer="g6686" />
  <g
     transform="matrix(0.71179433,0,0,0.69625395,639.26407,-486.04301)"
     id="g6686">
    <g
       id="g6505"
       transform="matrix(0.80453834,0,0,0.93623166,1471.3212,411.1073)">
      <g
         id="g2610"
         transform="matrix(1.2961191,0,0,1.391718,-1157.4025,-159.56323)">
        <g
           transform="translate(62.745215,167.78657)"
           id="g2552">
          <g
             transform="matrix(1.4148801,0,0,1.4892837,541.3728,-119.09079)"
             id="g2526">
            <path
               style="opacity:1;fill:#ffe8be;fill-opacity:1;stroke:none;stroke-width:3.31692815;stroke-miterlimit:4;stroke-dasharray:none;stroke-dashoffset:0;stroke-opacity:1"
               d="m -1291.0395,277.91677 c -3.1269,-0.90295 -6.087,-2.73964 -8.6691,-5.37937 -1.635,-1.67147 -1.8878,-1.9771 -2.9676,-3.58832 -0.3342,-0.49856 -0.7587,-1.06898 -0.9434,-1.26757 -0.1854,-0.19864 -0.6696,-0.95616 -1.0774,-1.68343 -0.4078,-0.72726 -1.0477,-1.84678 -1.4222,-2.48775 -0.8404,-1.43858 -3.3155,-7.01012 -3.7392,-8.41713 -0.1723,-0.56978 -0.6429,-1.4016 -1.0472,-1.84847 -0.4044,-0.44689 -0.6291,-0.8812 -0.4989,-0.96514 0.1427,-0.0919 0.067,-0.69352 -0.1878,-1.51236 -0.3551,-1.13882 -0.3697,-1.41627 -0.091,-1.70794 0.1899,-0.19859 0.3331,-0.90334 0.3331,-1.63954 0,-0.71017 0.1149,-1.83816 0.2546,-2.50661 0.1409,-0.66846 0.3787,-1.79814 0.5304,-2.51032 0.4269,-2.00683 1.2802,-3.80972 2.2084,-4.66616 1.329,-1.22634 1.7126,-2.02221 1.7126,-3.55227 0,-1.04322 -0.15,-1.60564 -0.6277,-2.33945 -4.8966,-7.53467 0.4053,-13.30387 14.4986,-15.77637 3.8597,-0.67715 11.1845,-0.38022 14.9853,0.60746 2.4851,0.64582 2.9999,0.7999 3.4023,1.01866 0.2367,0.12849 0.6004,0.23375 0.8085,0.23375 0.2079,0 0.5716,0.11221 0.8082,0.24948 0.2366,0.13721 0.876,0.46955 1.4209,0.73849 2.3328,1.1514 3.2892,1.81781 4.6564,3.24538 1.8302,1.9109 2.457,3.35717 2.4532,5.65999 0,1.49647 -0.1502,2.06678 -1.0703,4.14386 -0.8793,1.98386 -1.0692,2.68527 -1.0765,3.97802 0,1.39299 0.094,1.72792 0.9106,2.97838 1.17,1.79273 1.4771,3.2291 1.5321,7.16842 0.027,1.99524 0.1501,3.28075 0.3311,3.4694 0.3013,0.31514 0.1612,1.72341 -0.2147,2.15358 -0.1188,0.13527 -0.215,0.44006 -0.215,0.67726 0,0.23721 -0.2024,0.70922 -0.4499,1.04894 -0.2473,0.3397 -0.9296,1.84136 -1.5163,3.33699 -1.3458,3.43064 -2.7509,6.36426 -4.0887,8.53568 -0.5742,0.9319 -1.3918,2.2786 -1.8172,2.99269 -0.7161,1.20214 -4.9695,5.82383 -5.3598,5.82383 -0.094,0 -0.5839,0.33464 -1.0869,0.74366 -1.2669,1.03057 -3.0342,1.9452 -5.3728,2.78051 -1.5587,0.55682 -5.7658,0.7087 -7.3068,0.26377 z"
               id="path2496"
               inkscape:connector-curvature="0" />
            <path
               style="opacity:1;fill:#ffe8be;fill-opacity:1;stroke:none;stroke-width:3.38528776;stroke-miterlimit:4;stroke-dasharray:none;stroke-dashoffset:0;stroke-opacity:1"
               d="m -1312.9907,250.47598 c -2.7852,-3.21607 -4.1246,-7.51414 -3.0225,-9.69814 0.5279,-1.04626 2.1132,-1.73166 3.645,-1.57607 1.136,0.11539 1.3892,0.20777 1.5653,0.57082 0.2566,0.52948 0.1562,2.2618 -0.3014,5.19701 -0.3876,2.48749 -0.3412,3.14496 0.2307,3.26768 0.2607,0.0559 0.2963,0.28965 0.1055,0.69232 -0.4397,0.92696 -0.7471,2.49289 -0.5728,2.91537 0.2715,0.65851 -0.3167,0.17042 -1.6498,-1.36899 z"
               id="path2498"
               inkscape:connector-curvature="0" />
            <path
               style="opacity:1;fill:#ffe8be;fill-opacity:1;stroke:none;stroke-width:3.71946025;stroke-miterlimit:4;stroke-dasharray:none;stroke-dashoffset:0;stroke-opacity:1"
               d="m -1270.6087,254.10588 c 0.1934,-0.38237 0.4668,-0.92279 0.6071,-1.2009 0.4198,-0.83125 0.5558,-1.89894 0.2605,-2.04356 -0.5119,-0.25074 -0.2812,-0.525 0.4245,-0.50478 0.9548,0.0276 2.0821,-1.59401 2.3581,-3.39149 0.451,-2.93476 2.0217,-5.81647 3.1706,-5.81647 0.7969,0 2.5482,1.70001 2.9366,2.85076 1.0199,3.02153 -2.4467,7.51707 -7.6655,9.94081 -2.2492,1.04458 -2.5489,1.0683 -2.0919,0.16573 z"
               id="path2500"
               inkscape:connector-curvature="0" />
            <path
               style="opacity:1;fill:#8b5e3c;fill-opacity:1;stroke:none;stroke-width:4.30185127;stroke-miterlimit:4;stroke-dasharray:none;stroke-dashoffset:0;stroke-opacity:1"
               d="m -1310.9928,246.74823 c -0.3168,-1.73349 -0.4647,-4.80651 -0.4647,-9.66032 0,-7.90762 0.3719,-10.12274 2.4754,-14.7447 1.2037,-2.6447 4.6011,-6.3978 7.3414,-8.10981 5.4441,-3.40116 14.7115,-4.05447 21.7724,-1.53483 2.0794,0.74196 5.2902,2.35269 6.6473,3.33453 0.674,0.48772 1.4803,0.88678 1.7918,0.88678 1.0042,0 3.4621,1.43097 4.6059,2.6815 1.3852,1.51451 2.4498,3.71232 3.0636,6.32509 0.8741,3.72005 0.4639,13.96619 -0.5964,14.90059 -0.2183,0.19227 -0.5773,1.56504 -0.7981,3.05062 -0.6128,4.12612 -0.819,4.32271 -1.0322,0.98385 -0.3618,-5.67026 -2.3608,-11.63808 -4.9314,-14.72257 l -1.2367,-1.48379 -1.4729,0.73717 c -2.7252,1.36402 -3.2367,1.86474 -4.8394,1.0872 -0.1841,-0.88153 -1.2294,-1.19805 0.2746,-3.54441 0.7163,-1.03722 -3.1557,-0.83583 -6.3441,0.79404 -1.8736,0.95769 -2.7637,-3.21022 -4.3067,-2.69422 -2.322,0.77646 -5.0471,5.94627 -6.2548,5.62112 l -0.8797,-0.23677 -0.6154,-0.91857 c -3.9015,-5.24264 -6.6221,1.26129 -9.1445,6.06187 -1.993,3.38013 -2.8251,5.80362 -4.364,12.71093 -0.1984,0.89044 -0.2844,0.70073 -0.6914,-1.5253 z"
               id="path2502"
               inkscape:connector-curvature="0"
               sodipodi:nodetypes="csccccscccccccccccscccccc" />
            <g
               id="g2524"
               style="fill:#ffffff"
               transform="translate(-0.8490556,0.91112438)">
              <g
                 id="g2514"
                 transform="matrix(0.85821184,0,0,0.82013181,-91.450783,86.634256)">
                <path
                   sodipodi:nodetypes="cc"
                   inkscape:transform-center-y="3.1537241"
                   inkscape:transform-center-x="-0.86303014"
                   inkscape:connector-curvature="0"
                   id="path2508"
                   d="m -1414.4552,187.19097 c 3.1992,-5.05754 7.3546,-8.26621 14.5146,-5.66448"
                   style="fill:none;stroke:#000000;stroke-width:2.36500001;stroke-linecap:butt;stroke-linejoin:miter;stroke-miterlimit:4;stroke-dasharray:none;stroke-opacity:1" />
                <g
                   id="g2512"
                   transform="translate(-4.4353406,-9.4317091)" />
              </g>
              <g
                 id="g2518"
                 transform="matrix(0.82989467,0.20893634,-0.21863759,0.79307111,-70.516603,386.2338)">
                <path
                   style="fill:none;stroke:#000000;stroke-width:2.36500001;stroke-linecap:butt;stroke-linejoin:miter;stroke-miterlimit:4;stroke-dasharray:none;stroke-opacity:1"
                   d="m -1409.729,181.78355 c 5.1663,-2.80044 10.3219,-3.51427 15.4444,2.32956"
                   id="path2516"
                   inkscape:connector-curvature="0"
                   inkscape:transform-center-x="1.0464795"
                   inkscape:transform-center-y="3.573245"
                   sodipodi:nodetypes="cc" />
              </g>
            </g>
            <path
               sodipodi:nodetypes="cc"
               inkscape:connector-curvature="0"
               id="path2562"
               d="m -1298.9899,247.01959 c 1.767,1.99737 3.6423,3.71652 7.7458,-0.28693"
               style="fill:none;stroke:#000000;stroke-width:1.1158402;stroke-linecap:butt;stroke-linejoin:miter;stroke-miterlimit:4;stroke-dasharray:none;stroke-opacity:1" />
            <path
               style="fill:none;stroke:#000000;stroke-width:1.1158402;stroke-linecap:butt;stroke-linejoin:miter;stroke-miterlimit:4;stroke-dasharray:none;stroke-opacity:1"
               d="m -1275.6882,247.46825 c -1.767,1.99737 -3.6423,3.71652 -7.7458,-0.28693"
               id="path2579"
               inkscape:connector-curvature="0"
               sodipodi:nodetypes="cc" />
          </g>
          <g
             transform="matrix(1.6879553,-0.02448424,0.04129168,1.4857061,-190.00168,82.075606)"
             id="g2550">
            <g
               id="g2548"
               transform="translate(-166.95651,-164.17312)">
              <g
                 id="g2546">
                <path
                   style="fill:none;stroke:#000000;stroke-width:1.46500003;stroke-linecap:butt;stroke-linejoin:miter;stroke-miterlimit:4;stroke-dasharray:none;stroke-opacity:1"
                   d="m -503.13489,283.90379 c -23.07966,-37.99734 7.63333,-73.25207 36.63909,-55.16042 23.5838,17.34098 11.33937,41.56087 6.12403,55.16042"
                   id="path2528"
                   inkscape:connector-curvature="0"
                   sodipodi:nodetypes="ccc" />
                <path
                   sodipodi:nodetypes="ccc"
                   inkscape:connector-curvature="0"
                   id="path2530"
                   d="m -503.13489,283.90379 c -24.93957,-34.97983 16.27232,-70.12487 43.48028,-42.59138 11.33849,13.19683 5.74292,26.01751 -0.66893,42.59138"
                   style="fill:none;stroke:#000000;stroke-width:1.35496819;stroke-linecap:butt;stroke-linejoin:miter;stroke-miterlimit:4;stroke-dasharray:none;stroke-opacity:1" />
                <path
                   style="fill:none;fill-opacity:1;stroke:#000000;stroke-width:1.21899998;stroke-miterlimit:4;stroke-dasharray:none;stroke-opacity:1"
                   d="m -509.22778,268.29844 c 0.6529,-6.20657 6.72129,-4.99842 8.10335,-3.19401 1.98587,3.09263 4.69661,10.88259 5.12685,13.0764 0.65801,6.42984 -6.5922,7.87814 -8.73114,3.35497 -2.01033,-5.33134 -3.95173,-9.74578 -4.49906,-13.23736 z"
                   id="path2532"
                   inkscape:connector-curvature="0"
                   sodipodi:nodetypes="ccccc" />
                <path
                   sodipodi:nodetypes="ccccc"
                   inkscape:connector-curvature="0"
                   id="path2534"
                   d="m -455.82448,270.66643 c -0.6529,-6.20657 -6.72129,-4.99842 -8.10335,-3.19401 -1.98587,3.09263 -4.69661,10.88259 -5.12685,13.0764 -0.65801,6.42984 6.5922,7.87814 8.73114,3.35497 2.01033,-5.33134 3.95173,-9.74578 4.49906,-13.23736 z"
                   style="fill:none;fill-opacity:1;stroke:#000000;stroke-width:1.21899998;stroke-miterlimit:4;stroke-dasharray:none;stroke-opacity:1" />
                <path
                   style="fill:#445500;fill-opacity:1;stroke:#000000;stroke-width:1.13999999;stroke-miterlimit:4;stroke-dasharray:none;stroke-opacity:1"
                   d="m -459.52133,286.03404 c -0.52519,-0.0606 -0.96118,-0.11434 -0.96889,-0.11929 -0.0184,-0.0117 -0.0953,0.18077 3.25983,-8.17946 1.60193,-3.99177 2.94374,-7.28983 2.98181,-7.32904 0.067,-0.0689 1.3707,1.45153 2.71428,3.16553 l 0.65409,0.83436 -0.26401,0.81709 c -0.14515,0.44943 -0.77594,2.22521 -1.40167,3.94623 -0.62574,1.72099 -1.41741,3.961 -1.75923,4.97775 l -0.62155,1.8487 -0.31932,0.0848 c -0.43962,0.11669 -3.11373,0.0875 -4.27534,-0.0466 z"
                   id="path2536"
                   inkscape:connector-curvature="0" />
                <path
                   inkscape:connector-curvature="0"
                   id="path2538"
                   d="m -505.05927,284.69555 c 0.52016,-0.0946 0.95174,-0.17646 0.95911,-0.1819 0.0176,-0.0129 0.10683,0.1742 -3.78362,-7.95075 -1.85753,-3.87943 -3.41048,-7.08349 -3.45102,-7.12014 -0.0713,-0.0644 -1.27364,1.5374 -2.50318,3.33495 l -0.59859,0.87504 0.31647,0.79824 c 0.174,0.43906 0.91866,2.17018 1.65474,3.84699 0.73607,1.67676 1.67139,3.86068 2.07846,4.85312 l 0.74017,1.80448 0.32415,0.0639 c 0.44627,0.0879 3.11285,-0.11469 4.26331,-0.32386 z"
                   style="fill:#445500;fill-opacity:1;stroke:#000000;stroke-width:1.13999999;stroke-miterlimit:4;stroke-dasharray:none;stroke-opacity:1" />
                <path
                   inkscape:connector-curvature="0"
                   id="path2540"
                   d="m -2547.8088,334.48077 c -0.027,-0.33114 0.6091,-3.82816 1.4126,-7.77114 7.9048,-38.78914 32.2943,-70.98215 64.3234,-84.90366 14.1432,-6.14738 24.8268,-8.1031 41.3585,-7.57102 17.0813,0.54977 27.7881,3.26854 43.9575,11.16203 24.4481,11.935 47.1259,37.2024 56.2947,62.723 1.8771,5.22483 4.7478,15.73083 4.7478,17.3757 0,0.489 -1.6165,-2.41653 -3.5923,-6.45675 -8.7184,-17.82823 -20.4467,-30.88271 -38.721,-43.0994 -34.22,-22.87672 -74.8063,-25.80896 -110.6827,-7.99649 -10.749,5.33686 -19.6744,11.66082 -28.5848,20.25351 -11.8195,11.39798 -20.5063,23.66053 -26.2221,37.01553 -1.6509,3.8575 -3.281,7.65649 -3.6225,8.4422 -0.3414,0.78572 -0.6425,1.15764 -0.6691,0.82649 z"
                   style="opacity:1;fill:#1a1a1a;fill-opacity:1;stroke:#000000;stroke-width:2.45399332;stroke-miterlimit:4;stroke-dasharray:none;stroke-opacity:1"
                   transform="matrix(0.26458333,0,0,0.26458333,164.12169,162.8502)" />
                <path
                   inkscape:connector-curvature="0"
                   id="path2542"
                   d="m -2515.5178,455.4589 c -4.0811,-0.96634 -5.7414,-2.70532 -9.7909,-10.25472 -6.4035,-11.93803 -16.832,-41.05222 -16.8336,-46.9958 0,-4.95417 3.6623,-10.92419 8.1378,-13.26072 3.2154,-1.67867 9.8287,-1.39132 13.7973,0.59948 2.6727,1.34073 3.8199,2.54115 5.7,5.96429 3.5471,6.45866 9.0726,19.87776 13.1817,32.01285 2.9397,8.68184 3.6706,11.77012 3.6654,15.48715 -0.01,7.29162 -2.6832,12.26065 -8.0542,14.97294 -3.1951,1.61351 -6.8774,2.16737 -9.8035,1.47453 z"
                   style="opacity:1;fill:#666666;fill-opacity:1;stroke:#000000;stroke-width:2.45399332;stroke-miterlimit:4;stroke-dasharray:none;stroke-opacity:1"
                   transform="matrix(0.26458333,0,0,0.26458333,164.12169,162.8502)" />
                <path
                   transform="matrix(0.26458333,0,0,0.26458333,164.12169,162.8502)"
                   inkscape:connector-curvature="0"
                   id="path2544"
                   d="m -2381.9973,463.20558 c -1.6878,-0.83546 -3.8846,-2.58857 -4.8817,-3.8958 -2.066,-2.70877 -3.8353,-7.98688 -3.8353,-11.44181 0,-5.50659 9.759,-32.89937 16.1514,-45.33562 3.6905,-7.17987 6.3288,-9.14218 13.1194,-9.75793 7.5929,-0.6885 13.0857,3.45418 15.0398,11.34306 1.1435,4.61608 -0.5779,10.86497 -8.6981,31.57646 -3.5649,9.09248 -6.9326,17.96152 -7.484,19.70898 -1.2286,3.89389 -3.307,6.242 -7.057,7.97277 -3.8313,1.76822 -8.5704,1.70297 -12.3545,-0.17011 z"
                   style="opacity:1;fill:#666666;fill-opacity:1;stroke:#000000;stroke-width:2.45399332;stroke-miterlimit:4;stroke-dasharray:none;stroke-opacity:1" />
              </g>
            </g>
          </g>
        </g>
        <path
           sodipodi:nodetypes="ccssccc"
           inkscape:connector-curvature="0"
           id="path2581"
           d="m -1221.2127,445.54319 c -1.6139,-1.66901 -2.7109,-3.74216 -4.0845,-7.71778 -0.4467,-1.29388 0.5218,2.35389 8.1672,2.35389 4.96,0 7.5384,-3.43069 7.5384,-2.96782 0,1.69868 -2.4356,6.65163 -4.1095,8.35673 -2.4056,2.45054 -5.1265,2.44149 -7.5116,-0.0234 z"
           style="opacity:1;fill:#ffffff;fill-opacity:1;stroke:#000000;stroke-width:1.52911961;stroke-miterlimit:4;stroke-dasharray:none;stroke-dashoffset:0;stroke-opacity:1" />
      </g>
      <g
         transform="translate(-766.91369,35.151785)"
         id="g6418">
        <path
           style="opacity:1;fill:#f9f9f9;fill-opacity:1;stroke:none;stroke-width:1.48902082;stroke-miterlimit:4;stroke-dasharray:none;stroke-dashoffset:0;stroke-opacity:1"
           d="m -2134.7015,507.68296 c 1.4537,-0.1699 17.5799,-0.36151 35.8361,-0.42575 19.6666,-0.0692 34.5387,-0.51443 36.4944,-1.0925 6.2639,-1.85131 6.1546,-0.87151 5.7114,-51.21261 -0.2225,-25.24648 -0.4588,-54.51784 -0.5254,-65.04753 -0.1324,-21.02214 -0.657,-22.88792 -6.7954,-24.16079 -4.3095,-0.89368 -79.1822,-0.52199 -83.7688,0.41587 -3.4398,0.70326 -4.1131,1.29817 -5.2786,4.66362 -2.4652,7.11704 -2.7719,114.91776 -0.3665,128.68275 0.4864,2.78286 1.5604,5.68091 2.3863,6.44013 1.4897,1.36934 10.8864,2.37019 16.3065,1.73681 z"
           id="path6314"
           inkscape:connector-curvature="0" />
        <g
           transform="matrix(1.6452681,-0.30946659,0.26962478,1.8883854,-521.3381,-647.44783)"
           id="g1473">
          <g
             id="g871"
             transform="matrix(1.4045139,0,0,1.3212491,-487.82593,-74.954722)"
             style="fill:#ffffff">
            <g
               id="g6297"
               transform="translate(40.939398,-127.77575)">
              <path
                 inkscape:connector-curvature="0"
                 id="path2084"
                 d="m -1919.5465,479.08308 c -1.0458,-1.18779 -0.9341,-85.13254 0.1151,-86.51745 0.412,-0.54393 1.0058,-0.8304 1.3193,-0.63662 0.3959,0.24472 0.5701,13.15622 0.5701,42.2633 0,40.88908 0.025,41.92445 1.034,42.46433 0.6844,0.36629 13.6714,0.55332 38.4213,0.55332 30.388,0 37.4975,-0.13261 37.9753,-0.70831 0.3694,-0.44517 0.642,-4.46665 0.7336,-10.8244 l 0.1458,-10.1161 9.0485,-0.14701 c 5.5658,-0.0904 9.3205,-0.37277 9.7553,-0.73361 0.5782,-0.47982 0.7054,-11.01272 0.6987,-57.85051 0,-31.49512 -0.1976,-57.56209 -0.4291,-57.92663 -0.3229,-0.50842 -6.202,-0.69514 -25.2488,-0.80179 l -24.8279,-0.13904 -0.1691,-1.47 -0.1692,-1.46997 h 26.4952 26.4952 l -0.01,61.33835 -0.01,61.33836 -1.6432,1.87089 c -3.9136,4.45603 -10.9988,12.27138 -14.7768,16.29974 -1.5435,1.64576 -2.8063,3.22191 -2.8063,3.50252 0,0.31967 -15.3211,0.50263 -41.0259,0.48988 -34.7485,-0.0172 -41.1281,-0.13645 -41.694,-0.77925 z m 85.5357,-7.47355 c 0.9503,-1.0223 2.9305,-3.2062 4.4005,-4.85312 1.47,-1.64693 3.5822,-3.97526 4.6938,-5.17406 1.1117,-1.1988 1.9335,-2.44264 1.8264,-2.76408 -0.127,-0.38105 -2.5046,-0.58444 -6.832,-0.58444 h -6.6372 l -0.1483,7.6172 c -0.098,5.0356 0.041,7.61717 0.4103,7.61717 0.3073,0 1.3362,-0.8364 2.2865,-1.85867 z"
                 style="opacity:1;fill:#000000;fill-opacity:1;stroke:none;stroke-width:9.71362686;stroke-miterlimit:4;stroke-dasharray:none;stroke-dashoffset:0;stroke-opacity:1"
                 transform="matrix(0.4214321,0.07341623,-0.06017232,0.39031478,385.12187,469.13957)" />
              <path
                 style="opacity:1;fill:#000000;fill-opacity:1;stroke:none;stroke-width:0.56843221;stroke-miterlimit:4;stroke-dasharray:none;stroke-opacity:1"
                 d="m -1270.0849,432.14726 c -3.9184,-1.95432 -4.7369,-5.51248 -2.1212,-9.21842 0.869,-1.231 2.791,-2.93888 4.1874,-3.72072 0.9163,-0.51307 2.8327,-1.22135 4.1484,-1.53287 1.9593,-0.46403 5.1833,-0.49844 7.5414,-0.0804 0.4968,0.088 1.0171,0.14244 1.1564,0.12062 0.2326,-0.0368 0.048,-1.69246 -1.0161,-9.045 -0.099,-0.6837 -0.2635,-1.83898 -0.366,-2.56734 -0.102,-0.72827 -0.2554,-1.70171 -0.3407,-2.16314 -0.085,-0.46127 -0.7374,-4.47339 -1.4495,-8.91568 -0.7119,-4.44223 -1.3413,-8.30477 -1.398,-8.58321 -0.1023,-0.49422 -0.832,-4.91382 -1.3928,-8.42297 -0.1535,-0.96155 -0.4895,-2.80197 -0.7464,-4.08971 -0.4652,-2.32966 -0.4771,-2.67536 -0.107,-3.05778 0.5126,-0.53026 3.4197,-0.14928 4.1559,0.54457 0.2551,0.23706 0.643,1.28763 1.0714,2.88274 0.6422,2.39052 0.7393,2.60043 2.0801,4.48789 1.4715,2.07105 3.1212,3.74991 5.4187,5.51366 1.556,1.19467 3.9339,2.92374 4.0785,2.96589 0.2861,0.0833 3.5279,2.62523 4.7866,3.75296 5.0777,4.54976 7.0312,9.7523 6.1671,16.42307 -0.466,3.59696 -2.6032,8.59069 -4.2265,9.88311 -1.0364,0.82411 -1.9658,0.80885 -2.677,-0.0439 l -0.4139,-0.49654 0.696,-2.08068 c 0.6141,-1.82689 0.9559,-3.31329 1.3422,-5.78219 0.166,-1.06635 0.2907,-3.72155 0.2166,-4.62045 -0.2669,-3.24756 -1.1085,-5.93422 -2.5231,-8.05577 -1.559,-2.33801 -3.2431,-3.79517 -6.2286,-5.38928 -0.9605,-0.51295 -6.5224,-2.20822 -6.8457,-2.08659 -0.099,0.0385 -0.1291,0.56523 -0.065,1.17167 0.1509,1.41748 0.5727,4.52137 0.7467,5.49352 0.074,0.41462 0.236,1.39043 0.3595,2.16857 0.2048,1.28979 1.9791,11.17993 2.1487,11.977 0.042,0.18683 0.2149,1.20164 0.3898,2.25669 0.1748,1.05506 0.4339,2.59883 0.5759,3.43067 0.2238,1.31004 0.5353,3.84712 0.6664,5.42477 0.2096,2.52723 -0.794,6.47757 -2.047,8.05672 -0.8984,1.13226 -1.6372,1.78726 -2.9756,2.63898 -3.8581,2.45502 -10.8823,2.8106 -14.9954,0.75908 z"
                 id="path1028"
                 inkscape:connector-curvature="0"
                 transform="matrix(0.4214321,0.07341623,-0.06017232,0.39031478,110.79116,393.87291)" />
              <path
                 sodipodi:nodetypes="cc"
                 style="fill:#ffffff;stroke:#000000;stroke-width:1.68503916;stroke-linecap:butt;stroke-linejoin:miter;stroke-miterlimit:4;stroke-dasharray:none;stroke-opacity:1"
                 d="m -436.5305,476.60616 c 0.53024,0.0886 14.88894,2.23737 14.88894,2.23737"
                 id="path853-6"
                 inkscape:connector-curvature="0" />
              <path
                 sodipodi:nodetypes="cc"
                 inkscape:connector-curvature="0"
                 id="path857-1"
                 d="m -437.1253,481.7608 c 0.53024,0.0886 14.38227,2.00851 14.38227,2.00851"
                 style="fill:#ffffff;stroke:#000000;stroke-width:1.68503916;stroke-linecap:butt;stroke-linejoin:miter;stroke-miterlimit:4;stroke-dasharray:none;stroke-opacity:1" />
              <path
                 sodipodi:nodetypes="cc"
                 style="fill:#ffffff;stroke:#000000;stroke-width:1.68503916;stroke-linecap:butt;stroke-linejoin:miter;stroke-miterlimit:4;stroke-dasharray:none;stroke-opacity:1"
                 d="m -438.40304,487.60963 c 0.53024,0.0886 14.99041,1.89383 14.99041,1.89383"
                 id="path859-7"
                 inkscape:connector-curvature="0" />
              <path
                 inkscape:connector-curvature="0"
                 id="path861-2"
                 d="m -439.15052,493.54707 c 0.53024,0.0886 20.516,2.88921 20.516,2.88921"
                 style="fill:#ffffff;stroke:#000000;stroke-width:1.68503916;stroke-linecap:butt;stroke-linejoin:miter;stroke-miterlimit:4;stroke-dasharray:none;stroke-opacity:1" />
              <path
                 style="fill:#ffffff;stroke:#000000;stroke-width:1.68503916;stroke-linecap:butt;stroke-linejoin:miter;stroke-miterlimit:4;stroke-dasharray:none;stroke-opacity:1"
                 d="m -440.04121,498.11339 c 0.53023,0.0886 20.516,2.88921 20.516,2.88921"
                 id="path863-2"
                 inkscape:connector-curvature="0" />
              <rect
                 transform="matrix(0.98632569,0.16480785,-0.19144864,0.98150263,0,0)"
                 y="540.71857"
                 x="-318.96338"
                 height="10.749638"
                 width="6.4352551"
                 id="rect1463-4"
                 style="opacity:1;fill:none;fill-opacity:1;stroke:#000000;stroke-width:1.68534791;stroke-miterlimit:4;stroke-dasharray:none;stroke-dashoffset:0;stroke-opacity:1" />
            </g>
          </g>
        </g>
      </g>
      <path
         style="opacity:1;fill:#ffc985;fill-opacity:1;stroke:#000000;stroke-width:2.23892164;stroke-linecap:butt;stroke-linejoin:miter;stroke-miterlimit:4;stroke-dasharray:none;stroke-opacity:1"
         d="m -2822.806,519.23359 c -0.7019,-0.58639 -10.3738,-4.61845 -10.3738,-4.61845 -8.5273,-2.92856 -11.8584,2.79324 -9.2792,4.96154 11.1976,6.89462 34.8387,27.43386 57.9191,18.62226 8.2706,-4.28257 15.6134,-16.90215 14.9777,-16.56762 7.1903,-20.87154 -28.577,-59.64626 -32.0902,-37.35046 -6.4335,-4.1778 -10.9132,-3.90564 -11.9209,5.22317 -2.1022,-1.21432 -3.5385,-3.17516 -7.1994,-2.64298 -5.2584,1.82787 -4.2356,5.87338 -4.0244,9.96283 l -15.1497,-16.11401 c -4.7797,-6.7808 -17.5969,-2.79002 -12.4155,5.31413 z"
         id="path847"
         inkscape:connector-curvature="0"
         sodipodi:nodetypes="cccccccccccc" />
    </g>
  </g>
</svg>
