<?xml version="1.0" encoding="UTF-8" standalone="no"?>
<!-- Created with Inkscape (http://www.inkscape.org/) -->

<svg
   xmlns:dc="http://purl.org/dc/elements/1.1/"
   xmlns:cc="http://creativecommons.org/ns#"
   xmlns:rdf="http://www.w3.org/1999/02/22-rdf-syntax-ns#"
   xmlns:svg="http://www.w3.org/2000/svg"
   xmlns="http://www.w3.org/2000/svg"
   xmlns:sodipodi="http://sodipodi.sourceforge.net/DTD/sodipodi-0.dtd"
   xmlns:inkscape="http://www.inkscape.org/namespaces/inkscape"
   version="1.1"
   id="svg2"
   width="165"
   height="164"
   viewBox="0 0 165 164"
   sodipodi:docname="2.svg"
   inkscape:export-filename="C:\Users\danie\OneDrive\Ãrea de Trabalho\playground\img\3.png"
   inkscape:export-xdpi="76"
   inkscape:export-ydpi="76"
   inkscape:version="0.92.3 (2405546, 2018-03-11)">
  <metadata
     id="metadata8">
    <rdf:RDF>
      <cc:Work
         rdf:about="">
        <dc:format>image/svg+xml</dc:format>
        <dc:type
           rdf:resource="http://purl.org/dc/dcmitype/StillImage" />
        <dc:title></dc:title>
      </cc:Work>
    </rdf:RDF>
  </metadata>
  <defs
     id="defs6" />
  <sodipodi:namedview
     pagecolor="#ffffff"
     bordercolor="#666666"
     borderopacity="1"
     objecttolerance="10"
     gridtolerance="10"
     guidetolerance="10"
     inkscape:pageopacity="0"
     inkscape:pageshadow="2"
     inkscape:window-width="2160"
     inkscape:window-height="1346"
     id="namedview4"
     showgrid="false"
     inkscape:zoom="2.0350878"
     inkscape:cx="161.78646"
     inkscape:cy="163.29774"
     inkscape:window-x="-11"
     inkscape:window-y="-11"
     inkscape:window-maximized="1"
     inkscape:current-layer="g6686" />
  <g
     transform="matrix(0.71179433,0,0,0.69625395,639.26407,-486.04301)"
     id="g6686">
    <g
       id="g6621"
       transform="matrix(0.91987055,0,0,1.2297003,-131.39843,755.34215)">
      <g
         transform="matrix(3.2862377,0,0,3.5648933,200.60804,-1827.808)"
         id="g1400">
        <g
           transform="translate(-4.8241123,46.879831)"
           id="g1398">
          <rect
             transform="matrix(0.75010215,0.66132198,-0.71791164,0.69613424,0,0)"
             y="511.65082"
             x="170.73334"
             height="4.0564079"
             width="1.9758865"
             id="rect1388"
             style="opacity:1;fill:#ffffff;fill-opacity:1;stroke:#000000;stroke-width:0.1954314;stroke-miterlimit:4;stroke-dasharray:none;stroke-opacity:1" />
          <path
             sodipodi:nodetypes="cccccccccccccccccc"
             inkscape:connector-curvature="0"
             id="path1390"
             d="m -239.67634,492.14404 c -0.0577,-0.0695 -0.37121,-0.20106 -0.69665,-0.29226 -4.09593,-0.59395 -5.51154,-2.60979 -8.15124,-3.68971 -0.73842,-0.2081 -1.43855,-0.31552 -2.18007,-0.53065 -1.51464,0.40363 -3.00565,-0.93049 -1.05722,-1.50863 0.33115,-0.20728 1.82738,-0.93781 7.32062,-0.76131 1.2701,0.16311 1.74568,-0.99474 2.22426,-1.8552 0.54445,-0.85776 1.01659,-2.40665 0.73686,-4.55732 -0.12973,-0.23543 -0.19883,-0.46315 -0.43077,-1.41962 -0.56204,-2.03426 -1.46562,-3.59478 -3.26801,-5.05545 -0.12945,-0.10393 -0.64963,-0.39981 -1.15596,-0.65746 -1.06265,-0.54078 -2.866,-0.94107 -2.09757,-0.99111 1.35537,-3.40063 6.46864,0.81362 9.54498,4.09237 2.43647,2.98139 4.03739,7.61638 4.67864,10.97436 0.15141,0.674 0.59268,1.57251 0.19052,2.10664 -1.12033,1.40859 -3.99539,2.96823 -5.27655,4.15359 -0.15971,0.1511 -0.25151,0.14909 -0.38214,-0.008 z"
             style="opacity:1;fill:#ffc985;fill-opacity:1;stroke:#000000;stroke-width:0.70892859;stroke-miterlimit:4;stroke-dasharray:none;stroke-opacity:1" />
          <g
             style="fill:url(#meshgradient1410);fill-opacity:1"
             transform="matrix(1.2403141,0,0,1.2477084,68.643631,-107.73366)"
             id="g1396">
            <ellipse
               style="opacity:1;fill:#ffffff;fill-opacity:1;stroke:#000000;stroke-width:0.30899999;stroke-miterlimit:4;stroke-dasharray:none;stroke-opacity:1"
               id="ellipse1392"
               cx="-256.74033"
               cy="470.20758"
               rx="6.3311014"
               ry="6.1421127" />
            <ellipse
               style="opacity:1;fill:#6a4124;fill-opacity:1;stroke:#000000;stroke-width:0.24620606;stroke-miterlimit:4;stroke-dasharray:none;stroke-opacity:1"
               id="ellipse1394"
               cx="-256.78757"
               cy="470.39658"
               rx="4.9923348"
               ry="4.945087" />
          </g>
        </g>
      </g>
      <g
         id="g1366"
         transform="matrix(2.1292094,0.92997528,-0.90604992,2.1443922,69.954213,-936.15517)">
        <g
           id="g1384"
           transform="matrix(2.0313154,0,0,1.961579,565.29982,-476.14884)">
          <rect
             style="opacity:1;fill:#ff1d00;fill-opacity:1;stroke:#000000;stroke-width:1.3276546;stroke-miterlimit:4;stroke-dasharray:none;stroke-opacity:1"
             id="rect1207"
             width="25.763857"
             height="22.93413"
             x="-604.02362"
             y="160.6586"
             transform="matrix(0.77981884,-0.62600525,0.58524307,0.81085791,0,0)" />
          <path
             style="opacity:1;fill:#ffffff;fill-opacity:1;stroke:none;stroke-width:0.3623713;stroke-miterlimit:4;stroke-dasharray:none;stroke-opacity:1"
             d="m -365.13531,520.12224 c -0.92486,-0.72929 -2.81242,-3.07177 -4.5861,-5.69144 -1.24346,-1.83652 -1.60392,-3.39599 -0.99174,-4.29108 0.6722,-0.98091 4.621,-4.17699 8.60381,-6.96073 0.9437,-0.65956 1.92462,-1.38925 2.17972,-1.62154 0.89366,-0.81345 2.99816,-1.40174 3.83491,-1.07209 0.80254,0.31623 3.22101,3.1679 4.9536,5.84102 1.13649,1.75329 1.62468,3.65242 1.13895,4.43049 -0.40643,0.65105 -5.50373,4.78283 -9.06966,7.35182 -0.29827,0.21501 -1.13753,0.82003 -1.8649,1.34468 -1.88478,1.3595 -3.0809,1.55007 -4.19851,0.66887 z m 5.51736,-6.67461 c -0.0312,-0.14301 0.13806,-0.6502 0.37593,-1.12729 0.50384,-1.01018 0.57013,-1.15372 1.33614,-2.89292 0.90199,-2.04795 0.71843,-2.22487 -1.94755,-1.87723 -2.8757,0.37498 -4.65238,0.75459 -4.60245,0.98344 0.0207,0.0951 0.55523,0.88203 1.18774,1.74849 0.63247,0.86655 1.48865,2.03991 1.90259,2.60751 0.44696,0.61296 0.96617,0.98858 1.27802,0.92559 0.28932,-0.0583 0.5003,-0.22408 0.46917,-0.36691 z"
             id="path1166"
             inkscape:connector-curvature="0" />
        </g>
      </g>
      <path
         inkscape:connector-curvature="0"
         id="path1408"
         d="m -735.70979,137.26149 c -7.6298,-0.394 -15.92418,-6.44253 -23.4428,-17.09511 -4.98578,-7.06379 -7.98131,-13.5296 -9.08672,-19.6124 -1.41061,-7.763558 0.35892,-10.511558 5.82972,-9.053167 1.55164,0.413667 3.07925,0.694888 3.3946,0.624967 0.31504,-0.06975 0.32101,-1.600392 0.0149,-3.401054 -1.029,-6.008717 1.02885,-7.853776 6.89082,-6.178399 1.74448,0.49864 3.31315,0.875227 3.48595,0.836903 0.17258,-0.03821 0.051,-1.604974 -0.27031,-3.481538 -0.44265,-2.584811 -0.35045,-3.776041 0.38142,-4.913956 1.60629,-2.498175 3.82406,-2.474423 8.51149,0.09119 2.33571,1.278409 4.34922,2.165132 4.47446,1.970439 0.12536,-0.194725 -2.40509,-6.60479 -5.62287,-14.244516 -3.76279,-8.93367 -5.81199,-14.496439 -5.74245,-15.588326 0.14927,-2.342675 2.34398,-5.303327 4.24347,-5.724435 3.23717,-0.717708 4.09831,0.692185 14.58516,23.879552 5.44348,12.035965 10.19061,22.101819 10.54904,22.368561 1.42259,1.058301 2.40459,-1.275737 2.40789,-5.722991 10e-4,-2.450671 0.003,-5.388922 0.003,-6.529447 -3.1e-4,-3.088082 2.03892,-6.541068 3.9744,-6.729827 l 1.57337,-0.153325 2.64941,15.832356 c 2.37074,14.168647 2.60483,16.383613 2.22417,21.077973 -0.94582,11.668 -4.8239,20.84273 -10.87854,25.73632 -2.74368,2.21752 -3.65342,2.58196 -10.64827,4.26524 -4.20669,1.01204 -8.48124,1.79746 -9.49906,1.74522 z"
         style="opacity:1;fill:#ffc985;fill-opacity:1;stroke:#000000;stroke-width:2.18757176;stroke-miterlimit:4;stroke-dasharray:none;stroke-opacity:1" />
    </g>
  </g>
</svg>
