<?xml version="1.0" encoding="UTF-8" standalone="no"?>
<!-- Created with Inkscape (http://www.inkscape.org/) -->

<svg
   xmlns:dc="http://purl.org/dc/elements/1.1/"
   xmlns:cc="http://creativecommons.org/ns#"
   xmlns:rdf="http://www.w3.org/1999/02/22-rdf-syntax-ns#"
   xmlns:svg="http://www.w3.org/2000/svg"
   xmlns="http://www.w3.org/2000/svg"
   xmlns:sodipodi="http://sodipodi.sourceforge.net/DTD/sodipodi-0.dtd"
   xmlns:inkscape="http://www.inkscape.org/namespaces/inkscape"
   version="1.1"
   id="svg2"
   width="165"
   height="164"
   viewBox="0 0 165 164"
   sodipodi:docname="5.svg"
   inkscape:export-filename="C:\Users\danie\OneDrive\Ãrea de Trabalho\playground\img\5..png"
   inkscape:export-xdpi="76"
   inkscape:export-ydpi="76"
   inkscape:version="0.92.3 (2405546, 2018-03-11)">
  <metadata
     id="metadata8">
    <rdf:RDF>
      <cc:Work
         rdf:about="">
        <dc:format>image/svg+xml</dc:format>
        <dc:type
           rdf:resource="http://purl.org/dc/dcmitype/StillImage" />
        <dc:title />
      </cc:Work>
    </rdf:RDF>
  </metadata>
  <defs
     id="defs6" />
  <sodipodi:namedview
     pagecolor="#ffffff"
     bordercolor="#666666"
     borderopacity="1"
     objecttolerance="10"
     gridtolerance="10"
     guidetolerance="10"
     inkscape:pageopacity="0"
     inkscape:pageshadow="2"
     inkscape:window-width="2160"
     inkscape:window-height="1346"
     id="namedview4"
     showgrid="false"
     inkscape:zoom="11.512195"
     inkscape:cx="-10.324392"
     inkscape:cy="45.956163"
     inkscape:window-x="-11"
     inkscape:window-y="-11"
     inkscape:window-maximized="1"
     inkscape:current-layer="g1953"
     inkscape:measure-start="0,0"
     inkscape:measure-end="0,0" />
  <g
     transform="matrix(0.71179433,0,0,0.69625395,639.26407,-486.04301)"
     id="g6686">
    <g
       transform="matrix(0.59952764,0,0,0.63076216,-592.74395,675.25179)"
       id="g6958">
      <g
         transform="matrix(1.023855,0,0,1.0540903,7.5762521,-15.486858)"
         id="g1953">
        <ellipse
           style="opacity:1;fill:#27aae1;fill-opacity:1;stroke:none;stroke-width:0.82319093;stroke-miterlimit:4;stroke-dasharray:none;stroke-dashoffset:0;stroke-opacity:1"
           id="path2668"
           cx="-282.69281"
           cy="219.97708"
           rx="155.21536"
           ry="171.72044" />
        <path
           style="opacity:1;fill:#ff0000;fill-opacity:1;stroke:none;stroke-width:13.1009016;stroke-miterlimit:4;stroke-dasharray:none;stroke-dashoffset:0;stroke-opacity:1"
           d="m -209.75616,195.24403 c 8.85012,-0.11921 23.13411,-0.11921 31.74242,2.6e-4 8.60822,0.11953 1.36723,0.21707 -16.09103,0.21689 -17.45828,-1.7e-4 -24.50143,-0.0979 -15.65139,-0.21717 z"
           id="path2082"
           inkscape:connector-curvature="0" />
        <path
           style="opacity:1;fill:#ff0000;fill-opacity:1;stroke:none;stroke-width:13.1009016;stroke-miterlimit:4;stroke-dasharray:none;stroke-dashoffset:0;stroke-opacity:1"
           d="m -201.65894,247.0911 c -0.22217,-0.39239 -0.10985,-0.91189 0.24971,-1.15438 0.3595,-0.24251 0.83542,-0.11986 1.05759,0.2725 0.22219,0.39241 0.10985,0.91188 -0.24971,1.1544 -0.3595,0.24252 -0.83541,0.11986 -1.05759,-0.27252 z"
           id="path2086"
           inkscape:connector-curvature="0" />
        <path
           style="opacity:1;fill:#ff0000;fill-opacity:1;stroke:none;stroke-width:13.1009016;stroke-miterlimit:4;stroke-dasharray:none;stroke-dashoffset:0;stroke-opacity:1"
           d="m -268.78737,189.7827 c 0,-1.86423 0.13459,-2.62684 0.29899,-1.69475 0.16449,0.93209 0.16449,2.45734 0,3.38947 -0.16449,0.93209 -0.29899,0.16946 -0.29899,-1.69472 z"
           id="path2092"
           inkscape:connector-curvature="0" />
        <g
           transform="matrix(2.3254691,0,0,3.3667445,114.65248,-468.54428)"
           id="g2659"
           style="stroke:#000000;stroke-width:2.03639531;stroke-miterlimit:4;stroke-dasharray:none;stroke-opacity:1">
          <path
             sodipodi:nodetypes="ccccccc"
             inkscape:connector-curvature="0"
             id="path1056"
             d="m -245.34032,169.82682 49.67295,-0.37798 c 29.82649,5.22377 19.6927,52.98034 -4.79794,51.12129 l -0.65853,15.59151 -13.54718,-14.74108 c 0,0 -35.37316,-1.13392 -35.37316,-2.64583 -19.27878,-10.25441 -15.21685,-48.85587 4.70386,-48.94791 z"
             style="fill:#f9f9f9;stroke:#000000;stroke-width:2.46053505;stroke-linecap:butt;stroke-linejoin:miter;stroke-miterlimit:4;stroke-dasharray:none;stroke-opacity:1" />
          <path
             inkscape:connector-curvature="0"
             id="path2094"
             d="m -224.8785,196.32182 c 0,-1.46711 0.2041,-2.68815 0.58224,-3.48304 0.074,-0.15561 0.24861,-0.53753 0.38796,-0.84875 0.13936,-0.31119 0.28157,-0.58704 0.31602,-0.61297 0.0344,-0.0259 0.13397,-0.17447 0.22117,-0.33006 0.19879,-0.35471 0.44748,-0.73974 0.51778,-0.8016 0.0294,-0.0259 0.19718,-0.23811 0.3727,-0.47151 0.17552,-0.23341 0.3455,-0.44559 0.37776,-0.47153 0.0323,-0.0259 0.46171,-0.49274 0.9544,-1.03735 0.49266,-0.54461 0.92608,-1.01142 0.96312,-1.03734 0.0371,-0.0259 0.30955,-0.36543 0.60554,-0.75444 0.63051,-0.82862 1.09563,-1.61996 1.09563,-1.86409 0,-0.0951 0.0599,-0.22593 0.13323,-0.29076 0.0863,-0.0763 0.13061,-0.39032 0.12583,-0.89118 -0.0118,-1.23215 -0.57891,-2.10536 -1.69777,-2.614 -0.80691,-0.3668 -2.19325,-0.6023 -3.09059,-0.52497 -0.72446,0.0624 -2.13084,0.31055 -2.45117,0.43248 -0.11722,0.0446 -0.40292,0.13271 -0.63491,0.19577 -0.23197,0.0631 -0.73033,0.25698 -1.10751,0.43093 -0.75232,0.347 -0.97517,0.38771 -0.97517,0.17814 0,-0.0759 -0.0675,-0.32 -0.15005,-0.54226 -0.0825,-0.22223 -0.27789,-0.78601 -0.43415,-1.25281 -0.15625,-0.46681 -0.32653,-0.93361 -0.37837,-1.03737 -0.0518,-0.10373 -0.14621,-0.37956 -0.20972,-0.61296 -0.0635,-0.23342 -0.15703,-0.50925 -0.20783,-0.61299 -0.0508,-0.10373 -0.16084,-0.38677 -0.24455,-0.62896 l -0.15218,-0.44035 0.78216,-0.33765 c 0.43019,-0.18573 0.81073,-0.33768 0.84568,-0.33768 0.035,0 0.21462,-0.0588 0.39934,-0.13071 1.16899,-0.45503 2.79133,-0.81307 4.9717,-1.09723 0.75335,-0.0982 3.92585,-0.0991 4.68918,-0.001 0.95757,0.12262 1.82443,0.29076 2.50445,0.48577 0.59471,0.17056 2.10256,0.78647 2.34459,0.95771 0.0586,0.0414 0.25827,0.17119 0.44368,0.28827 0.97435,0.61524 2.1283,1.82486 2.48951,2.60958 0.0597,0.12966 0.15689,0.32062 0.216,0.42438 0.18746,0.32884 0.43882,1.20305 0.54232,1.88608 0.17827,1.17632 -0.096,3.25368 -0.54779,4.14939 -0.57314,1.13624 -0.83341,1.56829 -1.34744,2.23671 -0.53341,0.69359 -0.81321,1.00992 -1.84958,2.0909 -0.14654,0.15285 -0.49002,0.49355 -0.76331,0.75711 -0.2733,0.26359 -0.64439,0.64898 -0.82466,0.85645 -0.18028,0.20748 -0.36513,0.41966 -0.41078,0.47153 -0.33231,0.37758 -0.88681,1.23167 -1.13268,1.74463 -0.16159,0.33713 -0.3363,0.69785 -0.38824,0.80158 -0.19391,0.38727 -0.42348,1.83548 -0.42348,2.67145 v 0.86497 h -3.73003 -3.73003 z"
             style="opacity:1;fill:#ff0000;fill-opacity:1;stroke:none;stroke-width:2.03639531;stroke-miterlimit:4;stroke-dasharray:none;stroke-dashoffset:0;stroke-opacity:1" />
          <path
             inkscape:connector-curvature="0"
             id="path2096"
             d="m -221.95727,212.25179 c -0.80419,-0.26381 -1.28115,-0.5415 -1.88884,-1.09968 -1.47576,-1.35551 -1.79626,-3.56723 -0.78526,-5.41892 0.39614,-0.72552 1.14361,-1.38058 2.03709,-1.78523 1.31849,-0.59713 3.44565,-0.60951 4.76701,-0.0278 0.75642,0.33304 1.7056,1.16679 2.01423,1.76922 0.13285,0.25934 0.28535,0.5442 0.33888,0.63301 0.18658,0.30954 0.30473,1.7268 0.19982,2.39705 -0.10478,0.66952 -0.465,1.59147 -0.70708,1.80978 -0.076,0.0685 -0.13821,0.15714 -0.13821,0.1969 0,0.18195 -1.54227,1.32748 -1.78982,1.32939 -0.0414,0 -0.21906,0.0707 -0.39491,0.15644 -0.23804,0.11605 -0.67363,0.16459 -1.70515,0.19004 -1.17602,0.0291 -1.47044,0.006 -1.94776,-0.15029 z"
             style="opacity:1;fill:#ff0000;fill-opacity:1;stroke:none;stroke-width:2.03639531;stroke-miterlimit:4;stroke-dasharray:none;stroke-dashoffset:0;stroke-opacity:1" />
        </g>
        <path
           style="fill:#eef4d7;stroke:none;stroke-width:0.28359571px;stroke-linecap:butt;stroke-linejoin:miter;stroke-opacity:1"
           d="m -296.87003,137.3737 c 9.01784,-5.97044 30.50941,-21.09533 30.7812,-20.96814 l 98.2064,0.78385 v 38.21298 c 0,0 -97.57822,1.37172 -98.62524,0.19592 -1.04694,-1.17578 -30.36236,-18.22461 -30.36236,-18.22461 z"
           id="path2107"
           inkscape:connector-curvature="0"
           sodipodi:nodetypes="cccccc" />
        <path
           sodipodi:nodetypes="cccccc"
           inkscape:connector-curvature="0"
           id="path2109"
           d="m -292.59363,192.15738 c 9.01783,-5.97044 30.50932,-21.09531 30.78109,-20.96812 l 98.20642,0.78384 v 38.21296 c 0,0 -97.57823,1.37175 -98.62526,0.19595 -1.04694,-1.17579 -30.36225,-18.22463 -30.36225,-18.22463 z"
           style="fill:#ffd5d5;stroke:none;stroke-width:0.28359571px;stroke-linecap:butt;stroke-linejoin:miter;stroke-opacity:1" />
        <path
           style="fill:#ffd5d5;fill-opacity:1;stroke:none;stroke-width:0.28359571px;stroke-linecap:butt;stroke-linejoin:miter;stroke-opacity:1"
           d="m -288.55069,246.92307 c 9.01783,-5.97044 30.50939,-21.09532 30.78118,-20.96815 l 98.2064,0.78386 v 38.21296 c 0,0 -97.57822,1.37173 -98.62525,0.19595 -1.04692,-1.17579 -30.36233,-18.22462 -30.36233,-18.22462 z"
           id="path2111"
           inkscape:connector-curvature="0"
           sodipodi:nodetypes="cccccc" />
        <path
           sodipodi:nodetypes="cccccc"
           inkscape:connector-curvature="0"
           id="path2113"
           d="m -294.90524,311.47334 c 9.37273,-5.97044 31.71004,-21.09533 31.99256,-20.96814 l 102.07114,0.78385 v 38.21296 c 0,0 -101.41829,1.37173 -102.50652,0.19594 -1.08806,-1.17578 -31.55718,-18.22461 -31.55718,-18.22461 z"
           style="fill:#ffd5d5;fill-opacity:1;stroke:none;stroke-width:0.2891221px;stroke-linecap:butt;stroke-linejoin:miter;stroke-opacity:1" />
        <path
           style="opacity:1;fill:#338000;fill-opacity:1;stroke:none;stroke-width:18.64106941;stroke-miterlimit:4;stroke-dasharray:none;stroke-dashoffset:0;stroke-opacity:1"
           d="m -273.45084,149.52342 c 0,0 -10.04959,-10.12961 -11.7221,-12.7717 -4.4031,-4.77898 -7.65428,-8.93909 -12.06127,-13.57181 -1.5435,-1.62355 -0.4875,-4.05761 1.76039,-4.05761 4.24063,1.08478 11.1285,8.32573 12.59426,9.78648 4.01131,3.74894 5.85707,3.87999 6.65664,3.29741 2.47662,-1.50375 4.23834,-2.1 5.36409,-3.35309 13.24243,-11.61477 21.68329,-27.20169 26.089,-32.92423 0.40802,0 2.39687,1.404641 2.75613,2.235631 -0.42941,5.554199 -28.45616,54.967689 -31.43714,51.358919 z"
           id="path2088"
           inkscape:connector-curvature="0"
           sodipodi:nodetypes="cccccccccc" />
        <path
           style="opacity:1;fill:#ff0000;fill-opacity:1;stroke:none;stroke-width:17.19750214;stroke-miterlimit:4;stroke-dasharray:none;stroke-dashoffset:0;stroke-opacity:1"
           d="m -295.4378,207.10158 c 0,-2.55343 1.5502,-5.12997 8.51328,-14.14963 5.03348,-6.52011 5.13379,-5.96029 -2.901,-16.18773 -5.52332,-7.03056 -6.35654,-9.13754 -4.80012,-12.13786 0.82795,-1.59601 2.33786,0.0769 10.56444,11.70463 3.86139,5.45779 5.59643,6.095 7.50204,2.75501 0.69314,-1.21503 2.85819,-4.23831 4.81103,-6.71845 1.95285,-2.48008 4.16902,-5.58582 4.92469,-6.90162 1.29909,-2.26172 1.45446,-2.29433 2.84678,-0.59635 1.39233,1.69794 1.38687,1.97331 -0.0999,5.04271 -0.86496,1.78572 -3.3582,5.51712 -5.54045,8.29193 -4.70965,5.98843 -6.11029,8.0149 -6.11029,8.84046 0,0.33672 1.31428,2.3553 2.92064,4.48579 8.62258,11.43604 9.93407,13.43488 9.93407,15.1407 0,1.02422 -0.60164,2.14369 -1.33684,2.48781 -1.3303,0.62252 -2.51674,-0.71875 -11.14268,-12.59599 l -3.71231,-5.11161 -4.97306,6.24108 c -2.73514,3.43259 -5.83816,7.49642 -6.89551,9.03071 -2.38856,3.46594 -4.50483,3.64369 -4.50483,0.37841 z"
           id="path2090"
           inkscape:connector-curvature="0" />
        <path
           style="opacity:1;fill:#ff0000;fill-opacity:1;stroke:none;stroke-width:17.19750214;stroke-miterlimit:4;stroke-dasharray:none;stroke-dashoffset:0;stroke-opacity:1"
           d="m -298.85333,334.92585 c 0,-2.55342 1.5502,-5.12999 8.51322,-14.14962 5.03346,-6.52011 5.13385,-5.96031 -2.901,-16.18775 -5.52334,-7.03055 -6.35657,-9.13751 -4.80015,-12.13785 0.82795,-1.59601 2.33787,0.0769 10.56445,11.70463 3.86139,5.45778 5.59652,6.09499 7.50203,2.755 0.69323,-1.21501 2.85819,-4.2383 4.81104,-6.71842 1.95287,-2.48009 4.16903,-5.58585 4.92478,-6.90162 1.29899,-2.26175 1.45446,-2.29432 2.84677,-0.59635 1.39225,1.6979 1.3868,1.97326 -0.10006,5.04271 -0.86496,1.7857 -3.35818,5.51707 -5.54043,8.29191 -4.70957,5.98844 -6.11029,8.01492 -6.11029,8.84045 0,0.33672 1.31433,2.35533 2.92062,4.48581 8.62258,11.43605 9.93409,13.43484 9.93409,15.14069 0,1.02424 -0.60157,2.14369 -1.33686,2.48781 -1.33021,0.62251 -2.51674,-0.71875 -11.14258,-12.59598 l -3.71241,-5.11164 -4.97296,6.24112 c -2.73514,3.43257 -5.83817,7.49639 -6.89559,9.03069 -2.38856,3.46594 -4.50476,3.64371 -4.50476,0.37841 z"
           id="path2648"
           inkscape:connector-curvature="0" />
        <path
           inkscape:connector-curvature="0"
           id="path2650"
           d="m -293.48604,261.42688 c 0,-2.55342 1.55022,-5.12997 8.51328,-14.14962 5.03348,-6.52012 5.13379,-5.96029 -2.90107,-16.18773 -5.52325,-7.03056 -6.35647,-9.13752 -4.80005,-12.13787 0.82785,-1.59599 2.33786,0.0769 10.56444,11.70463 3.8613,5.4578 5.59643,6.09501 7.50195,2.75502 0.69323,-1.21501 2.85827,-4.23832 4.81112,-6.71846 1.95287,-2.48005 4.16895,-5.58581 4.92471,-6.90161 1.29907,-2.26172 1.45444,-2.29431 2.84678,-0.59635 1.39231,1.69793 1.38687,1.9733 -0.0999,5.04273 -0.86496,1.7857 -3.3582,5.5171 -5.54053,8.29192 -4.70957,5.98842 -6.11021,8.0149 -6.11021,8.84045 0,0.33672 1.31428,2.3553 2.92064,4.48579 8.62258,11.43603 9.934,13.43488 9.934,15.14072 0,1.02419 -0.60157,2.14366 -1.33677,2.48779 -1.3303,0.62252 -2.51674,-0.71875 -11.14268,-12.59599 l -3.71231,-5.11162 -4.97306,6.24109 c -2.73512,3.43258 -5.83816,7.49642 -6.89549,9.03071 -2.38858,3.46595 -4.50486,3.64369 -4.50486,0.3784 z"
           style="opacity:1;fill:#ff0000;fill-opacity:1;stroke:none;stroke-width:17.19750214;stroke-miterlimit:4;stroke-dasharray:none;stroke-dashoffset:0;stroke-opacity:1" />
        <path
           style="opacity:1;fill:#000000;fill-opacity:1;stroke:none;stroke-width:0.36162412;stroke-miterlimit:4;stroke-dasharray:none;stroke-dashoffset:0;stroke-opacity:1"
           d="m -229.28958,142.94194 c -0.0925,-0.0743 -0.30284,-0.13614 -0.46737,-0.13728 -0.35,-0.003 -1.29673,-0.48241 -1.57967,-0.80075 -0.31676,-0.35634 -0.23738,-0.58346 0.5283,-1.5124 1.27597,-1.54782 1.36455,-2.42912 0.40861,-4.06428 -0.49928,-0.85392 -0.8868,-1.059 -1.85131,-0.97972 -0.43789,0.036 -1.04039,0.005 -1.33887,-0.0694 -0.49044,-0.12181 -0.62522,-0.0918 -1.40207,0.31086 -1.04969,0.54428 -1.36422,0.88015 -1.36422,1.45693 0,0.23705 -0.10098,0.66519 -0.22427,0.95142 -0.21949,0.50906 -0.29352,1.39016 -0.15471,1.84006 0.0386,0.12426 0.25213,0.32061 0.47522,0.43646 0.22294,0.11579 0.52453,0.34885 0.67007,0.51776 0.31945,0.37088 0.62433,1.06519 0.52301,1.19117 -0.26573,0.33042 -5.73644,0.49122 -6.19667,0.18214 -0.59383,-0.3988 -0.12683,-1.10607 1.0791,-1.63399 0.92227,-0.40379 1.42649,-0.91702 1.53039,-1.55787 0.0343,-0.21153 0.11096,-0.57733 0.17059,-0.81288 0.0596,-0.23555 0.10855,-0.6121 0.10892,-0.83674 0,-0.4747 0.17206,-1.34365 0.38291,-1.94254 0.34103,-0.96838 0.54366,-1.8563 0.57303,-2.51028 0.0478,-1.06166 0.24844,-2.16978 0.44134,-2.43469 0.19354,-0.26601 0.12536,-0.42425 -0.18276,-0.42425 -0.25116,0 -0.25273,-0.0399 -0.0244,-0.58953 0.12129,-0.29183 0.19144,-0.87825 0.21175,-1.77121 0.0234,-1.0145 0.089,-1.49539 0.27463,-2.00341 0.13625,-0.37281 0.28666,-1.17471 0.34012,-1.81298 0.0528,-0.62946 0.19599,-1.43407 0.31854,-1.788 0.30233,-0.87307 0.80468,-3.19985 0.80468,-3.72691 0,-1.06657 0.48567,-1.50514 1.82261,-1.64565 0.91499,-0.0962 0.83154,-0.14852 1.47458,0.92576 0.43806,0.73188 0.8919,2.47467 0.85355,3.27732 -0.0646,1.34512 -0.009,1.91458 0.37066,3.55624 0.21939,0.95878 0.42991,2.02565 0.46761,2.37082 0.0379,0.34513 0.24107,1.75716 0.45172,3.13783 0.88553,5.80264 0.95286,6.33458 0.95286,7.52929 0,1.20819 0.009,1.23801 0.41237,1.85376 0.49751,0.75474 1.31284,1.42509 1.73346,1.42509 0.4279,0 0.87544,0.23262 0.95719,0.49761 0.10191,0.33038 -0.30275,0.75424 -0.81031,0.84865 -0.24307,0.0451 -0.50489,0.18037 -0.58177,0.30038 -0.089,0.13908 -0.38466,0.24023 -0.815,0.27892 -0.37134,0.0334 -0.70263,0.11595 -0.73612,0.18324 -0.0807,0.16139 -0.39753,0.15259 -0.60855,-0.0168 z m -3.30894,-10.04108 c 0.0378,-0.0767 0.16449,-0.1394 0.28059,-0.1394 0.11631,0 0.39089,-0.13175 0.61031,-0.29272 0.34539,-0.25336 0.39903,-0.36357 0.39903,-0.82016 0,-0.29007 -0.13237,-0.95853 -0.2941,-1.48541 -0.29276,-0.95346 -0.45703,-2.01332 -0.55901,-3.60769 -0.0764,-1.19513 -0.36211,-2.00545 -0.82747,-2.3472 -0.42606,-0.31289 -0.60063,-0.29463 -1.12583,0.11758 -0.31131,0.24431 -0.44645,0.44838 -0.44645,0.67405 0,0.17801 -0.0343,0.36666 -0.0772,0.41923 -0.20733,0.25782 -0.36857,1.25117 -0.37008,2.28006 0,0.62905 -0.0831,1.50766 -0.18259,1.95245 -0.2837,1.26852 -0.30275,1.53477 -0.16025,2.23999 0.21684,1.07294 0.32149,1.1487 1.58565,1.1487 0.61071,0 1.12843,-0.0619 1.16696,-0.1394 z"
           id="path2766"
           inkscape:connector-curvature="0" />
        <path
           style="opacity:1;fill:#000000;fill-opacity:1;stroke:none;stroke-width:0.36162412;stroke-miterlimit:4;stroke-dasharray:none;stroke-dashoffset:0;stroke-opacity:1"
           d="m -218.60225,142.15163 c -0.0378,-0.0767 -0.15471,-0.14087 -0.25904,-0.14266 -0.10431,-0.003 -0.46132,-0.34655 -0.79328,-0.7662 -0.58538,-0.73991 -0.6035,-0.78621 -0.59813,-1.53095 0.009,-0.61808 -0.0386,-0.80665 -0.22176,-0.96597 -0.17483,-0.15227 -0.24065,-0.40413 -0.28505,-1.09251 -0.062,-0.95704 0.0755,-1.49848 0.37922,-1.49848 0.13237,0 0.16468,-0.10423 0.12831,-0.41304 -0.031,-0.26057 0.009,-0.43914 0.0993,-0.48373 0.0814,-0.0388 0.14825,-0.22957 0.14825,-0.42374 0,-0.28475 0.0546,-0.35303 0.28388,-0.35303 0.16745,0 0.31451,-0.10016 0.35832,-0.24404 0.15157,-0.49747 0.3433,-0.5927 1.19391,-0.5927 0.46348,0 0.87385,0.0627 0.91195,0.1394 0.0378,0.0767 0.36621,0.1394 0.72907,0.1394 0.36295,0 0.69096,0.0627 0.72916,0.1394 0.0378,0.0767 0.19431,0.13941 0.34706,0.13941 0.29983,0 0.83064,0.36982 0.83064,0.57879 0,0.0713 -0.0991,0.0624 -0.22328,-0.0202 -0.3019,-0.20085 -0.83834,0.14787 -1.06471,0.69206 -0.25582,0.61506 -0.2153,0.70188 0.32793,0.70188 0.27405,0 0.52939,0.0627 0.56751,0.1394 0.0378,0.0767 0.24297,0.1394 0.45526,0.1394 0.3073,0 0.38602,0.0552 0.38602,0.27071 0,0.14885 0.0504,0.30947 0.11206,0.35688 0.0613,0.0474 0.11225,0.33952 0.11225,0.64913 0,0.7019 -0.31939,1.28675 -0.87514,1.60251 -1.01194,0.5749 -1.11325,1.30457 -0.18129,1.30457 0.32751,0 0.35981,0.21759 0.0478,0.31914 -0.12314,0.0401 -0.25659,0.18855 -0.29673,0.33007 -0.1608,0.56717 -0.50116,0.73905 -1.47045,0.74229 -0.54048,0.003 -0.92542,0.0611 -0.92542,0.14249 0,0.0767 -0.19891,0.13941 -0.44206,0.13941 -0.24309,0 -0.47325,-0.0627 -0.51135,-0.13941 z m -0.30069,-1.9178 c 0.0528,-0.46506 -0.47701,-1.01087 -0.98188,-1.01087 -0.34311,0 -0.32784,0.87591 0.0209,1.18232 0.36772,0.32329 0.91594,0.2255 0.96126,-0.17145 z m 2.85727,-0.90627 c 0.35767,-0.20651 0.4144,-0.73941 0.0923,-0.86654 -0.3245,-0.128 -0.79805,0.19945 -0.79805,0.55191 0,0.52401 0.19364,0.61034 0.7058,0.31463 z m -0.99379,-0.65204 c 0.10744,-0.14771 0.17797,-0.38303 0.15655,-0.52297 -0.0319,-0.20624 -0.16523,-0.26252 -0.70615,-0.29713 -0.95932,-0.0614 -1.1814,0.0345 -1.1814,0.5102 0,0.21588 0.0336,0.43433 0.0748,0.48547 0.0412,0.0511 0.38672,0.093 0.76787,0.093 0.54163,0 0.7357,-0.0586 0.88845,-0.26856 z"
           id="path2768"
           inkscape:connector-curvature="0" />
        <path
           style="opacity:1;fill:#000000;fill-opacity:1;stroke:none;stroke-width:0.36162412;stroke-miterlimit:4;stroke-dasharray:none;stroke-dashoffset:0;stroke-opacity:1"
           d="m -237.77678,203.05041 c 0,-0.0767 -0.0722,-0.1394 -0.1608,-0.1394 -0.23049,0 -0.31686,-0.4658 -0.16394,-0.88348 0.11299,-0.30841 1.19526,-1.3479 1.40332,-1.3479 0.12794,0 0.50574,-0.61191 0.6888,-1.11569 0.1296,-0.35641 0.17797,-0.93959 0.17964,-2.16162 0,-0.92044 0.009,-3.39933 0.009,-5.50867 0.0166,-9.23997 0.009,-9.67906 -0.14954,-10.36109 -0.19433,-0.832 -0.78279,-1.49295 -1.32903,-1.49295 -0.70062,0 -1.59942,-0.90714 -1.59942,-1.61425 0,-0.36852 0.062,-0.47627 0.36452,-0.63505 0.21546,-0.11302 0.59404,-0.16668 0.92542,-0.13126 1.22057,0.13061 3.44606,0.0617 4.99148,-0.15438 1.41333,-0.19762 1.75873,-0.2029 2.63595,-0.0401 2.53553,0.47046 3.75756,0.99643 3.75756,1.61732 0,0.1936 0.75728,1.09703 0.91952,1.09703 0.058,0 0.1656,0.0785 0.2383,0.17435 0.19472,0.2568 0.63691,1.35517 0.63691,1.58209 0,0.1078 0.0504,0.19601 0.11206,0.19601 0.0613,0 0.11225,0.21596 0.11225,0.47989 0,0.2639 0.0504,0.51866 0.11224,0.56606 0.14603,0.11221 0.14603,1.56124 0,1.67351 -0.0613,0.0474 -0.11224,0.30213 -0.11224,0.56606 0,0.26396 -0.0504,0.4799 -0.11225,0.4799 -0.0613,0 -0.11206,0.11579 -0.11206,0.25749 0,0.32504 -0.289,1.05392 -0.50705,1.27896 -0.0912,0.0941 -0.16597,0.25767 -0.16597,0.36331 0,0.1057 -0.0378,0.19263 -0.0842,0.19321 -0.0462,0 -0.14714,0.17 -0.22437,0.37645 -0.16726,0.44798 -0.18988,2.27218 -0.0277,2.27218 0.0613,0 0.11225,0.0949 0.11225,0.21111 0,0.19358 0.20254,0.73801 0.33649,0.90461 0.031,0.0383 0.23092,0.35212 0.44452,0.69727 0.2137,0.34517 0.42816,0.64849 0.47676,0.67405 0.0487,0.0257 0.0882,0.19447 0.0882,0.3753 0,0.18083 0.0504,0.36759 0.11206,0.41498 0.0637,0.0489 0.11207,0.73929 0.11207,1.59422 v 1.508 l -0.42353,0.0842 c -0.23293,0.0462 -0.52125,0.17306 -0.64077,0.28167 -0.19054,0.17322 -0.19759,0.22671 -0.058,0.43623 0.0877,0.13142 0.27504,0.29348 0.4164,0.3603 0.25618,0.121 0.3579,0.40731 0.14474,0.40731 -0.0613,0 -0.11224,0.0933 -0.11224,0.20757 0,0.11416 -0.0882,0.33555 -0.19623,0.49188 -0.108,0.15634 -0.29729,0.50662 -0.42069,0.77834 -0.12332,0.27173 -0.37561,0.59952 -0.56053,0.7284 -0.18491,0.12881 -0.41791,0.34419 -0.51788,0.4784 -0.0999,0.13419 -0.30921,0.24406 -0.46501,0.24406 -0.15582,0 -0.31021,0.0873 -0.34313,0.19386 -0.0655,0.21148 -0.69266,0.64292 -0.93488,0.64292 -0.0831,0 -0.15101,0.0627 -0.15101,0.1394 0,0.0767 -0.14843,0.1394 -0.32985,0.1394 -0.18148,0 -0.36111,0.0627 -0.39922,0.1394 -0.0386,0.0767 -0.24004,0.1394 -0.44871,0.1394 -0.20858,0 -0.41055,0.0627 -0.44865,0.13941 -0.0951,0.19135 -8.13213,0.19135 -8.13213,0 z m 5.44617,-1.96456 c 0.0547,-0.10911 0.10948,-0.10911 0.19726,0 0.15286,0.19013 0.60167,0.19799 0.69397,0.0114 0.0386,-0.0777 0.55987,-0.13941 1.17782,-0.13941 0.61794,0 1.1391,-0.0617 1.17777,-0.1394 0.0378,-0.0767 0.19097,-0.1394 0.3397,-0.1394 0.1488,0 0.45016,-0.12556 0.66982,-0.27892 0.21966,-0.15341 0.47356,-0.27893 0.56422,-0.27893 0.0907,0 0.16486,-0.0627 0.16486,-0.13941 0,-0.0767 0.0705,-0.1394 0.15693,-0.1394 0.21076,0 1.21926,-1.38632 1.45184,-1.9956 0.27295,-0.7153 0.24694,-1.44355 -0.14677,-4.09729 0,-0.0147 -0.20579,-0.31644 -0.45257,-0.6709 -0.24678,-0.35452 -0.44865,-0.7035 -0.44865,-0.77554 0,-0.072 -0.12277,-0.13094 -0.27287,-0.13094 -0.17427,0 -0.29858,-0.10064 -0.34405,-0.27893 -0.0395,-0.15341 -0.14363,-0.2789 -0.23193,-0.2789 -0.0884,0 -0.16062,-0.0627 -0.16062,-0.1394 0,-0.0767 -0.12627,-0.13941 -0.28041,-0.13941 -0.15434,0 -0.28043,-0.0627 -0.28043,-0.1394 0,-0.0767 -0.22782,-0.1394 -0.50631,-0.1394 -0.27842,0 -0.60652,-0.0778 -0.72907,-0.17302 -0.17741,-0.13777 -0.26824,-0.13777 -0.4456,0 -0.26803,0.20805 -0.74661,0.2271 -0.84283,0.0336 -0.0378,-0.0767 -0.26522,-0.1394 -0.50478,-0.1394 -0.23946,0 -0.4666,0.0627 -0.5047,0.1394 -0.0378,0.0767 -0.31579,0.1394 -0.61695,0.1394 -0.30116,0 -0.57881,0.0627 -0.61691,0.13941 -0.0378,0.0767 -0.21405,0.1394 -0.39096,0.1394 -0.24881,0 -0.36169,0.0997 -0.49819,0.43983 -0.0969,0.24187 -0.17649,0.58334 -0.17649,0.75878 0,0.17544 -0.0504,0.35778 -0.11207,0.40518 -0.062,0.0474 -0.11224,0.32981 -0.11224,0.62759 0,0.29773 -0.0504,0.58015 -0.11206,0.62755 -0.1464,0.11253 -0.1464,1.46433 0,1.46433 0.063,0 0.11206,0.39239 0.11206,0.89826 0,0.49402 -0.0504,0.93703 -0.11206,0.98444 -0.062,0.0474 -0.11225,0.61594 -0.11225,1.26338 0,0.69181 0.0462,1.1772 0.11225,1.1772 0.0613,0 0.11372,0.10976 0.11557,0.24402 0.009,0.39348 0.27925,0.73217 0.59106,0.73217 0.15933,0 0.32074,0.0627 0.35884,0.1394 0.0936,0.18832 1.03307,0.17821 1.12775,-0.0114 z m 3.41503,-13.01793 c 0.49322,-0.12328 0.95788,-0.35759 1.566,-0.78954 0.41625,-0.29568 0.5168,-0.4372 0.78958,-1.11136 0.13773,-0.34033 0.3251,-0.72455 0.41642,-0.85384 0.25045,-0.35455 0.062,-2.33644 -0.30234,-3.17886 -0.15988,-0.36972 -0.39467,-0.70017 -0.49741,-0.70017 -0.0563,0 -0.31451,-0.24283 -0.6668,-0.62757 -0.42738,-0.46679 -1.14009,-0.76701 -1.82081,-0.76701 -0.40423,0 -0.71851,-0.0611 -0.71851,-0.1394 0,-0.18182 -0.75087,-0.18182 -0.84118,0 -0.0378,0.0767 -0.31879,0.1394 -0.62356,0.1394 -0.30487,0 -0.55423,0.0627 -0.55423,0.13941 0,0.0767 -0.25241,0.1394 -0.56087,0.1394 -0.30847,0 -0.56086,0.0627 -0.56086,0.1394 0,0.0767 -0.0788,0.1394 -0.17612,0.1394 -0.0969,0 -0.23578,0.0809 -0.30848,0.17971 -0.3542,0.48146 -0.41262,0.84107 -0.41262,2.53786 0,1.07046 -0.0436,1.74515 -0.11206,1.74515 -0.062,0 -0.11224,0.34516 -0.11224,0.76702 0,0.42187 -0.0504,0.76702 -0.11207,0.76702 -0.062,0 -0.11224,0.15683 -0.11224,0.34865 0,0.19176 -0.0504,0.34865 -0.11206,0.34865 -0.24008,0 -0.0936,0.23829 0.28419,0.46228 0.21809,0.1293 0.61887,0.23503 0.89076,0.23503 0.27186,0 0.52695,0.0656 0.5668,0.14575 0.0798,0.15976 3.40177,0.10569 4.09095,-0.0666 z"
           id="path2770"
           inkscape:connector-curvature="0" />
        <path
           style="opacity:1;fill:#000000;fill-opacity:1;stroke:none;stroke-width:0.36162412;stroke-miterlimit:4;stroke-dasharray:none;stroke-dashoffset:0;stroke-opacity:1"
           d="m -231.92861,257.13818 c -0.0378,-0.0767 -0.16726,-0.1394 -0.28706,-0.1394 -0.11963,0 -0.21773,-0.0627 -0.21773,-0.13941 0,-0.0767 -0.0714,-0.1394 -0.15767,-0.1394 -0.0868,0 -0.33902,-0.31378 -0.56069,-0.69729 -0.26493,-0.45857 -0.48397,-0.6973 -0.63977,-0.6973 -0.26758,0 -1.8402,-1.88618 -2.18022,-2.61488 -0.11631,-0.24928 -0.25106,-0.45324 -0.29951,-0.45324 -0.0487,0 -0.0881,-0.21966 -0.0881,-0.4881 0,-0.26847 -0.0504,-0.48812 -0.11206,-0.48812 -0.0613,0 -0.11225,-0.0967 -0.11225,-0.215 0,-0.28291 -0.32852,-0.70211 -0.64497,-0.82306 -0.23544,-0.0899 -0.2523,-0.17473 -0.2523,-1.2642 0,-0.64227 -0.0504,-1.20658 -0.11224,-1.25398 -0.062,-0.0474 -0.11206,-0.42391 -0.11206,-0.83674 0,-0.41282 -0.0504,-0.78935 -0.11225,-0.83677 -0.1464,-0.11237 -0.1464,-1.32486 0,-1.32486 0.0639,0 0.11225,-0.41837 0.11225,-0.97621 0,-0.55784 0.0478,-0.97624 0.11206,-0.97624 0.0679,0 0.11224,-0.62483 0.11224,-1.59554 0,-0.91328 0.0478,-1.63242 0.11207,-1.68176 0.0613,-0.0474 0.11206,-0.45987 0.11206,-0.91661 0,-0.83384 0.0286,-0.96155 0.38258,-1.73313 0.1056,-0.23011 0.22008,-0.52821 0.25432,-0.66242 0.0343,-0.13419 0.1069,-0.24405 0.16136,-0.24405 0.0546,0 0.099,-0.12556 0.099,-0.27895 0,-0.15341 0.0412,-0.27889 0.0914,-0.27889 0.1152,0 0.58167,-1.07454 0.58167,-1.33994 0,-0.47688 0.53987,-1.27235 1.06556,-1.57015 0.18508,-0.10487 0.41692,-0.24038 0.51521,-0.30126 0.46627,-0.28882 2.61804,-0.83299 3.29396,-0.83299 0.67728,0 1.87431,0.3685 2.69663,0.83021 0.37604,0.21112 1.01948,0.29792 1.50009,0.20236 0.35943,-0.0715 0.48634,-0.17528 0.59823,-0.48967 0.18726,-0.52587 0.34287,-0.58166 0.87879,-0.31507 0.59059,0.29379 0.84231,0.76712 1.07004,2.01189 0.15655,0.85638 0.16707,1.17545 0.0613,1.88696 -0.0696,0.47097 -0.13089,1.79041 -0.13606,2.93212 -0.009,1.1417 -0.0679,2.35823 -0.14013,2.70338 -0.11132,0.53233 -0.17797,0.63426 -0.43964,0.6717 -0.24844,0.0355 -0.30848,-0.0114 -0.30848,-0.24406 0,-0.20526 -0.0729,-0.28878 -0.25238,-0.29031 -0.20901,-0.003 -0.22345,-0.0277 -0.0842,-0.15015 0.12665,-0.11139 0.13348,-0.16544 0.0277,-0.21864 -0.0772,-0.0389 -0.14012,-0.15439 -0.14012,-0.25669 0,-0.10227 -0.0379,-0.20686 -0.0842,-0.23243 -0.10523,-0.0583 -0.46955,-0.80104 -0.55274,-1.1273 -0.0343,-0.13419 -0.10689,-0.24405 -0.16135,-0.24405 -0.0547,0 -0.099,-0.0889 -0.099,-0.19757 0,-0.10863 -0.0395,-0.21849 -0.0882,-0.24406 -0.15859,-0.0835 -0.58479,-0.92096 -0.58479,-1.14884 0,-0.12247 -0.0504,-0.22252 -0.11206,-0.22252 -0.0613,0 -0.11225,-0.12556 -0.11225,-0.27894 0,-0.15341 -0.0504,-0.2789 -0.11206,-0.2789 -0.062,0 -0.11206,-0.092 -0.11206,-0.2043 0,-0.11237 -0.0971,-0.26882 -0.21565,-0.34771 -0.11853,-0.079 -0.28261,-0.22233 -0.36453,-0.31869 -0.23643,-0.27818 -1.56203,-1.08175 -1.78457,-1.08175 -0.11095,0 -0.23317,-0.0627 -0.27127,-0.1394 -0.0379,-0.0767 -0.4671,-0.1394 -0.95343,-0.1394 -0.48624,0 -0.91524,0.0627 -0.95334,0.1394 -0.0386,0.0767 -0.168,0.1394 -0.28857,0.1394 -0.12056,0 -0.31956,0.0627 -0.4421,0.1394 -1.75805,1.10035 -1.88093,1.2358 -2.00464,2.20899 -0.0511,0.40074 -0.1934,0.86778 -0.31645,1.03793 -0.12314,0.17012 -0.26531,0.43482 -0.3161,0.58824 -0.12203,0.36908 -0.27674,3.04381 -0.35075,6.06649 -0.0797,3.26417 0.12056,4.85863 0.8244,6.55461 0.0798,0.19178 0.14493,0.42959 0.1453,0.52853 0,0.31837 0.41917,1.20166 0.78925,1.66795 l 0.35968,0.45326 h 1.74276 c 1.72891,0 1.74595,-0.003 2.14491,-0.38351 0.57639,-0.54977 0.88988,-0.73218 1.25828,-0.73218 0.17797,0 0.32365,-0.0627 0.32365,-0.13941 0,-0.0767 0.0798,-0.1394 0.17631,-0.1394 0.2199,0 0.3965,-0.22809 0.594,-0.76702 0.0844,-0.23011 0.19786,-0.52737 0.25234,-0.66055 0.0546,-0.13321 0.0991,-0.36854 0.0991,-0.52297 0,-0.15455 0.0504,-0.28081 0.11225,-0.28081 0.062,0 0.11206,-0.11578 0.11206,-0.25732 0,-0.14152 0.10099,-0.3709 0.22437,-0.50973 0.12332,-0.13891 0.22436,-0.39586 0.22436,-0.57121 0,-0.17536 0.0504,-0.35759 0.11206,-0.405 0.0637,-0.0489 0.11225,-0.73463 0.11225,-1.58021 v -1.49401 l 0.70246,0.01 c 0.38644,0.005 0.76189,0.0549 0.83441,0.11057 0.0722,0.0557 0.29286,0.45112 0.4896,0.87868 0.31643,0.68771 0.34994,0.86037 0.29042,1.49626 -0.0951,1.01444 -0.43905,2.32004 -0.61172,2.32144 -0.0798,0 -0.26934,0.16725 -0.42061,0.37021 -0.20321,0.27262 -0.27504,0.52548 -0.27504,0.96798 0,0.32946 -0.0504,0.63779 -0.11225,0.68516 -0.0613,0.0474 -0.11502,0.28648 -0.11852,0.53123 -0.009,0.36393 -0.10505,0.53834 -0.54759,0.95715 -0.29764,0.2817 -0.6082,0.70035 -0.69004,0.93033 -0.13939,0.39121 -0.51613,0.66916 -1.72841,1.27499 -0.12333,0.0617 -0.54416,0.30698 -0.93505,0.54516 -0.3909,0.23818 -0.78212,0.43307 -0.86933,0.43307 -0.0871,0 -0.15859,0.0627 -0.15859,0.1394 0,0.0796 -0.33432,0.13941 -0.77858,0.13941 -0.42818,0 -0.80974,-0.0627 -0.84785,-0.13941 z"
           id="path2772"
           inkscape:connector-curvature="0" />
        <path
           style="opacity:1;fill:#000000;fill-opacity:1;stroke:none;stroke-width:0.36162412;stroke-miterlimit:4;stroke-dasharray:none;stroke-dashoffset:0;stroke-opacity:1"
           d="m -230.28019,323.00754 c -0.0412,-0.0832 -0.76887,-0.1394 -1.80488,-0.1394 -1.55415,0 -1.74202,-0.0254 -1.79825,-0.24407 -0.0823,-0.31952 -0.26758,-0.87957 -0.3919,-1.1835 -0.30628,-0.74851 0.099,-1.36165 0.89979,-1.36165 0.24534,0 0.47718,-0.0627 0.51536,-0.1394 0.0379,-0.0767 0.14419,-0.1394 0.23579,-0.1394 0.23812,0 0.65814,-0.55048 0.8266,-1.08312 0.14456,-0.45731 0.12406,-0.87143 -0.12628,-2.54284 -0.11261,-0.75194 -0.1379,-1.39445 -0.1043,-2.64973 0.0521,-1.93841 -0.1152,-9.80936 -0.2132,-10.03721 -0.063,-0.14543 -0.11465,-0.50395 -0.11557,-0.79663 0,-0.94302 -0.46913,-2.13592 -0.83457,-2.13592 -0.19274,0 -0.73219,-0.3335 -0.73319,-0.45325 0,-0.0575 -0.0892,-0.10911 -0.19715,-0.11481 -0.108,-0.005 -0.34776,-0.12002 -0.53286,-0.25443 -0.26169,-0.1899 -0.34421,-0.35814 -0.37131,-0.75682 -0.0203,-0.29542 0.0148,-0.51262 0.0842,-0.51262 0.0655,0 0.11908,-0.0931 0.11908,-0.20715 0,-0.29165 1.21069,-1.44455 1.6825,-1.60213 0.87646,-0.29274 5.44089,-0.14396 6.08056,0.19816 0.10542,0.0565 0.44605,0.0347 0.75685,-0.048 0.78246,-0.20863 1.4113,0.0803 2.43197,1.1172 0.44444,0.45155 0.88771,0.82095 0.98515,0.82095 0.0975,0 0.17704,0.0627 0.17704,0.1394 0,0.0767 0.0672,0.1394 0.1488,0.1394 0.19187,0 0.53441,0.48812 0.80879,1.15238 0.11926,0.28861 0.31846,0.66825 0.44285,0.84363 0.38772,0.54686 0.95511,1.87903 0.95511,2.24254 0,0.11432 0.0504,0.24649 0.11225,0.2939 0.0622,0.0474 0.11206,0.2896 0.11206,0.53818 0,0.24859 0.0462,0.51162 0.10173,0.58448 0.0563,0.0728 0.13033,0.44626 0.16523,0.82978 0.15415,1.69594 0.20957,2.10003 0.30458,2.22437 0.14806,0.19353 0.12387,1.52689 -0.031,1.71951 -0.13108,0.16308 -0.10006,0.30506 0.2576,1.17939 0.1344,0.32824 0.12572,1.18531 -0.0129,1.29188 -0.062,0.0474 -0.11224,0.3612 -0.11224,0.6973 0,0.3361 -0.0504,0.6499 -0.11207,0.69729 -0.062,0.0474 -0.11224,0.29844 -0.11224,0.55784 0,0.2594 -0.0504,0.51046 -0.11225,0.55787 -0.062,0.0474 -0.11225,0.29842 -0.11225,0.55783 0,0.25938 -0.0504,0.51042 -0.11206,0.55784 -0.0613,0.0474 -0.11206,0.23566 -0.11206,0.41837 0,0.1827 -0.0504,0.37096 -0.11225,0.41837 -0.0613,0.0474 -0.11206,0.20886 -0.11206,0.3588 0,0.14998 -0.0445,0.38153 -0.0991,0.51473 -0.0546,0.13321 -0.14898,0.39904 -0.21018,0.5908 -0.33759,1.06012 -0.6703,1.71214 -1.20043,2.35273 -0.32561,0.39346 -0.67134,0.71539 -0.76835,0.71539 -0.0971,0 -0.20758,0.0627 -0.24578,0.1394 -0.0378,0.0767 -0.21774,0.1394 -0.3992,0.1394 -0.18147,0 -0.32987,0.0627 -0.32987,0.1394 0,0.0767 -0.0748,0.1394 -0.16541,0.1394 -0.091,0 -0.24368,0.1883 -0.33937,0.41837 -0.14178,0.34099 -0.24494,0.41841 -0.55715,0.41841 -0.21068,0 -0.41422,0.0627 -0.45242,0.1394 -0.0378,0.0767 -0.19314,0.1394 -0.34466,0.1394 -0.15138,0 -0.37551,0.0778 -0.49805,0.173 -0.17742,0.13777 -0.26836,0.13777 -0.44563,0 -0.26574,-0.20629 -1.64111,-0.2328 -1.74017,-0.0335 -0.0377,0.0767 -0.26522,0.1394 -0.50478,0.1394 -0.23948,0 -0.46662,0.0627 -0.50472,0.13941 -0.0378,0.0767 -0.29049,0.1394 -0.56084,0.1394 -0.27037,0 -0.52267,-0.0627 -0.56087,-0.1394 z m 3.67496,-3.08988 c 0.55422,-0.35622 0.65319,-0.39661 0.9718,-0.39661 0.18222,0 0.36263,-0.0627 0.40073,-0.1394 0.0378,-0.0767 0.16523,-0.1394 0.28252,-0.1394 0.11723,0 0.40996,-0.23534 0.65042,-0.52301 0.47313,-0.56578 0.83945,-0.8716 1.04415,-0.8716 0.16985,0 0.4265,-0.42708 0.43095,-0.71742 0,-0.12605 0.14917,-0.42303 0.32708,-0.65983 0.31527,-0.41966 0.41004,-0.7557 0.53561,-1.90007 0.0336,-0.30679 0.10652,-0.61744 0.16191,-0.69031 0.0554,-0.0728 0.10061,-0.27313 0.10061,-0.44502 0,-0.17188 0.0504,-0.35131 0.11225,-0.39872 0.0613,-0.0474 0.11206,-0.29843 0.11206,-0.55783 0,-0.25941 0.0504,-0.51043 0.11207,-0.55784 0.15692,-0.12068 0.13993,-0.85176 -0.0277,-1.20552 -0.11224,-0.23619 -0.11224,-0.30788 0,-0.35838 0.17151,-0.0772 0.19272,-1.58763 0.0277,-1.99421 l -0.22428,-0.55406 c -0.0613,-0.15243 -0.11224,-0.89371 -0.11224,-1.64742 0,-1.34063 -0.009,-1.37911 -0.33648,-1.77124 -0.1851,-0.22047 -0.3365,-0.54447 -0.3365,-0.72003 0,-0.17554 -0.1008,-0.52466 -0.22394,-0.7758 -0.12314,-0.25113 -0.22405,-0.62151 -0.22429,-0.82304 0,-0.4569 -0.16413,-0.62985 -0.75098,-0.79379 -0.25365,-0.0709 -0.75283,-0.32517 -1.10912,-0.56512 -0.59395,-0.39992 -0.73496,-0.4363 -1.6935,-0.4363 -0.6224,0 -1.04576,0.0565 -1.04576,0.1394 0,0.0809 -0.3648,0.13973 -0.86924,0.14006 -1.08756,0 -1.48273,0.25673 -1.70853,1.10736 -0.1224,0.46122 -0.12739,0.64673 -0.0234,0.85441 0.16856,0.33576 0.18785,5.09174 0.0209,5.21988 -0.14972,0.11514 -0.14972,4.06871 0,4.18378 0.0613,0.0474 0.11225,0.54945 0.11225,1.11569 0,0.56619 -0.0504,1.06827 -0.11225,1.11568 -0.0663,0.0511 -0.11206,0.92404 -0.11206,2.14842 0,2.28139 0.0995,2.75657 0.64328,3.07291 0.17058,0.0992 0.39779,0.23586 0.50489,0.30359 0.10707,0.0677 0.29342,0.12312 0.41405,0.12312 0.12056,0 0.25038,0.0627 0.28858,0.1394 0.0956,0.19234 1.34843,0.17585 1.65596,-0.0218 z"
           id="path2774"
           inkscape:connector-curvature="0" />
        <path
           style="opacity:1;fill:#000000;fill-opacity:1;stroke:none;stroke-width:0.36162412;stroke-miterlimit:4;stroke-dasharray:none;stroke-dashoffset:0;stroke-opacity:1"
           d="m -216.88361,205.24147 c -0.0378,-0.0767 -0.15471,-0.14087 -0.259,-0.14266 -0.1043,-0.003 -0.46133,-0.34655 -0.79329,-0.76621 -0.58536,-0.73991 -0.60349,-0.78621 -0.59814,-1.53095 0.009,-0.61808 -0.0386,-0.80664 -0.22174,-0.96596 -0.17502,-0.15227 -0.24065,-0.40412 -0.28505,-1.09252 -0.062,-0.95704 0.0755,-1.49847 0.37922,-1.49847 0.13237,0 0.16468,-0.10423 0.12831,-0.41305 -0.031,-0.26056 0.009,-0.43913 0.0993,-0.48372 0.0814,-0.0388 0.14825,-0.22956 0.14825,-0.42373 0,-0.28476 0.0547,-0.35305 0.28387,-0.35305 0.16744,0 0.31449,-0.10015 0.35832,-0.24402 0.15157,-0.49748 0.34329,-0.59272 1.19391,-0.59272 0.46349,0 0.87386,0.0627 0.91196,0.1394 0.0378,0.0767 0.36623,0.13941 0.72907,0.13941 0.36294,0 0.69096,0.0627 0.72916,0.1394 0.0378,0.0767 0.19431,0.1394 0.34708,0.1394 0.2998,0 0.83062,0.36982 0.83062,0.5788 0,0.0713 -0.0991,0.0624 -0.22327,-0.0202 -0.30191,-0.20084 -0.83834,0.14787 -1.06474,0.69205 -0.25582,0.61508 -0.21528,0.70189 0.32795,0.70189 0.27405,0 0.52937,0.0627 0.56749,0.13941 0.0378,0.0767 0.243,0.1394 0.45527,0.1394 0.30729,0 0.38601,0.0552 0.38601,0.27071 0,0.14885 0.0504,0.30947 0.11206,0.35688 0.0613,0.0474 0.11206,0.33951 0.11206,0.64913 0,0.7019 -0.31936,1.28675 -0.87509,1.60251 -1.01194,0.5749 -1.11326,1.30456 -0.1813,1.30456 0.32753,0 0.35984,0.21759 0.0478,0.31915 -0.12296,0.0401 -0.25662,0.18855 -0.29673,0.33007 -0.1608,0.56717 -0.50118,0.73904 -1.47049,0.74228 -0.54044,0.003 -0.92539,0.0611 -0.92539,0.1425 0,0.0767 -0.1989,0.1394 -0.4421,0.1394 -0.24304,0 -0.47322,-0.0627 -0.51133,-0.1394 z m -0.30065,-1.91779 c 0.0528,-0.46508 -0.47701,-1.01086 -0.98188,-1.01086 -0.34314,0 -0.32786,0.87588 0.0209,1.18229 0.36771,0.32331 0.91589,0.22551 0.96124,-0.17143 z m 2.85727,-0.90626 c 0.35765,-0.20653 0.41439,-0.73942 0.0923,-0.86656 -0.3245,-0.128 -0.79806,0.19944 -0.79806,0.55191 0,0.52401 0.19362,0.61035 0.7058,0.31465 z m -0.99381,-0.65207 c 0.10763,-0.14771 0.17797,-0.38303 0.15656,-0.52295 -0.0319,-0.20624 -0.16524,-0.26254 -0.70616,-0.29714 -0.9593,-0.0614 -1.18139,0.0345 -1.18139,0.51021 0,0.21587 0.0336,0.43433 0.0748,0.48547 0.0412,0.0511 0.38667,0.093 0.76785,0.093 0.54163,0 0.73569,-0.0586 0.88846,-0.26856 z"
           id="path2768-6"
           inkscape:connector-curvature="0" />
        <path
           style="opacity:1;fill:#000000;fill-opacity:1;stroke:none;stroke-width:0.36162412;stroke-miterlimit:4;stroke-dasharray:none;stroke-dashoffset:0;stroke-opacity:1"
           d="m -215.29737,256.91466 c -0.0378,-0.0767 -0.15471,-0.14086 -0.25903,-0.14266 -0.10431,-0.003 -0.4613,-0.34655 -0.79326,-0.76619 -0.5854,-0.7399 -0.60351,-0.78622 -0.59814,-1.53095 0.009,-0.61809 -0.0386,-0.80666 -0.22178,-0.96596 -0.17483,-0.15227 -0.24063,-0.40414 -0.28503,-1.09252 -0.062,-0.95705 0.0755,-1.49847 0.37922,-1.49847 0.13237,0 0.16468,-0.10423 0.12831,-0.41305 -0.031,-0.26058 0.009,-0.43915 0.0993,-0.48374 0.0814,-0.0388 0.14825,-0.22955 0.14825,-0.42372 0,-0.28475 0.0547,-0.35304 0.28387,-0.35304 0.16744,0 0.31451,-0.10015 0.35834,-0.24403 0.15156,-0.49749 0.34329,-0.59272 1.19389,-0.59272 0.46348,0 0.87384,0.0627 0.91196,0.1394 0.0378,0.0767 0.36621,0.1394 0.72907,0.1394 0.36294,0 0.69096,0.0627 0.72916,0.1394 0.0379,0.0767 0.19431,0.13941 0.34706,0.13941 0.29983,0 0.83064,0.36982 0.83064,0.57879 0,0.0713 -0.0991,0.0624 -0.22327,-0.0202 -0.30192,-0.20085 -0.83834,0.14787 -1.06472,0.69206 -0.25584,0.61506 -0.2153,0.70188 0.32791,0.70188 0.27407,0 0.52941,0.0627 0.56751,0.1394 0.0378,0.0767 0.243,0.1394 0.45527,0.1394 0.30729,0 0.38603,0.0552 0.38603,0.27072 0,0.14884 0.0504,0.30947 0.11206,0.35689 0.0613,0.0474 0.11206,0.3395 0.11206,0.64911 0,0.70192 -0.31936,1.28676 -0.87513,1.60253 -1.01192,0.57489 -1.11322,1.30457 -0.18129,1.30457 0.32749,0 0.35983,0.21757 0.0478,0.31912 -0.12314,0.0401 -0.25658,0.18857 -0.29671,0.33007 -0.1608,0.56717 -0.50116,0.73906 -1.47047,0.74229 -0.54048,0.003 -0.92539,0.0611 -0.92539,0.14249 0,0.0767 -0.19894,0.13941 -0.4421,0.13941 -0.24308,0 -0.47322,-0.0627 -0.51133,-0.13941 z m -0.30065,-1.91779 c 0.0528,-0.46506 -0.47703,-1.01086 -0.98188,-1.01086 -0.34314,0 -0.32786,0.87591 0.0209,1.18231 0.36774,0.3233 0.91592,0.22551 0.96126,-0.17145 z m 2.85725,-0.90626 c 0.35765,-0.20651 0.41441,-0.73942 0.0923,-0.86654 -0.3245,-0.128 -0.79808,0.19945 -0.79808,0.55189 0,0.52403 0.19366,0.61036 0.70582,0.31465 z m -0.99379,-0.65205 c 0.10745,-0.1477 0.17797,-0.38303 0.15637,-0.52297 -0.0319,-0.20623 -0.16523,-0.26252 -0.70616,-0.29712 -0.95932,-0.0614 -1.18139,0.0345 -1.18139,0.5102 0,0.21586 0.0336,0.43433 0.0748,0.48547 0.0412,0.0511 0.38668,0.093 0.76785,0.093 0.54163,0 0.73568,-0.0586 0.88845,-0.26854 z"
           id="path2768-7"
           inkscape:connector-curvature="0" />
        <path
           style="opacity:1;fill:#000000;fill-opacity:1;stroke:none;stroke-width:0.36162412;stroke-miterlimit:4;stroke-dasharray:none;stroke-dashoffset:0;stroke-opacity:1"
           d="m -213.39378,321.99925 c -0.0378,-0.0767 -0.15471,-0.14087 -0.25903,-0.14266 -0.10431,-0.003 -0.4613,-0.34655 -0.79328,-0.76622 -0.58538,-0.73989 -0.60351,-0.78619 -0.59812,-1.53093 0.009,-0.61808 -0.0386,-0.80668 -0.22178,-0.96597 -0.17483,-0.15227 -0.24064,-0.40415 -0.28504,-1.09251 -0.062,-0.95704 0.0755,-1.49848 0.37924,-1.49848 0.13237,0 0.16467,-0.10423 0.1283,-0.41304 -0.031,-0.26057 0.009,-0.43917 0.0993,-0.48376 0.0814,-0.0388 0.14824,-0.22954 0.14824,-0.42373 0,-0.28473 0.0547,-0.35301 0.28389,-0.35301 0.16744,0 0.31451,-0.10016 0.35832,-0.24404 0.15157,-0.49747 0.34329,-0.59274 1.19391,-0.59274 0.46348,0 0.87384,0.0627 0.91197,0.13957 0.0377,0.0767 0.3662,0.1394 0.72906,0.1394 0.36294,0 0.69096,0.0627 0.72914,0.1394 0.0378,0.0767 0.19433,0.13941 0.34708,0.13941 0.29984,0 0.83063,0.36984 0.83063,0.57879 0,0.0713 -0.0991,0.0624 -0.22326,-0.0202 -0.30192,-0.20085 -0.83836,0.14787 -1.06472,0.69206 -0.25584,0.61508 -0.21532,0.70188 0.32792,0.70188 0.27404,0 0.5294,0.0627 0.56751,0.1394 0.0378,0.0767 0.24297,0.1394 0.45526,0.1394 0.30729,0 0.38603,0.0552 0.38603,0.27071 0,0.14885 0.0504,0.30947 0.11206,0.35688 0.0613,0.0474 0.11225,0.33952 0.11225,0.64913 0,0.70192 -0.31939,1.28675 -0.87514,1.60253 -1.01193,0.5749 -1.11325,1.30456 -0.18129,1.30456 0.32751,0 0.35982,0.21758 0.0478,0.31913 -0.12296,0.0401 -0.2566,0.18857 -0.29672,0.33007 -0.1608,0.56717 -0.50117,0.73906 -1.47046,0.74229 -0.54049,0.003 -0.92541,0.0611 -0.92541,0.14249 0,0.0767 -0.19892,0.13941 -0.44208,0.13941 -0.24308,0 -0.47323,-0.0627 -0.51133,-0.13941 z m -0.30068,-1.91779 c 0.0528,-0.46509 -0.47699,-1.01089 -0.98188,-1.01089 -0.34311,0 -0.32784,0.8759 0.0211,1.18233 0.36773,0.32328 0.91593,0.2255 0.96127,-0.17144 z m 2.85728,-0.90628 c 0.35766,-0.20653 0.41441,-0.7394 0.0923,-0.86655 -0.32452,-0.12801 -0.79808,0.19944 -0.79808,0.55191 0,0.52402 0.19367,0.61034 0.70583,0.31464 z m -0.99379,-0.65206 c 0.10745,-0.14771 0.17797,-0.38303 0.15637,-0.52295 -0.0319,-0.20626 -0.16523,-0.26252 -0.70615,-0.29715 -0.95932,-0.0614 -1.1814,0.0345 -1.1814,0.51024 0,0.21584 0.0336,0.43433 0.0748,0.48546 0.0412,0.0511 0.38668,0.093 0.76784,0.093 0.54163,0 0.73569,-0.0586 0.88846,-0.26856 z"
           id="path2768-3"
           inkscape:connector-curvature="0" />
      </g>
    </g>
  </g>
</svg>
