<?xml version="1.0" encoding="UTF-8" standalone="no"?>
<!-- Created with Inkscape (http://www.inkscape.org/) -->

<svg
   xmlns:dc="http://purl.org/dc/elements/1.1/"
   xmlns:cc="http://creativecommons.org/ns#"
   xmlns:rdf="http://www.w3.org/1999/02/22-rdf-syntax-ns#"
   xmlns:svg="http://www.w3.org/2000/svg"
   xmlns="http://www.w3.org/2000/svg"
   xmlns:sodipodi="http://sodipodi.sourceforge.net/DTD/sodipodi-0.dtd"
   xmlns:inkscape="http://www.inkscape.org/namespaces/inkscape"
   version="1.1"
   id="svg2"
   width="165"
   height="164"
   viewBox="0 0 165 164"
   sodipodi:docname="7.svg"
   inkscape:export-filename="C:\Users\danie\OneDrive\Ãrea de Trabalho\playground\img\5..png"
   inkscape:export-xdpi="76"
   inkscape:export-ydpi="76"
   inkscape:version="0.92.3 (2405546, 2018-03-11)">
  <metadata
     id="metadata8">
    <rdf:RDF>
      <cc:Work
         rdf:about="">
        <dc:format>image/svg+xml</dc:format>
        <dc:type
           rdf:resource="http://purl.org/dc/dcmitype/StillImage" />
        <dc:title></dc:title>
      </cc:Work>
    </rdf:RDF>
  </metadata>
  <defs
     id="defs6" />
  <sodipodi:namedview
     pagecolor="#ffffff"
     bordercolor="#666666"
     borderopacity="1"
     objecttolerance="10"
     gridtolerance="10"
     guidetolerance="10"
     inkscape:pageopacity="0"
     inkscape:pageshadow="2"
     inkscape:window-width="2160"
     inkscape:window-height="1346"
     id="namedview4"
     showgrid="false"
     inkscape:zoom="2.8780488"
     inkscape:cx="26.052615"
     inkscape:cy="40.064539"
     inkscape:window-x="-11"
     inkscape:window-y="-11"
     inkscape:window-maximized="1"
     inkscape:current-layer="g2897"
     inkscape:measure-start="0,0"
     inkscape:measure-end="0,0" />
  <g
     transform="matrix(0.71179433,0,0,0.69625395,639.26407,-486.04301)"
     id="g6686">
    <g
       transform="matrix(0.59952764,0,0,0.63076216,-592.74395,675.25179)"
       id="g6958">
      <g
         transform="matrix(1.023855,0,0,1.0540903,7.5762521,-15.486858)"
         id="g1953">
        <g
           id="g2692"
           transform="matrix(8.6173036,0,0,8.0906319,9958.4925,-15669.511)">
          <g
             id="g2897"
             transform="matrix(0.15601742,0,0,0.16824672,-1012.3688,1610.5685)">
            <g
               id="g2934"
               transform="matrix(0.52994902,0,0,0.47538068,-589.89492,1185.568)">
              <g
                 transform="matrix(2.1876859,0,0,1.731255,-3545.4774,-3493.885)"
                 id="g3415">
                <rect
                   y="3002.7432"
                   x="1030.5494"
                   height="140.82153"
                   width="103.79922"
                   id="rect3336"
                   style="opacity:0.98999999;fill:#008080;fill-opacity:0.99215686;stroke:none;stroke-width:3.89067745;stroke-miterlimit:4;stroke-dasharray:none;stroke-dashoffset:0;stroke-opacity:1" />
                <path
                   inkscape:connector-curvature="0"
                   id="path3338"
                   d="m 1043.5724,3141.5836 -4.6348,-0.2121 0.1862,-10.7248 c 0.1859,-10.7023 0.1898,-10.7298 1.8751,-13.0386 2.1674,-2.9691 6.1258,-5.9886 11.3602,-8.6656 4.0187,-2.0552 13.1529,-5.3593 14.816,-5.3593 0.4488,0 1.3693,-0.7355 2.0454,-1.6345 1.983,-2.6366 1.7351,-8.9555 -0.5224,-13.3147 -1.0555,-2.038 -2.033,-5.226 -2.4591,-8.0197 -0.389,-2.5503 -1.0584,-5.0659 -1.4879,-5.5903 -2.5291,-3.0883 -3.0032,-8.0296 -0.9356,-9.7498 0.7471,-0.6214 0.9099,-1.9272 0.8122,-6.5137 -0.088,-4.1616 0.1704,-6.6377 0.9427,-9.0191 1.4299,-4.4089 5.2583,-8.9303 9.322,-11.0098 2.9952,-1.5326 3.7377,-1.6533 8.7618,-1.4235 5.0087,0.2291 5.7308,0.425 8.2487,2.2368 6.6257,4.7678 9.2418,10.7379 8.5902,19.6032 -0.3391,4.6144 -0.2675,5.1318 0.8071,5.8336 1.8828,1.2298 1.6665,6.8825 -0.3598,9.4011 -1.1479,1.4268 -1.6701,3.0052 -2.0549,6.2111 -0.4829,4.0223 -2.4083,9.5509 -3.5927,10.3165 -0.2884,0.1864 -0.5243,2.3785 -0.5243,4.8714 0,3.6459 0.2404,4.852 1.2293,6.1669 0.6762,0.899 1.6063,1.6345 2.0671,1.6345 1.5209,0 12.9585,4.2366 15.9805,5.9194 4.5312,2.523 8.5586,5.8177 10.4501,8.5487 l 1.7094,2.4678 v 10.3525 10.3523 l -21.45,0.4108 c -20.9187,0.4006 -51.8798,0.3748 -61.1825,-0.051 z"
                   style="opacity:0.98999999;fill:#333333;fill-opacity:0.99215686;stroke:none;stroke-width:23.5798645;stroke-miterlimit:4;stroke-dasharray:none;stroke-dashoffset:0;stroke-opacity:1" />
                <rect
                   style="opacity:0.98999999;fill:#f7ca61;fill-opacity:1;stroke:none;stroke-width:3.89067745;stroke-miterlimit:4;stroke-dasharray:none;stroke-dashoffset:0;stroke-opacity:1"
                   id="rect3340"
                   width="103.79922"
                   height="140.82153"
                   x="1134.3485"
                   y="3002.7432" />
                <path
                   style="opacity:0.98999999;fill:#333333;fill-opacity:0.99215686;stroke:none;stroke-width:23.5798645;stroke-miterlimit:4;stroke-dasharray:none;stroke-dashoffset:0;stroke-opacity:1"
                   d="m 1147.3715,3141.5838 -4.6347,-0.2122 0.1861,-10.7249 c 0.1859,-10.7023 0.1898,-10.7297 1.8752,-13.0386 2.1673,-2.9691 6.1257,-5.9886 11.3601,-8.6656 4.0188,-2.0552 13.1529,-5.3592 14.8161,-5.3592 0.4489,0 1.3692,-0.7355 2.0453,-1.6346 1.983,-2.6366 1.7351,-8.9554 -0.5224,-13.3147 -1.0554,-2.038 -2.033,-5.226 -2.4591,-8.0197 -0.3889,-2.5503 -1.0584,-5.0659 -1.4878,-5.5902 -2.529,-3.0884 -3.0033,-8.0297 -0.9355,-9.7498 0.7469,-0.6214 0.9098,-1.9273 0.8122,-6.5138 -0.088,-4.1616 0.1702,-6.6377 0.9425,-9.0191 1.4301,-4.4089 5.2585,-8.9303 9.322,-11.0098 2.9952,-1.5326 3.7377,-1.6533 8.7618,-1.4234 5.0088,0.2291 5.731,0.4249 8.2487,2.2368 6.6258,4.7677 9.2419,10.7378 8.5904,19.6031 -0.3391,4.6145 -0.2677,5.1318 0.8069,5.8336 1.883,1.2299 1.6666,6.8825 -0.3597,9.4013 -1.1478,1.4266 -1.67,3.005 -2.055,6.211 -0.4828,4.0223 -2.4081,9.5508 -3.5927,10.3165 -0.2883,0.1863 -0.5243,2.3784 -0.5243,4.8713 0,3.6459 0.2405,4.852 1.2293,6.1669 0.6762,0.8991 1.6064,1.6346 2.0672,1.6346 1.521,0 12.9585,4.2365 15.9806,5.9193 4.5312,2.523 8.5586,5.8178 10.4501,8.5488 l 1.7092,2.4678 v 10.3524 10.3523 l -21.45,0.4108 c -20.9187,0.4006 -51.8796,0.3748 -61.1825,-0.051 z"
                   id="path3342"
                   inkscape:connector-curvature="0" />
                <rect
                   y="3002.7432"
                   x="1134.3485"
                   height="140.82153"
                   width="103.79922"
                   id="rect3344"
                   style="opacity:0.98999999;fill:#f7ca61;fill-opacity:1;stroke:none;stroke-width:3.89067745;stroke-miterlimit:4;stroke-dasharray:none;stroke-dashoffset:0;stroke-opacity:1" />
                <path
                   inkscape:connector-curvature="0"
                   id="path3346"
                   d="m 1147.3715,3141.5838 -4.6347,-0.2122 0.1861,-10.7249 c 0.1859,-10.7023 0.1898,-10.7297 1.8752,-13.0386 2.1673,-2.9691 6.1257,-5.9886 11.3601,-8.6656 4.0188,-2.0552 13.1529,-5.3592 14.8161,-5.3592 0.4489,0 1.3692,-0.7355 2.0453,-1.6346 1.983,-2.6366 1.7351,-8.9554 -0.5224,-13.3147 -1.0554,-2.038 -2.033,-5.226 -2.4591,-8.0197 -0.3889,-2.5503 -1.0584,-5.0659 -1.4878,-5.5902 -2.529,-3.0884 -3.0033,-8.0297 -0.9355,-9.7498 0.7469,-0.6214 0.9098,-1.9273 0.8122,-6.5138 -0.088,-4.1616 0.1702,-6.6377 0.9425,-9.0191 1.4301,-4.4089 5.2585,-8.9303 9.322,-11.0098 2.9952,-1.5326 3.7377,-1.6533 8.7618,-1.4234 5.0088,0.2291 5.731,0.4249 8.2487,2.2368 6.6258,4.7677 9.2419,10.7378 8.5904,19.6031 -0.3391,4.6145 -0.2677,5.1318 0.8069,5.8336 1.883,1.2299 1.6666,6.8825 -0.3597,9.4013 -1.1478,1.4266 -1.67,3.005 -2.055,6.211 -0.4828,4.0223 -2.4081,9.5508 -3.5927,10.3165 -0.2883,0.1863 -0.5243,2.3784 -0.5243,4.8713 0,3.6459 0.2405,4.852 1.2293,6.1669 0.6762,0.8991 1.6064,1.6346 2.0672,1.6346 1.521,0 12.9585,4.2365 15.9806,5.9193 4.5312,2.523 8.5586,5.8178 10.4501,8.5488 l 1.7092,2.4678 v 10.3524 10.3523 l -21.45,0.4108 c -20.9187,0.4006 -51.8796,0.3748 -61.1825,-0.051 z"
                   style="opacity:0.98999999;fill:#333333;fill-opacity:0.99215686;stroke:none;stroke-width:23.5798645;stroke-miterlimit:4;stroke-dasharray:none;stroke-dashoffset:0;stroke-opacity:1" />
                <rect
                   y="3143.5647"
                   x="1134.3485"
                   height="140.82153"
                   width="103.79922"
                   id="rect3350"
                   style="opacity:0.98999999;fill:#f7ca61;fill-opacity:1;stroke:none;stroke-width:3.89067745;stroke-miterlimit:4;stroke-dasharray:none;stroke-dashoffset:0;stroke-opacity:1" />
                <path
                   inkscape:connector-curvature="0"
                   id="path3352"
                   d="m 1147.3715,3282.4051 -4.6347,-0.2121 0.1863,-10.7248 c 0.1857,-10.7024 0.1897,-10.7299 1.875,-13.0386 2.1674,-2.9692 6.1259,-5.9886 11.3602,-8.6656 4.0187,-2.0552 13.1528,-5.3593 14.816,-5.3593 0.4489,0 1.3693,-0.7356 2.0455,-1.6345 1.9828,-2.6366 1.7349,-8.9555 -0.5225,-13.3147 -1.0555,-2.0381 -2.0329,-5.226 -2.459,-8.0198 -0.3891,-2.5503 -1.0586,-5.0659 -1.488,-5.5902 -2.529,-3.0883 -3.0033,-8.0296 -0.9355,-9.7498 0.747,-0.6214 0.9098,-1.9272 0.8122,-6.5137 -0.088,-4.1617 0.1702,-6.6377 0.9427,-9.0191 1.4299,-4.4089 5.2583,-8.9304 9.322,-11.0098 2.9952,-1.5327 3.7376,-1.6533 8.7616,-1.4235 5.0088,0.2291 5.731,0.425 8.2487,2.2367 6.6258,4.7679 9.2419,10.7379 8.5904,19.6033 -0.3391,4.6144 -0.2675,5.1317 0.807,5.8336 1.8829,1.2298 1.6665,6.8825 -0.3598,9.4011 -1.1478,1.4267 -1.67,3.0051 -2.0549,6.211 -0.4829,4.0224 -2.4082,9.551 -3.5927,10.3165 -0.2884,0.1865 -0.5243,2.3786 -0.5243,4.8714 0,3.646 0.2404,4.8521 1.2292,6.167 0.6762,0.8989 1.6064,1.6345 2.0672,1.6345 1.521,0 12.9585,4.2366 15.9806,5.9194 4.5312,2.523 8.5586,5.8176 10.4501,8.5486 l 1.7093,2.4678 v 10.3525 10.3524 l -21.4501,0.4108 c -20.9187,0.4006 -51.8796,0.3748 -61.1825,-0.051 z"
                   style="opacity:0.98999999;fill:#333333;fill-opacity:0.99215686;stroke:none;stroke-width:23.5798645;stroke-miterlimit:4;stroke-dasharray:none;stroke-dashoffset:0;stroke-opacity:1" />
                <rect
                   style="opacity:0.98999999;fill:#f15c29;fill-opacity:1;stroke:none;stroke-width:3.89067745;stroke-miterlimit:4;stroke-dasharray:none;stroke-dashoffset:0;stroke-opacity:1"
                   id="rect3354"
                   width="103.79922"
                   height="140.82153"
                   x="1134.3485"
                   y="3143.5647" />
                <path
                   style="opacity:0.98999999;fill:#333333;fill-opacity:0.99215686;stroke:none;stroke-width:23.5798645;stroke-miterlimit:4;stroke-dasharray:none;stroke-dashoffset:0;stroke-opacity:1"
                   d="m 1147.3715,3282.4051 -4.6347,-0.2121 0.1863,-10.7248 c 0.1857,-10.7024 0.1897,-10.7299 1.875,-13.0386 2.1674,-2.9692 6.1259,-5.9886 11.3602,-8.6656 4.0187,-2.0552 13.1528,-5.3593 14.816,-5.3593 0.4489,0 1.3693,-0.7356 2.0455,-1.6345 1.9828,-2.6366 1.7349,-8.9555 -0.5225,-13.3147 -1.0555,-2.0381 -2.0329,-5.226 -2.459,-8.0198 -0.3891,-2.5503 -1.0586,-5.0659 -1.488,-5.5902 -2.529,-3.0883 -3.0033,-8.0296 -0.9355,-9.7498 0.747,-0.6214 0.9098,-1.9272 0.8122,-6.5137 -0.088,-4.1617 0.1702,-6.6377 0.9427,-9.0191 1.4299,-4.4089 5.2583,-8.9304 9.322,-11.0098 2.9952,-1.5327 3.7376,-1.6533 8.7616,-1.4235 5.0088,0.2291 5.731,0.425 8.2487,2.2367 6.6258,4.7679 9.2419,10.7379 8.5904,19.6033 -0.3391,4.6144 -0.2675,5.1317 0.807,5.8336 1.8829,1.2298 1.6665,6.8825 -0.3598,9.4011 -1.1478,1.4267 -1.67,3.0051 -2.0549,6.211 -0.4829,4.0224 -2.4082,9.551 -3.5927,10.3165 -0.2884,0.1865 -0.5243,2.3786 -0.5243,4.8714 0,3.646 0.2404,4.8521 1.2292,6.167 0.6762,0.8989 1.6064,1.6345 2.0672,1.6345 1.521,0 12.9585,4.2366 15.9806,5.9194 4.5312,2.523 8.5586,5.8176 10.4501,8.5486 l 1.7093,2.4678 v 10.3525 10.3524 l -21.4501,0.4108 c -20.9187,0.4006 -51.8796,0.3748 -61.1825,-0.051 z"
                   id="path3356"
                   inkscape:connector-curvature="0" />
                <rect
                   y="3143.5647"
                   x="1030.5493"
                   height="140.82153"
                   width="103.79922"
                   id="rect3358"
                   style="opacity:0.98999999;fill:#f7ca61;fill-opacity:1;stroke:none;stroke-width:3.89067745;stroke-miterlimit:4;stroke-dasharray:none;stroke-dashoffset:0;stroke-opacity:1" />
                <path
                   inkscape:connector-curvature="0"
                   id="path3360"
                   d="m 1043.5724,3282.4052 -4.6348,-0.2121 0.1862,-10.7249 c 0.1859,-10.7024 0.1898,-10.7298 1.8752,-13.0386 2.1673,-2.9692 6.1257,-5.9886 11.3601,-8.6656 4.0187,-2.0552 13.1529,-5.3592 14.816,-5.3592 0.4488,0 1.3693,-0.7356 2.0454,-1.6346 1.983,-2.6366 1.7351,-8.9554 -0.5224,-13.3147 -1.0555,-2.0381 -2.033,-5.226 -2.4591,-8.0198 -0.389,-2.5503 -1.0584,-5.0659 -1.4878,-5.5901 -2.5292,-3.0884 -3.0033,-8.0297 -0.9357,-9.7498 0.7471,-0.6214 0.9099,-1.9273 0.8122,-6.5138 -0.088,-4.1617 0.1704,-6.6377 0.9427,-9.0191 1.4301,-4.4089 5.2585,-8.9304 9.322,-11.0098 2.9952,-1.5327 3.7377,-1.6533 8.7618,-1.4234 5.0087,0.2291 5.7308,0.4249 8.2487,2.2368 6.6257,4.7677 9.2418,10.7377 8.5902,19.6031 -0.3391,4.6145 -0.2675,5.1317 0.8071,5.8336 1.8828,1.2299 1.6665,6.8825 -0.3598,9.4012 -1.1479,1.4266 -1.6701,3.005 -2.0549,6.211 -0.4829,4.0224 -2.4083,9.5509 -3.5927,10.3165 -0.2884,0.1864 -0.5243,2.3785 -0.5243,4.8713 0,3.646 0.2404,4.8521 1.2293,6.167 0.6762,0.899 1.6063,1.6346 2.0671,1.6346 1.5209,0 12.9585,4.2365 15.9805,5.9193 4.5312,2.523 8.5586,5.8177 10.4501,8.5487 l 1.7094,2.4678 v 10.3524 10.3525 l -21.45,0.4107 c -20.9187,0.4006 -51.8796,0.3748 -61.1825,-0.051 z"
                   style="opacity:0.98999999;fill:#333333;fill-opacity:0.99215686;stroke:none;stroke-width:23.5798645;stroke-miterlimit:4;stroke-dasharray:none;stroke-dashoffset:0;stroke-opacity:1" />
                <rect
                   style="opacity:0.98999999;fill:#a7dceb;fill-opacity:1;stroke:none;stroke-width:3.89067745;stroke-miterlimit:4;stroke-dasharray:none;stroke-dashoffset:0;stroke-opacity:1"
                   id="rect3362"
                   width="103.79922"
                   height="140.82153"
                   x="1030.5493"
                   y="3143.5647" />
                <path
                   style="opacity:0.98999999;fill:#333333;fill-opacity:0.99215686;stroke:none;stroke-width:23.5798645;stroke-miterlimit:4;stroke-dasharray:none;stroke-dashoffset:0;stroke-opacity:1"
                   d="m 1043.5724,3282.4052 -4.6348,-0.2121 0.1862,-10.7249 c 0.1859,-10.7024 0.1898,-10.7298 1.8752,-13.0386 2.1673,-2.9692 6.1257,-5.9886 11.3601,-8.6656 4.0187,-2.0552 13.1529,-5.3592 14.816,-5.3592 0.4488,0 1.3693,-0.7356 2.0454,-1.6346 1.983,-2.6366 1.7351,-8.9554 -0.5224,-13.3147 -1.0555,-2.0381 -2.033,-5.226 -2.4591,-8.0198 -0.389,-2.5503 -1.0584,-5.0659 -1.4878,-5.5901 -2.5292,-3.0884 -3.0033,-8.0297 -0.9357,-9.7498 0.7471,-0.6214 0.9099,-1.9273 0.8122,-6.5138 -0.088,-4.1617 0.1704,-6.6377 0.9427,-9.0191 1.4301,-4.4089 5.2585,-8.9304 9.322,-11.0098 2.9952,-1.5327 3.7377,-1.6533 8.7618,-1.4234 5.0087,0.2291 5.7308,0.4249 8.2487,2.2368 6.6257,4.7677 9.2418,10.7377 8.5902,19.6031 -0.3391,4.6145 -0.2675,5.1317 0.8071,5.8336 1.8828,1.2299 1.6665,6.8825 -0.3598,9.4012 -1.1479,1.4266 -1.6701,3.005 -2.0549,6.211 -0.4829,4.0224 -2.4083,9.5509 -3.5927,10.3165 -0.2884,0.1864 -0.5243,2.3785 -0.5243,4.8713 0,3.646 0.2404,4.8521 1.2293,6.167 0.6762,0.899 1.6063,1.6346 2.0671,1.6346 1.5209,0 12.9585,4.2365 15.9805,5.9193 4.5312,2.523 8.5586,5.8177 10.4501,8.5487 l 1.7094,2.4678 v 10.3524 10.3525 l -21.45,0.4107 c -20.9187,0.4006 -51.8796,0.3748 -61.1825,-0.051 z"
                   id="path3364"
                   inkscape:connector-curvature="0" />
              </g>
            </g>
          </g>
        </g>
      </g>
    </g>
  </g>
</svg>
