<svg width="140" height="136" viewBox="0 0 140 136" fill="none" xmlns="http://www.w3.org/2000/svg">
<rect width="140" height="135.305" rx="16.6463" fill="#0055D4"/>
<path d="M114.426 43.4211L140 98.398L139.97 115.891V122.5L136.159 129.116C132.317 132.744 130.385 135.092 122.287 135.092L95.0276 134.216L69.2484 134.761L38.8416 94.3493L44.5539 36.4629L66.8447 35.7363L84.4744 47.8737L95.3828 44.256L100.752 47.0645L114.426 43.4211Z" fill="#0044AA"/>
<path d="M86.4525 92.9648C86.377 92.8846 86.0184 89.1998 86.0112 76.2921C86.0037 62.7273 85.9124 51.8111 85.7949 50.4241C85.6831 49.1043 85.5408 47.1656 85.4787 46.1158L85.3658 44.207H90.8089H96.2521L96.3855 46.6611C96.4588 48.0109 96.5193 50.2981 96.5198 51.7438C96.5205 53.4962 96.6031 54.4597 96.7678 54.6342C97.2908 55.1885 98.3731 54.7988 98.3731 54.0561C98.3731 53.6697 99.3843 51.4432 99.6341 51.2796C99.733 51.2149 99.8138 50.9712 99.8138 50.7384C99.8138 50.5056 99.8998 50.315 100.005 50.315C100.11 50.315 100.493 49.8297 100.855 49.2366C101.218 48.6435 101.641 48.1067 101.796 48.0437C101.951 47.9807 102.078 47.7788 102.078 47.5951C102.078 47.4114 102.17 47.261 102.284 47.261C102.397 47.261 102.656 47.0892 102.859 46.8793C103.062 46.6692 103.492 46.3012 103.816 46.0612C104.14 45.8212 104.576 45.4532 104.785 45.2432C104.994 45.0331 105.297 44.8615 105.459 44.8615C105.621 44.8615 105.881 44.7262 106.037 44.561C106.193 44.3958 106.61 44.193 106.963 44.1107C107.317 44.0282 107.717 43.8201 107.852 43.6478C107.988 43.4733 108.453 43.3345 108.902 43.3345C109.344 43.3345 110.039 43.1871 110.445 43.0074C111.254 42.6491 113.715 42.5595 113.902 42.8814C113.967 42.9922 114.298 43.1475 114.638 43.2267L115.256 43.3705L115.202 49.5149L115.147 55.6593L114.53 55.5858C111.923 55.2752 107.765 55.6217 106.811 56.2291C106.642 56.3373 106.364 56.4821 106.194 56.551C105.787 56.7166 105.195 57.0215 104.477 57.4369C103.785 57.8365 101.46 60.217 101.46 60.5254C101.46 60.6428 101.321 60.7955 101.152 60.8645C100.982 60.9337 100.843 61.1254 100.843 61.2908C100.843 61.4563 100.658 61.8178 100.431 62.0945C100.205 62.3712 100.02 62.7858 100.02 63.016C100.02 63.2462 99.8935 63.5681 99.7394 63.7315C99.5853 63.8947 99.396 64.4474 99.3188 64.9594C99.2415 65.4714 99.0666 66.0329 98.9301 66.2073C98.7421 66.447 98.6681 70.5971 98.6254 83.2877L98.8601 93.11H92.7249C89.3505 93.11 86.528 93.0447 86.4525 92.9645V92.9648Z" fill="#FFCC00"/>
<path d="M42.6931 96.1096C41.4526 95.886 39.1181 95.4876 37.5054 95.2247L34.5732 94.7469V63.9807V33.2144L39.5202 32.5915C45.7752 31.804 56.0815 31.8221 60.5002 32.6288C70.2276 34.4038 74.4643 40.6542 72.9297 50.9664C72.4227 54.3734 71.5297 56.0047 68.6718 58.7444C65.2473 62.0272 65.1443 62.2789 66.7308 63.4899C69.2372 64.7134 71.0582 66.6634 72.4603 68.5997C78.9564 77.6366 73.962 90.8809 62.6139 94.7107C59.2389 95.8496 46.2912 96.7592 42.6931 96.1099V96.1096ZM59.4134 83.8912C61.2322 82.1693 61.6395 80.9099 61.6395 77.0067C61.6395 73.9281 61.148 71.7343 60.2572 70.8366C58.602 69.1686 54.1079 68.2116 49.8502 68.6203L46.7531 68.9178L46.4896 76.5066C46.3127 81.6045 46.5973 84.5461 47.3568 85.4683C49.07 87.5486 56.5893 86.5651 59.4134 83.8914L59.4134 83.8912ZM54.9638 58.4241C60.3858 56.4608 62.6569 49.2757 59.426 44.3067C58.0585 42.2035 57.4689 42.0349 52.3437 42.2819L46.7531 42.5513L46.4816 48.8966C46.1057 57.6807 46.6402 59.3712 49.7934 59.3712C51.1985 59.3712 53.5252 58.945 54.9639 58.4241H54.9638Z" fill="#44AA00"/>
</svg>
