<?xml version="1.0" encoding="UTF-8" standalone="no"?>
<!-- Created with Inkscape (http://www.inkscape.org/) -->

<svg
   xmlns:dc="http://purl.org/dc/elements/1.1/"
   xmlns:cc="http://creativecommons.org/ns#"
   xmlns:rdf="http://www.w3.org/1999/02/22-rdf-syntax-ns#"
   xmlns:svg="http://www.w3.org/2000/svg"
   xmlns="http://www.w3.org/2000/svg"
   xmlns:sodipodi="http://sodipodi.sourceforge.net/DTD/sodipodi-0.dtd"
   xmlns:inkscape="http://www.inkscape.org/namespaces/inkscape"
   width="67.557999"
   height="71.141998"
   viewBox="0 0 17.87472 18.822987"
   version="1.1"
   id="svg8"
   inkscape:export-filename="C:\Users\danie\Music\Projetos\Stores-BR-Website\src\log.png"
   inkscape:export-xdpi="28"
   inkscape:export-ydpi="28"
   inkscape:version="0.92.4 (5da689c313, 2019-01-14)"
   sodipodi:docname="br.svg">
  <defs
     id="defs2" />
  <sodipodi:namedview
     id="base"
     pagecolor="#ffffff"
     bordercolor="#666666"
     borderopacity="1.0"
     inkscape:pageopacity="0.0"
     inkscape:pageshadow="2"
     inkscape:zoom="5.6"
     inkscape:cx="52.153998"
     inkscape:cy="43.376875"
     inkscape:document-units="mm"
     inkscape:current-layer="g5802"
     showgrid="false"
     units="px"
     inkscape:window-width="2160"
     inkscape:window-height="1346"
     inkscape:window-x="-11"
     inkscape:window-y="-11"
     inkscape:window-maximized="1" />
  <metadata
     id="metadata5">
    <rdf:RDF>
      <cc:Work
         rdf:about="">
        <dc:format>image/svg+xml</dc:format>
        <dc:type
           rdf:resource="http://purl.org/dc/dcmitype/StillImage" />
        <dc:title></dc:title>
      </cc:Work>
    </rdf:RDF>
  </metadata>
  <g
     inkscape:label="Camada 1"
     inkscape:groupmode="layer"
     id="layer1"
     transform="translate(0,-278.21035)">
    <g
       transform="translate(92.025478,-14.56285)"
       id="g4763">
      <g
         id="g985">
        <g
           id="g992"
           transform="translate(0,-0.26726953)">
          <g
             transform="matrix(2.9960862,0,0,3.390186,412.79984,-346.24255)"
             id="g5802">
            <g
               id="g1551"
               transform="matrix(0.53129723,0,0,0.52783331,-80.071973,92.934247)">
              <path
                 style="opacity:1;fill:#0055d4;fill-opacity:1;stroke-width:0.03498732"
                 d="m -164.87412,191.54456 c -0.12512,-0.0283 -0.30587,-0.10019 -0.5343,-0.21246 -0.22271,-0.10945 -0.63443,-0.52264 -0.75319,-0.75588 -0.29318,-0.5758 -0.276,-0.31217 -0.276,-4.23646 0,-3.89327 -0.0149,-3.64778 0.25506,-4.19933 0.17358,-0.35461 0.68008,-0.79963 1.02691,-0.90227 0.0795,-0.0235 0.1661,-0.0589 0.19255,-0.0787 0.0294,-0.022 0.58428,-0.0537 1.42642,-0.0815 1.5107,-0.05 5.58346,-0.0376 6.37982,0.0193 0.4511,0.0323 0.60477,0.0728 0.97153,0.25605 0.21702,0.10846 0.63735,0.5342 0.74312,0.75268 0.0532,0.10995 0.11141,0.23042 0.12932,0.26771 0.0957,0.19924 0.1043,0.52758 0.1043,3.96603 0,3.43099 -0.009,3.76289 -0.10335,3.96604 -0.17036,0.36545 -0.26181,0.49857 -0.49452,0.71988 -0.20384,0.19386 -0.32516,0.27561 -0.57847,0.38982 l -0.32054,0.14452 -4.02647,0.005 c -2.21456,0.003 -4.07855,-0.006 -4.14219,-0.0208 z"
                 id="path1735"
                 inkscape:connector-curvature="0" />
              <path
                 style="fill:#0044aa;fill-opacity:1;stroke:none;stroke-width:0.04991228px;stroke-linecap:butt;stroke-linejoin:miter;stroke-opacity:1"
                 d="m -157.7123,185.53292 c 3.19906,3.24003 2.3705,3.2538 2.4647,3.3345 0.007,0.75915 0.0863,1.55496 -0.45073,2.0374 l -1.0642,0.6552 -3.86739,-0.044 -2.54532,-3.03213 0.81315,-3.96149 2.66212,1.0506 0.40901,-0.0853 0.39975,0.2892 z"
                 id="path1773"
                 inkscape:connector-curvature="0"
                 sodipodi:nodetypes="ccccccccccc" />
              <g
                 transform="matrix(0.19108021,0,0,0.17936453,-153.23687,99.833984)"
                 id="g1781">
                <path
                   inkscape:connector-curvature="0"
                   id="path1775"
                   d="m -52.011509,482.1517 v -12.09394 h 3.283414 c 3.47935,0.003 4.162484,0.0441 5.394301,0.33742 2.131896,0.50765 3.580615,1.6215 4.45929,3.42852 0.414658,0.85273 0.567726,1.52339 0.6058,2.65433 0.0363,1.07953 -0.05814,1.71855 -0.372954,2.52283 -0.362097,0.92498 -1.217663,1.99101 -2.123378,2.64567 l -0.408189,0.29504 0.478191,0.24162 c 1.356805,0.68556 2.274157,1.83721 2.661651,3.34147 0.128866,0.5003 0.155313,0.79227 0.157341,1.73726 0.0021,1.19705 -0.04961,1.56175 -0.353631,2.47224 -0.691901,2.07205 -2.442429,3.63937 -4.70111,4.20909 -1.033656,0.26072 -1.775654,0.3011 -5.533994,0.3011 h -3.546732 z m 6.329032,7.31946 c 0.711204,-0.10308 1.332521,-0.29707 1.740138,-0.5433 0.752471,-0.45452 1.140932,-1.47161 0.965453,-2.52782 -0.09682,-0.58259 -0.323326,-1.00714 -0.729498,-1.36713 -0.571927,-0.50692 -1.374193,-0.73988 -2.554821,-0.74189 h -0.677529 v 2.63927 2.6393 h 0.295339 c 0.162427,-2.2e-4 0.594849,-0.0438 0.960918,-0.0969 z m 0.03234,-9.69666 c 1.404686,-0.28133 2.151156,-1.02661 2.237206,-2.23364 0.06365,-0.89331 -0.192483,-1.73585 -0.652839,-2.14725 -0.451069,-0.4031 -1.370376,-0.68689 -2.386518,-0.73673 l -0.451683,-0.0222 -0.0182,2.57228 c -0.0104,1.41478 -0.0052,2.6058 0.01154,2.64673 0.0365,0.0914 0.578864,0.0573 1.260542,-0.0792 z"
                   style="opacity:1;fill:#009b3a;fill-opacity:1;stroke:none;stroke-width:0.06814061" />
              </g>
            </g>
            <path
               style="opacity:1;fill:#fedf00;fill-opacity:1;stroke:none;stroke-width:0.00678776"
               d="m -165.03378,191.58138 v -0.74053 h 0.20544 0.20544 l 3.6e-4,0.15306 c 2.6e-4,0.1357 8.6e-4,0.15173 0.0114,0.1414 0.006,-0.006 0.0407,-0.0444 0.0763,-0.0845 0.0821,-0.0924 0.19792,-0.18035 0.27503,-0.20858 0.11037,-0.0403 0.26492,-0.0535 0.3876,-0.0329 0.0302,0.005 0.0548,0.01 0.0548,0.0106 -2.5e-4,0.005 -0.12556,0.30266 -0.1284,0.30472 -8.5e-4,9.4e-4 -0.0349,-9.3e-4 -0.073,-0.006 -0.0872,-0.0106 -0.11607,-0.0106 -0.19202,2.6e-4 -0.10003,0.015 -0.16771,0.0428 -0.24639,0.10083 -0.0748,0.0553 -0.10673,0.0938 -0.13548,0.16405 -0.0179,0.0436 -0.018,0.0456 -0.0207,0.49122 l -0.003,0.44753 h -0.20896 -0.20894 z"
               id="path1578"
               inkscape:connector-curvature="0" />
          </g>
        </g>
      </g>
    </g>
  </g>
</svg>
