<?xml version="1.0" encoding="UTF-8" standalone="no"?>
<!-- Created with Inkscape (http://www.inkscape.org/) -->

<svg
   xmlns:dc="http://purl.org/dc/elements/1.1/"
   xmlns:cc="http://creativecommons.org/ns#"
   xmlns:rdf="http://www.w3.org/1999/02/22-rdf-syntax-ns#"
   xmlns:svg="http://www.w3.org/2000/svg"
   xmlns="http://www.w3.org/2000/svg"
   xmlns:sodipodi="http://sodipodi.sourceforge.net/DTD/sodipodi-0.dtd"
   xmlns:inkscape="http://www.inkscape.org/namespaces/inkscape"
   width="37.749001mm"
   height="32.541mm"
   viewBox="0 0 37.749001 32.541"
   version="1.1"
   id="svg5898"
   inkscape:version="0.92.4 (5da689c313, 2019-01-14)"
   sodipodi:docname="part2.svg">
  <defs
     id="defs5892" />
  <sodipodi:namedview
     id="base"
     pagecolor="#ffffff"
     bordercolor="#666666"
     borderopacity="1.0"
     inkscape:pageopacity="0.0"
     inkscape:pageshadow="2"
     inkscape:zoom="2.8"
     inkscape:cx="46.391465"
     inkscape:cy="73.729128"
     inkscape:document-units="mm"
     inkscape:current-layer="layer1"
     showgrid="false"
     inkscape:window-width="1600"
     inkscape:window-height="837"
     inkscape:window-x="-8"
     inkscape:window-y="-8"
     inkscape:window-maximized="1" />
  <metadata
     id="metadata5895">
    <rdf:RDF>
      <cc:Work
         rdf:about="">
        <dc:format>image/svg+xml</dc:format>
        <dc:type
           rdf:resource="http://purl.org/dc/dcmitype/StillImage" />
        <dc:title></dc:title>
      </cc:Work>
    </rdf:RDF>
  </metadata>
  <g
     inkscape:label="Camada 1"
     inkscape:groupmode="layer"
     id="layer1"
     transform="translate(0,-264.459)">
    <g
       id="g5879"
       transform="matrix(1.8048912,0,0,1.5677364,-195.96609,36.11112)">
      <path
         inkscape:connector-curvature="0"
         id="path5867"
         d="m 111.71178,166.20088 c -1.12898,-0.33739 -1.6806,-0.62015 -2.17416,-1.11449 -0.36424,-0.36482 -0.56288,-0.69453 -0.75521,-1.25355 -0.0883,-0.25675 -0.0924,-0.51741 -0.12197,-7.81037 l -0.0306,-7.54477 0.12834,-0.4016 c 0.35855,-1.12196 0.83329,-1.59263 1.92456,-1.90806 0.82267,-0.23779 1.03056,-0.25646 3.17877,-0.28541 1.11739,-0.0151 3.51591,-0.0614 5.33005,-0.10305 1.81413,-0.0416 3.30956,-0.0645 3.32317,-0.0509 0.0136,0.0136 -0.31109,0.39881 -0.72156,0.85599 l -0.7463,0.83124 -4.70403,-0.002 c -4.90298,-0.002 -4.83995,-0.004 -5.17441,0.19739 -0.39775,0.23997 -0.93413,0.93951 -1.06279,1.38607 -0.0413,0.14327 -0.0373,1.87226 0.0164,7.14714 l 0.0708,6.95815 0.17617,0.31789 c 0.36324,0.65543 1.03596,1.18513 1.92278,1.514 l 0.34126,0.12656 4.15773,0.0146 c 4.12119,0.0144 7.42754,-0.0374 8.60307,-0.13493 0.71619,-0.0594 1.02402,-0.17548 1.42389,-0.53692 0.29886,-0.27014 0.68538,-0.83504 0.78429,-1.14626 0.061,-0.19196 0.0816,-0.92349 0.13103,-4.64543 l 0.0586,-4.4176 0.70636,-0.77001 c 0.38849,-0.4235 0.71199,-0.76368 0.71888,-0.75595 0.007,0.008 -0.0176,2.50161 -0.0544,5.54196 -0.0631,5.21301 -0.0722,5.55047 -0.16053,5.92406 -0.22454,0.95013 -0.73075,1.55238 -1.72344,2.05044 l -0.23728,0.11905 -7.39311,0.0296 -7.39311,0.0296 z"
         style="opacity:1;fill:#05a8d1;fill-opacity:1;stroke:none;stroke-width:0;stroke-miterlimit:4;stroke-dasharray:none;stroke-opacity:1" />
      <path
         inkscape:connector-curvature="0"
         id="path5869"
         d="m 117.26711,154.59746 c 0,0 3.30729,3.59078 3.44903,3.3073 0.14174,-0.28349 7.08706,-7.32329 7.08706,-7.32329 l -2.92932,-2.64584 z"
         style="fill:#19a0b3;fill-opacity:1;stroke:none;stroke-width:0.26458332px;stroke-linecap:butt;stroke-linejoin:miter;stroke-opacity:1" />
      <path
         inkscape:connector-curvature="0"
         id="path5871"
         d="m 116.7474,155.6369 2.78757,2.83482 c 0,0 -4.15774,1.6064 -3.96875,1.27567 0.18899,-0.33073 1.18118,-4.11049 1.18118,-4.11049 z"
         style="fill:#01a9c7;fill-opacity:1;stroke:none;stroke-width:0.26458332px;stroke-linecap:butt;stroke-linejoin:miter;stroke-opacity:1" />
      <path
         inkscape:connector-curvature="0"
         id="path5873"
         d="m 125.53534,147.22693 c 0.47247,0.28348 2.97656,2.59859 2.97656,2.59859 l 0.8977,-0.99219 v -0.85044 l -1.55915,-1.6064 -0.94494,-0.14174 z"
         style="fill:#00a9c6;fill-opacity:1;stroke:none;stroke-width:0.26458332px;stroke-linecap:butt;stroke-linejoin:miter;stroke-opacity:1" />
    </g>
  </g>
</svg>
