<?xml version="1.0" encoding="UTF-8" standalone="no"?>
<!-- Created with Inkscape (http://www.inkscape.org/) -->

<svg
   xmlns:dc="http://purl.org/dc/elements/1.1/"
   xmlns:cc="http://creativecommons.org/ns#"
   xmlns:rdf="http://www.w3.org/1999/02/22-rdf-syntax-ns#"
   xmlns:svg="http://www.w3.org/2000/svg"
   xmlns="http://www.w3.org/2000/svg"
   xmlns:sodipodi="http://sodipodi.sourceforge.net/DTD/sodipodi-0.dtd"
   xmlns:inkscape="http://www.inkscape.org/namespaces/inkscape"
   width="37.749001mm"
   height="32.541mm"
   viewBox="0 0 37.749001 32.541"
   version="1.1"
   id="svg5898"
   inkscape:version="0.92.4 (5da689c313, 2019-01-14)"
   sodipodi:docname="part1.svg">
  <defs
     id="defs5892" />
  <sodipodi:namedview
     id="base"
     pagecolor="#ffffff"
     bordercolor="#666666"
     borderopacity="1.0"
     inkscape:pageopacity="0.0"
     inkscape:pageshadow="2"
     inkscape:zoom="2.8"
     inkscape:cx="46.391465"
     inkscape:cy="73.729128"
     inkscape:document-units="mm"
     inkscape:current-layer="layer1"
     showgrid="false"
     inkscape:window-width="1600"
     inkscape:window-height="837"
     inkscape:window-x="-8"
     inkscape:window-y="-8"
     inkscape:window-maximized="1" />
  <metadata
     id="metadata5895">
    <rdf:RDF>
      <cc:Work
         rdf:about="">
        <dc:format>image/svg+xml</dc:format>
        <dc:type
           rdf:resource="http://purl.org/dc/dcmitype/StillImage" />
        <dc:title></dc:title>
      </cc:Work>
    </rdf:RDF>
  </metadata>
  <g
     inkscape:label="Camada 1"
     inkscape:groupmode="layer"
     id="layer1"
     transform="translate(0,-264.459)">
    <g
       transform="matrix(1.7195598,0,0,1.58281,-67.460843,146.27703)"
       id="g6445">
      <path
         inkscape:connector-curvature="0"
         id="path2121"
         d="m 40.206714,90.992126 c -0.278786,-0.14515 -0.545058,-0.40793 -0.638833,-0.63046 -0.127977,-0.30369 -0.151315,-1.98411 -0.11659,-8.394796 l 0.03355,-6.192846 0.141741,-0.204742 c 0.07796,-0.112607 0.208391,-0.304186 0.289852,-0.425728 l 0.148112,-0.220988 3.726144,-0.03141 c 4.706296,-0.03967 8.034677,-0.0397 12.732517,-9.5e-5 l 3.714706,0.03131 0.144529,0.216699 c 0.07949,0.119184 0.200817,0.294031 0.269613,0.388551 0.107073,0.147106 0.129896,0.238953 0.158488,0.637834 0.01837,0.256291 0.03262,3.495699 0.03168,7.198685 -0.0013,5.249406 -0.01469,6.769816 -0.06059,6.901146 -0.08406,0.24053 -0.361762,0.54576 -0.643626,0.70742 l -0.242444,0.13906 -9.732887,-0.002 -9.732887,-0.002 -0.223062,-0.11613 z m 17.804738,-2.92384 c 0.305634,-0.0235 0.567209,-0.15608 0.786155,-0.39842 0.277569,-0.307237 0.322831,-0.437891 0.368293,-1.063123 0.04837,-0.665239 0.0494,-4.218868 0.0022,-7.447587 -0.03224,-2.203346 -0.03479,-2.248238 -0.14002,-2.464106 -0.134858,-0.276649 -0.194831,-0.328438 -0.573523,-0.495277 l -0.307106,-0.135297 -7.9375,-0.01233 -7.9375,-0.01233 -0.371706,0.153167 c -0.423183,0.174379 -0.598543,0.348012 -0.698429,0.69155 -0.09352,0.321638 -0.09432,10.055026 -8.47e-4,10.319125 0.09897,0.279654 0.399558,0.624068 0.653955,0.749308 l 0.22804,0.11228 3.378162,0.0236 c 3.571712,0.025 12.140308,0.0109 12.549868,-0.0206 z"
         style="opacity:1;fill:#808080;fill-opacity:1;stroke:none;stroke-width:0;stroke-miterlimit:4;stroke-dasharray:none;stroke-opacity:1" />
      <path
         inkscape:connector-curvature="0"
         id="path2123"
         d="m 46.123042,95.27922 c -0.285323,-0.01984 -0.321856,-0.0719 -0.132581,-0.188878 0.0868,-0.05364 0.210607,-0.154086 0.275129,-0.2232 0.06452,-0.06911 0.191725,-0.16405 0.282676,-0.210963 0.09095,-0.04691 0.215872,-0.139417 0.277603,-0.205563 0.06173,-0.06614 0.168038,-0.132775 0.236236,-0.148066 0.0682,-0.01529 0.230301,-0.120599 0.360231,-0.234021 l 0.236235,-0.206222 0.0024,-0.819676 c 0.0032,-1.06254 -0.0098,-0.990005 0.17473,-0.97804 0.08445,0.0055 0.203051,-0.01675 0.26355,-0.04941 0.0605,-0.03265 0.14407,-0.04629 0.185714,-0.03031 0.04165,0.01598 1.015264,0.02788 2.163599,0.02643 l 2.087882,-0.0026 0.04954,0.130749 c 0.02725,0.07191 0.04952,0.433753 0.0495,0.804085 -3.2e-5,0.595328 0.01113,0.691398 0.09636,0.829299 0.144139,0.233223 0.406265,0.452401 0.692364,0.578927 0.140354,0.06207 0.335621,0.184219 0.433925,0.271439 0.09831,0.08722 0.301026,0.23872 0.450492,0.336666 0.311222,0.203946 0.353616,0.252894 0.25261,0.291653 -0.07382,0.02833 -8.052832,0.05452 -8.438243,0.0277 z"
         style="opacity:1;fill:#808080;fill-opacity:1;stroke:none;stroke-width:0;stroke-miterlimit:4;stroke-dasharray:none;stroke-opacity:1" />
    </g>
  </g>
</svg>
