<?xml version="1.0" encoding="UTF-8" standalone="no"?>
<!-- Created with Inkscape (http://www.inkscape.org/) -->

<svg
   xmlns:dc="http://purl.org/dc/elements/1.1/"
   xmlns:cc="http://creativecommons.org/ns#"
   xmlns:rdf="http://www.w3.org/1999/02/22-rdf-syntax-ns#"
   xmlns:svg="http://www.w3.org/2000/svg"
   xmlns="http://www.w3.org/2000/svg"
   xmlns:sodipodi="http://sodipodi.sourceforge.net/DTD/sodipodi-0.dtd"
   xmlns:inkscape="http://www.inkscape.org/namespaces/inkscape"
   width="37.749001mm"
   height="32.541mm"
   viewBox="0 0 37.749001 32.541"
   version="1.1"
   id="svg5898"
   inkscape:version="0.92.4 (5da689c313, 2019-01-14)"
   sodipodi:docname="part3.svg">
  <defs
     id="defs5892" />
  <sodipodi:namedview
     id="base"
     pagecolor="#ffffff"
     bordercolor="#666666"
     borderopacity="1.0"
     inkscape:pageopacity="0.0"
     inkscape:pageshadow="2"
     inkscape:zoom="0.35"
     inkscape:cx="-127.14286"
     inkscape:cy="560"
     inkscape:document-units="mm"
     inkscape:current-layer="layer1"
     showgrid="false"
     inkscape:window-width="1600"
     inkscape:window-height="837"
     inkscape:window-x="-8"
     inkscape:window-y="-8"
     inkscape:window-maximized="1" />
  <metadata
     id="metadata5895">
    <rdf:RDF>
      <cc:Work
         rdf:about="">
        <dc:format>image/svg+xml</dc:format>
        <dc:type
           rdf:resource="http://purl.org/dc/dcmitype/StillImage" />
        <dc:title></dc:title>
      </cc:Work>
    </rdf:RDF>
  </metadata>
  <g
     inkscape:label="Camada 1"
     inkscape:groupmode="layer"
     id="layer1"
     transform="translate(0,-264.459)">
    <g
       id="g5890"
       transform="matrix(1.6141791,0,0,1.6526868,-200.01069,-6.2296282)">
      <path
         transform="scale(0.26458333)"
         inkscape:connector-curvature="0"
         id="path5881"
         d="m 482.10042,684.24869 c -0.21479,-0.56495 0.0753,-1.09833 1.10381,-2.02976 0.36411,-0.32973 0.71542,-0.77406 0.7807,-0.9874 0.1006,-0.32881 0.97837,-1.7082 2.04585,-3.21501 0.15086,-0.21295 0.62027,-0.74878 1.04313,-1.19074 0.42286,-0.44197 1.07992,-1.33478 1.46012,-1.98403 0.3802,-0.64924 0.89349,-1.31295 1.14065,-1.47489 0.24716,-0.16195 0.58217,-0.55485 0.74446,-0.87312 0.16228,-0.31828 0.6461,-0.95693 1.07514,-1.41924 0.42904,-0.46231 0.78007,-0.92034 0.78007,-1.01785 0,-0.49663 2.02075,-3.34554 3.50893,-4.94699 0.89131,-0.95914 1.46027,-0.85371 2.27453,0.42147 0.36061,0.56473 1.07515,1.51822 1.58788,2.11886 0.51273,0.60065 1.41438,1.71684 2.00366,2.48045 0.58929,0.7636 1.45313,1.77992 1.91965,2.25849 0.46652,0.47857 0.84821,0.94454 0.84821,1.03548 0,0.091 0.30134,0.51867 0.66964,0.95049 0.36831,0.43182 0.93303,1.16543 1.25494,1.63023 0.67532,0.97508 1.60164,1.46353 3.11218,1.64107 0.83488,0.0981 1.03808,0.0638 1.2922,-0.21807 0.58998,-0.6545 1.86008,-2.78559 2.25537,-3.78428 0.22086,-0.55798 0.49933,-1.13504 0.61883,-1.28236 0.20783,-0.25622 1.76942,-3.4246 3.5645,-7.23214 1.42139,-3.01492 2.15738,-4.4246 2.81677,-5.39511 0.34784,-0.51196 0.77242,-1.35571 0.94352,-1.875 0.1711,-0.5193 0.53688,-1.34664 0.81284,-1.83854 0.27597,-0.49191 0.61878,-1.22603 0.76179,-1.63139 0.14302,-0.40536 0.48577,-1.08771 0.76165,-1.51635 0.27589,-0.42863 0.71602,-1.26147 0.97807,-1.85076 1.15131,-2.58905 2.09262,-4.57088 2.27599,-4.79182 0.1091,-0.13145 0.31568,-0.57155 0.45908,-0.97798 0.1434,-0.40643 0.46591,-1.04092 0.71668,-1.40997 0.25077,-0.36904 0.45595,-0.75726 0.45595,-0.8627 0,-0.10544 0.19669,-0.4583 0.43708,-0.78413 0.24039,-0.32584 0.48782,-0.82349 0.54985,-1.1059 0.10782,-0.4909 0.67304,-1.04964 1.06181,-1.04964 0.18014,0 0.66927,1.17876 1.37082,3.30357 0.19456,0.58929 0.50922,1.40166 0.69924,1.80528 0.19002,0.40361 0.34549,0.96731 0.34549,1.25265 0,0.28535 0.23227,0.99976 0.51617,1.58759 0.28389,0.58782 0.57494,1.35002 0.64679,1.69377 0.0718,0.34375 0.27172,0.90625 0.44418,1.25 0.17246,0.34375 0.37228,0.90625 0.44405,1.25 0.0718,0.34375 0.27438,0.90625 0.45025,1.25 0.17587,0.34375 0.62004,1.58928 0.98705,2.76786 0.36701,1.17857 0.81088,2.46428 0.98638,2.85714 0.1755,0.39286 0.40846,1.15625 0.5177,1.69643 0.10924,0.54018 0.41016,1.38393 0.66872,1.875 0.25855,0.49107 0.73324,1.69643 1.05485,2.67857 1.22547,3.74234 2.47745,7.14736 2.82396,7.6803 0.12833,0.19738 0.32563,0.78926 0.43844,1.31529 0.11281,0.52603 0.35495,1.16811 0.53809,1.42684 0.18313,0.25873 0.49128,1.0731 0.68477,1.80971 0.19349,0.73661 0.51773,1.82143 0.72053,2.41072 0.54994,1.59801 1.11378,3.55956 1.11378,3.87473 0,0.15288 -0.11576,0.37404 -0.25726,0.49147 -0.19734,0.16378 -6.42455,0.20705 -26.74107,0.18579 -14.5661,-0.0152 -28.17131,-0.0406 -30.23381,-0.0564 -2.0625,-0.0158 -4.2909,0.0402 -4.95201,0.12437 -1.19527,0.15224 -1.20301,0.15043 -1.38264,-0.32202 z"
         style="opacity:1;fill:#b3b3b3;fill-opacity:1;stroke:none;stroke-width:0;stroke-miterlimit:4;stroke-dasharray:none;stroke-opacity:1" />
      <path
         transform="scale(0.26458333)"
         inkscape:connector-curvature="0"
         id="path5883"
         d="m 471.11364,696.83476 c -0.62474,-0.25977 -1.20053,-1.03654 -1.4904,-2.01061 -0.25053,-0.84187 -0.28773,-4.60857 -0.34148,-34.57488 -0.0537,-29.94767 -0.0301,-33.7342 0.21614,-34.58105 0.15205,-0.52304 0.27645,-1.18474 0.27645,-1.47045 0,-0.34654 0.18223,-0.69405 0.54743,-1.04394 l 0.54742,-0.52448 42.30573,-0.047 42.30572,-0.047 0.0821,0.40413 c 0.0451,0.22228 0.12726,0.61888 0.18248,0.88134 0.0732,0.34789 0.26979,0.53309 0.72549,0.68349 0.48887,0.16134 0.62508,0.30193 0.62508,0.64516 0,0.24137 0.12722,0.63303 0.28272,0.87034 0.25559,0.39008 0.28074,3.69206 0.26211,34.41336 -0.0113,18.69003 -0.0659,34.26313 -0.12114,34.60688 -0.0761,0.47337 -0.29886,0.77663 -0.91808,1.25 l -0.81756,0.625 -42.15652,0.0341 c -23.18609,0.0188 -42.31724,-0.0327 -42.51367,-0.1144 z m 75.66017,-5.84297 c 1.25322,-0.57907 2.99211,-2.43578 3.31633,-3.54101 0.22546,-0.76856 0.25928,-4.64485 0.24298,-27.84408 l -0.0189,-26.95123 -0.50806,-1.08568 c -0.79663,-1.70237 -1.75007,-2.51607 -3.42462,-2.9227 -2.39083,-0.58055 -4.66647,-0.6149 -34.68855,-0.52348 l -29.86502,0.0909 -1.33929,0.39447 c -2.11918,0.62417 -3.44579,2.1512 -3.75752,4.32518 -0.25172,1.75543 -0.22959,53.06535 0.0234,54.24495 0.17486,0.81535 0.37068,1.12446 1.30291,2.05669 0.60342,0.60342 1.36089,1.18907 1.68327,1.30145 0.32238,0.11238 0.7903,0.36493 1.03983,0.5612 0.45019,0.35412 0.70313,0.35658 32.80412,0.31887 l 32.35043,-0.038 z"
         style="opacity:1;fill:#b3b3b3;fill-opacity:1;stroke:none;stroke-width:0;stroke-miterlimit:4;stroke-dasharray:none;stroke-opacity:1" />
      <path
         transform="scale(0.26458333)"
         inkscape:connector-curvature="0"
         id="path5885"
         d="m 494.68507,653.57015 c -2.27482,-0.52731 -2.99093,-0.74466 -3.34994,-1.01677 -0.22003,-0.16677 -0.76847,-0.51485 -1.21876,-0.7735 -1.26892,-0.72889 -2.21736,-2.00288 -3.26255,-4.3824 -0.56249,-1.2806 -0.65089,-1.66694 -0.65089,-2.84455 0,-0.84102 0.13013,-1.77768 0.33993,-2.44671 0.18696,-0.59621 0.43596,-1.41059 0.55333,-1.80973 0.31101,-1.05763 2.27743,-3.00772 4.03433,-4.00082 l 1.41169,-0.79796 2.37577,-0.068 2.37576,-0.068 1.51612,0.77668 c 0.83387,0.42717 1.81388,1.05821 2.17781,1.4023 0.36393,0.34409 0.88267,0.76782 1.15276,0.94162 0.27009,0.17379 0.49107,0.3961 0.49107,0.494 0,0.0979 0.19587,0.48828 0.43527,0.86751 0.75469,1.19551 1.05075,2.57664 1.01818,4.74982 -0.0349,2.32869 -0.0186,2.25788 -0.9717,4.22848 -0.53028,1.0964 -0.90636,1.64052 -1.28532,1.85961 -0.29465,0.17035 -0.82704,0.56854 -1.18311,0.88489 -0.96519,0.85752 -2.08157,1.45128 -3.28118,1.74514 -1.68087,0.41174 -1.91826,0.43464 -2.67857,0.2584 z"
         style="opacity:1;fill:#b3b3b3;fill-opacity:1;stroke:none;stroke-width:0;stroke-miterlimit:4;stroke-dasharray:none;stroke-opacity:1" />
    </g>
  </g>
</svg>
