<?xml version="1.0" encoding="UTF-8" standalone="no"?>
<!-- Created with Inkscape (http://www.inkscape.org/) -->

<svg
   xmlns:dc="http://purl.org/dc/elements/1.1/"
   xmlns:cc="http://creativecommons.org/ns#"
   xmlns:rdf="http://www.w3.org/1999/02/22-rdf-syntax-ns#"
   xmlns:svg="http://www.w3.org/2000/svg"
   xmlns="http://www.w3.org/2000/svg"
   xmlns:sodipodi="http://sodipodi.sourceforge.net/DTD/sodipodi-0.dtd"
   xmlns:inkscape="http://www.inkscape.org/namespaces/inkscape"
   width="67.557999"
   height="71.141998"
   viewBox="0 0 17.87472 18.822987"
   version="1.1"
   id="svg8"
   inkscape:export-filename="C:\Users\danie\Music\Projetos\Stores-BR-Website\src\log.png"
   inkscape:export-xdpi="28"
   inkscape:export-ydpi="28"
   inkscape:version="0.92.4 (5da689c313, 2019-01-14)"
   sodipodi:docname="br.svg">
  <defs
     id="defs2" />
  <sodipodi:namedview
     id="base"
     pagecolor="#ffffff"
     bordercolor="#666666"
     borderopacity="1.0"
     inkscape:pageopacity="0.0"
     inkscape:pageshadow="2"
     inkscape:zoom="2.8284271"
     inkscape:cx="-44.033224"
     inkscape:cy="59.984591"
     inkscape:document-units="mm"
     inkscape:current-layer="g5802"
     showgrid="false"
     units="px"
     inkscape:window-width="901"
     inkscape:window-height="489"
     inkscape:window-x="792"
     inkscape:window-y="372"
     inkscape:window-maximized="0" />
  <metadata
     id="metadata5">
    <rdf:RDF>
      <cc:Work
         rdf:about="">
        <dc:format>image/svg+xml</dc:format>
        <dc:type
           rdf:resource="http://purl.org/dc/dcmitype/StillImage" />
        <dc:title></dc:title>
      </cc:Work>
    </rdf:RDF>
  </metadata>
  <g
     inkscape:label="Camada 1"
     inkscape:groupmode="layer"
     id="layer1"
     transform="translate(0,-278.21035)">
    <g
       transform="translate(92.025478,-14.56285)"
       id="g4763">
      <g
         id="g985">
        <g
           id="g992"
           transform="translate(0,-0.26726953)">
          <g
             transform="matrix(2.9960862,0,0,3.390186,412.79984,-346.24255)"
             id="g5802">
            <g
               id="g1754">
              <g
                 id="g1746">
                <g
                   id="g1551"
                   transform="matrix(0.53129723,0,0,0.52783331,-80.071973,92.934247)">
                  <path
                     style="opacity:1;fill:#0055d4;fill-opacity:1;stroke-width:0.03498732"
                     d="m -164.87412,191.54456 c -0.12512,-0.0283 -0.30587,-0.10019 -0.5343,-0.21246 -0.22271,-0.10945 -0.63443,-0.52264 -0.75319,-0.75588 -0.29318,-0.5758 -0.276,-0.31217 -0.276,-4.23646 0,-3.89327 -0.0149,-3.64778 0.25506,-4.19933 0.17358,-0.35461 0.68008,-0.79963 1.02691,-0.90227 0.0795,-0.0235 0.1661,-0.0589 0.19255,-0.0787 0.0294,-0.022 0.58428,-0.0537 1.42642,-0.0815 1.5107,-0.05 5.58346,-0.0376 6.37982,0.0193 0.4511,0.0323 0.60477,0.0728 0.97153,0.25605 0.21702,0.10846 0.63735,0.5342 0.74312,0.75268 0.0532,0.10995 0.11141,0.23042 0.12932,0.26771 0.0957,0.19924 0.1043,0.52758 0.1043,3.96603 0,3.43099 -0.009,3.76289 -0.10335,3.96604 -0.17036,0.36545 -0.26181,0.49857 -0.49452,0.71988 -0.20384,0.19386 -0.32516,0.27561 -0.57847,0.38982 l -0.32054,0.14452 -4.02647,0.005 c -2.21456,0.003 -4.07855,-0.006 -4.14219,-0.0208 z"
                     id="path1735"
                     inkscape:connector-curvature="0" />
                  <path
                     style="fill:#0044aa;fill-opacity:1;stroke:none;stroke-width:0.04991228px;stroke-linecap:butt;stroke-linejoin:miter;stroke-opacity:1"
                     d="m -156.94834,185.21276 c 2.64079,3.28578 1.56981,2.63954 1.66401,2.72024 0.007,0.75915 0.12303,2.48938 -0.414,2.97182 l -1.0642,0.6552 -3.86739,-0.044 -3.07002,-2.08246 c 0.39132,-1.6606 -1.12391,-5.70466 1.99224,-4.71002 l 2.20776,0.50812 0.88986,-0.0874 0.76473,0.62234 z"
                     id="path1773"
                     inkscape:connector-curvature="0"
                     sodipodi:nodetypes="ccccccccccc" />
                </g>
                <path
                   style="opacity:1;fill:#009b3a;fill-opacity:1;stroke:none;stroke-width:0.01085396"
                   d="m -166.77967,192.96929 c -0.0666,-0.0109 -0.15342,-0.0253 -0.19323,-0.0325 l -0.0724,-0.0132 -0.006,-0.53804 c -0.01,-0.6826 -0.01,-1.28876 -3e-5,-1.78773 l 0.006,-0.39186 0.0395,-0.0177 c 0.0699,-0.0314 0.291,-0.0457 0.70414,-0.0456 0.41967,1.3e-4 0.50084,0.006 0.64819,0.0555 0.12026,0.0396 0.18842,0.0812 0.26305,0.16067 0.0789,0.0841 0.11353,0.14163 0.14642,0.24377 0.035,0.10897 0.0342,0.33932 -0.002,0.45668 -0.0339,0.11006 -0.0609,0.14773 -0.20559,0.28437 -0.0688,0.0651 -0.12497,0.12669 -0.12497,0.13712 0,0.0244 0.0297,0.0499 0.13488,0.11636 0.14951,0.0942 0.26623,0.25457 0.31109,0.42717 0.0246,0.0947 0.0167,0.25698 -0.0174,0.35805 -0.0907,0.26885 -0.31932,0.47506 -0.60713,0.54756 -0.14331,0.036 -0.30095,0.0498 -0.62341,0.0544 -0.23232,0.004 -0.30078,7.7e-4 -0.401,-0.0154 z m 0.68664,-0.41021 c 0.14139,-0.0262 0.27316,-0.11346 0.32183,-0.21279 0.0208,-0.0425 0.0236,-0.0662 0.0229,-0.19839 -3.6e-4,-0.12801 -0.004,-0.159 -0.0246,-0.21032 -0.0135,-0.0331 -0.0333,-0.0684 -0.0447,-0.0784 -0.036,-0.032 -0.17217,-0.0794 -0.26584,-0.0926 -0.10768,-0.0154 -0.37045,-0.005 -0.39046,0.0147 -0.0202,0.0203 -0.0383,0.45044 -0.0246,0.58115 0.006,0.0589 0.0172,0.11867 0.0243,0.13307 0.0396,0.0787 0.17668,0.10157 0.3811,0.0637 z m -0.054,-1.2156 c 0.14641,-0.0301 0.25308,-0.10824 0.32128,-0.23572 0.0326,-0.0611 0.0344,-0.0705 0.0346,-0.18767 2.2e-4,-0.11491 -0.001,-0.12734 -0.031,-0.18228 -0.04,-0.0754 -0.0886,-0.12495 -0.13779,-0.14081 -0.0419,-0.0136 -0.50494,-0.005 -0.51922,0.01 -0.004,0.004 -0.0135,0.0935 -0.0193,0.19834 -0.0221,0.35425 -0.0125,0.45999 0.0491,0.51967 0.0348,0.0339 0.0384,0.0349 0.12953,0.0349 0.0516,0 0.12942,-0.008 0.17297,-0.0163 z"
                   id="path1737"
                   inkscape:connector-curvature="0" />
                <path
                   style="opacity:1;fill:#fedf00;fill-opacity:1;stroke:none;stroke-width:0.01085396"
                   d="m -164.79323,192.74252 c -0.004,-0.0398 -0.0125,-0.49461 -0.0181,-1.01066 -0.005,-0.51606 -0.0134,-0.96845 -0.0167,-1.00531 l -0.006,-0.067 h 0.24649 0.24647 l 0.006,0.1304 c 0.004,0.0716 0.006,0.17229 0.006,0.22353 0,0.0788 0.002,0.0961 0.0216,0.11212 0.0294,0.0259 0.0744,0.0141 0.09,-0.024 0.0793,-0.19372 0.22225,-0.35932 0.36632,-0.42434 0.0242,-0.0109 0.0587,-0.0264 0.0769,-0.0344 0.047,-0.021 0.17469,-0.0475 0.22787,-0.0475 0.0248,0 0.0617,0.005 0.0818,0.0132 l 0.0364,0.0132 v 0.26678 0.26678 l -0.0687,-0.006 c -0.0378,-0.004 -0.11852,-10e-4 -0.17943,0.004 -0.0933,0.01 -0.1245,0.0179 -0.19849,0.0536 -0.12002,0.0578 -0.21913,0.15205 -0.2725,0.25892 -0.0791,0.15837 -0.0859,0.23082 -0.08,0.85483 l 0.004,0.49595 h -0.28247 -0.28247 z"
                   id="path1739"
                   inkscape:connector-curvature="0" />
              </g>
            </g>
          </g>
        </g>
      </g>
    </g>
  </g>
</svg>
