<?xml version="1.0" encoding="UTF-8" standalone="no"?>
<!-- Created with Inkscape (http://www.inkscape.org/) -->

<svg
   xmlns:dc="http://purl.org/dc/elements/1.1/"
   xmlns:cc="http://creativecommons.org/ns#"
   xmlns:rdf="http://www.w3.org/1999/02/22-rdf-syntax-ns#"
   xmlns:svg="http://www.w3.org/2000/svg"
   xmlns="http://www.w3.org/2000/svg"
   xmlns:sodipodi="http://sodipodi.sourceforge.net/DTD/sodipodi-0.dtd"
   xmlns:inkscape="http://www.inkscape.org/namespaces/inkscape"
   version="1.1"
   id="svg2"
   width="150"
   height="200"
   viewBox="0 0 150 200"
   sodipodi:docname="img.svg"
   inkscape:version="0.92.3 (2405546, 2018-03-11)">
  <metadata
     id="metadata8">
    <rdf:RDF>
      <cc:Work
         rdf:about="">
        <dc:format>image/svg+xml</dc:format>
        <dc:type
           rdf:resource="http://purl.org/dc/dcmitype/StillImage" />
        <dc:title></dc:title>
      </cc:Work>
    </rdf:RDF>
  </metadata>
  <defs
     id="defs6" />
  <sodipodi:namedview
     pagecolor="#ffffff"
     bordercolor="#666666"
     borderopacity="1"
     objecttolerance="10"
     gridtolerance="10"
     guidetolerance="10"
     inkscape:pageopacity="0"
     inkscape:pageshadow="2"
     inkscape:window-width="2160"
     inkscape:window-height="1346"
     id="namedview4"
     showgrid="false"
     inkscape:zoom="1.888"
     inkscape:cx="-55.913663"
     inkscape:cy="118.99682"
     inkscape:window-x="-11"
     inkscape:window-y="-11"
     inkscape:window-maximized="1"
     inkscape:current-layer="svg2" />
  <g
     transform="matrix(1.1619296,0,0,1.532693,224.97621,-277.0814)"
     id="g883">
    <path
       sodipodi:nodetypes="cscsccssscccscsccsscccsccscascccsccccscscsscccsssccssccscssccccsc"
       inkscape:connector-curvature="0"
       id="path844"
       d="m -193.61303,309.95819 c 1.02333,-3.27689 1.46518,-4.49965 2.04253,-5.65248 0.7637,-1.52492 3.36719,-4.44314 3.75186,-4.20541 0.13461,0.0832 0.24475,0.029 0.24475,-0.12043 0,-0.30898 2.7912,-2.12315 4.94706,-3.21538 0.79396,-0.40225 2.68585,-1.13192 4.20418,-1.62148 6.58511,-2.12325 15.64911,-5.47746 19.99777,-7.40034 1.61861,-0.71572 3.59151,-1.54776 4.38422,-1.84899 1.03137,-0.39191 1.98624,-1.10474 3.35724,-2.50623 1.08485,-1.10899 2.07687,-1.89679 2.28695,-1.81617 0.20406,0.0783 0.29638,0.0216 0.20516,-0.126 -0.0912,-0.1476 0.52286,-0.65706 1.3646,-1.13211 1.80132,-1.0166 1.88456,-1.27991 1.91834,-6.06817 0.0212,-3.00334 0.01,-3.05907 -1.10534,-5.27762 -1.0874,-2.16393 -1.97741,-4.58295 -2.6047,-7.07951 -0.26432,-1.05197 -0.37631,-1.17447 -0.9435,-1.03212 -1.30258,0.32693 -2.86432,-2.29696 -3.95246,-6.64058 -0.24584,-0.98134 -0.78665,-2.541 -1.20183,-3.46592 -0.62418,-1.39058 -0.75579,-2.08995 -0.7603,-4.04029 -0.004,-1.64783 0.10065,-2.3941 0.34664,-2.47638 0.19366,-0.0648 0.2808,-0.23312 0.19367,-0.37411 -0.0871,-0.14098 -0.0564,-0.27072 0.0683,-0.2883 0.12472,-0.0176 0.58818,-0.0742 1.02994,-0.12583 0.44175,-0.0516 0.86449,-0.15521 0.93946,-0.23017 0.075,-0.075 -0.0649,-0.74355 -0.3108,-1.48576 -1.20126,-3.6258 -2.75799,-12.62265 -1.7384,-15.04161 l 5.44432,-12.91665 c 2.10371,-2.45087 3.36339,-5.13774 6.00483,-6.38807 8.75964,-4.14635 18.39546,-10.26409 29.00724,-1.97229 4.944,3.86313 1.29796,1.5558 7.11885,10.88165 l 4.97135,10.77423 c 0.29813,0.91035 0.41853,2.66489 0.43273,6.30628 0.0173,4.43713 -0.0563,5.30713 -0.61094,7.22031 -0.75876,2.61726 -0.76709,2.77871 -0.14014,2.71493 0.26977,-0.0274 0.61661,-0.0208 0.77076,0.0147 0.15416,0.0355 0.45861,0.0816 0.67657,0.10235 0.87805,0.0836 0.94805,1.502 0.2065,4.18415 -0.39236,1.41916 -0.92198,3.65235 -1.17694,4.96266 -0.52781,2.71259 -1.93963,6.61553 -2.50814,6.93368 -0.20975,0.11738 -0.3588,0.32581 -0.33121,0.46316 0.10622,0.52884 -0.90536,0.88199 -1.48661,0.51899 -0.30675,-0.19157 -0.60992,-0.3483 -0.67371,-0.3483 -0.0638,0 -0.27223,0.66216 -0.46319,1.47146 -0.40447,1.71414 -1.93216,6.38745 -2.22184,6.79677 -0.10909,0.15415 -0.48594,1.06701 -0.83744,2.02857 -0.65433,1.78996 -0.92406,5.91247 -0.47498,7.25937 0.1099,0.32962 0.73183,0.94641 1.38206,1.37065 1.18973,0.77623 4.966,4.49338 4.966,4.88825 0,0.28792 3.45393,1.97059 4.04492,1.97059 0.25995,0 0.39557,0.12468 0.30138,0.27707 -0.0959,0.1552 0.009,0.20792 0.23845,0.11986 0.22532,-0.0865 3.132077,0.92399 6.459467,2.24545 3.32737,1.32145 6.16637,2.40264 6.30885,2.40264 0.14249,0 0.61614,0.19155 1.052553,0.42567 1.13354,0.60809 8.3044,3.579 10.46312,4.33489 2.72721,0.95495 5.61408,2.38908 6.80452,3.38033 1.05794,0.88092 2.99018,3.61681 4.04894,5.73293 0.67347,1.34607 1.75909,4.46028 1.75909,5.04614 0,0.37101 -7.50349,0.4193 -65.15606,0.4193 -51.99635,0 -65.13396,-0.0708 -65.04665,-0.35036 z m 86.32709,-27.93847 c 0.0887,-0.14351 0.0541,-0.32715 -0.0769,-0.40809 -0.13098,-0.081 -0.23814,0.0365 -0.23814,0.26091 0,0.4726 0.0884,0.51389 0.31502,0.14718 z"
       style="opacity:0.98999999;fill:#000000;fill-opacity:1;stroke:none;stroke-width:10.8951273;stroke-miterlimit:4;stroke-dasharray:none;stroke-dashoffset:0;stroke-opacity:1" />
    <g
       style="fill:#ffffff"
       transform="matrix(1.7200399,0,0,1.6188165,263.08712,-41.425727)"
       id="g829">
      <path
         style="opacity:0.98999999;fill:#ffffff;fill-opacity:1;stroke:none;stroke-width:5.1947093;stroke-miterlimit:4;stroke-dasharray:none;stroke-dashoffset:0;stroke-opacity:1"
         d="m -228.63442,187.47718 c -1.08705,-0.59114 -1.62399,-1.69224 -1.61915,-3.32041 0.003,-0.92287 0.108,-1.44726 0.60375,-3.00781 0.34922,-1.09929 0.89832,-1.65767 2.0547,-2.08943 0.43223,-0.16139 1.08656,-0.46413 1.45405,-0.67277 0.3675,-0.20864 1.05906,-0.45263 1.5368,-0.5422 0.47775,-0.0896 1.16826,-0.32028 1.53446,-0.51268 1.17235,-0.61593 2.47459,-2.19035 2.47459,-2.9918 0,-0.17271 0.21588,-0.75224 0.47974,-1.28784 0.53104,-1.07794 0.5517,-1.52758 0.13543,-2.94771 -0.27436,-0.93599 -0.77087,-1.54227 -1.68758,-2.06064 -0.67542,-0.38193 -0.84465,-0.41699 -2.20164,-0.45606 -1.29552,-0.0373 -1.54929,-0.085 -2.13816,-0.40217 -0.61161,-0.32938 -0.79461,-0.35984 -2.16178,-0.35984 -1.34112,0 -1.53212,0.0303 -1.87089,0.29697 -0.2075,0.16333 -0.67796,0.47516 -1.04545,0.69296 -1.10099,0.65251 -1.27178,0.8688 -1.25372,1.58775 0.0267,1.06531 0.15228,1.39898 0.6528,1.73529 0.25701,0.17268 0.53272,0.50569 0.61271,0.74001 0.0998,0.29252 0.25156,0.44699 0.4841,0.49286 0.51225,0.10107 2.32823,1.32291 2.48829,1.6742 0.30512,0.66966 -0.38799,2.05284 -1.36579,2.72558 -1.18183,0.81313 -2.077,0.81408 -4.19722,0.004 -1.40636,-0.53704 -1.68104,-0.85565 -1.87772,-2.178 -0.082,-0.55166 -0.33064,-1.50022 -0.55242,-2.10791 -0.83531,-2.28882 -0.45609,-3.47064 1.82321,-5.68192 l 1.41169,-1.36957 1.68884,-0.62267 c 2.43999,-0.89962 2.81492,-0.95979 4.17362,-0.66978 0.61785,0.13187 1.54432,0.31835 2.05881,0.4144 0.51449,0.096 1.20605,0.28979 1.5368,0.43054 0.33074,0.14075 0.75169,0.29315 0.93544,0.33868 0.34638,0.0858 1.33635,0.96355 1.33635,1.18483 0,0.0693 0.27565,0.24785 0.61257,0.39688 0.85325,0.37744 1.62191,1.17918 1.73654,1.8113 0.0507,0.27972 0.41217,1.0498 0.80321,1.71129 0.93901,1.58847 1.07112,2.19086 0.72359,3.29949 -0.14538,0.46376 -0.2651,0.9422 -0.26605,1.06321 -0.002,0.2086 -0.50613,0.69862 -1.25451,1.2185 -0.21838,0.15171 -0.36947,0.41385 -0.42363,0.73499 -0.14968,0.88766 -0.19939,0.95712 -1.10525,1.5445 -0.49131,0.31857 -1.52792,1.18596 -2.30358,1.92753 -1.07397,1.02677 -1.52434,1.36971 -1.88854,1.43803 -0.26303,0.0494 -0.65968,0.20006 -0.88144,0.33493 -0.53028,0.32248 -0.60759,0.8284 -0.43831,2.86829 0.14108,1.7 0.15358,1.63901 -0.50527,2.46573 -0.36186,0.45405 -1.60501,0.53357 -2.31399,0.14803 z"
         id="path823"
         inkscape:connector-curvature="0" />
      <path
         style="opacity:0.98999999;fill:#ffffff;fill-opacity:1;stroke:none;stroke-width:5.1947093;stroke-miterlimit:4;stroke-dasharray:none;stroke-dashoffset:0;stroke-opacity:1"
         d="m -228.84858,195.53688 c -0.62858,-0.30985 -1.2091,-1.03028 -1.30035,-1.61375 -0.0434,-0.2772 -0.13652,-0.72144 -0.20704,-0.98722 -0.30711,-1.15737 0.005,-1.76739 1.21096,-2.37024 1.30799,-0.65361 1.61903,-0.66867 2.44762,-0.11851 0.38704,0.25697 0.94906,0.5924 1.24894,0.74539 0.92622,0.47252 1.708,2.2123 1.21545,2.70486 -0.10563,0.10563 -0.27748,0.36973 -0.38189,0.58689 -0.22261,0.46303 -0.89531,0.94824 -1.57727,1.13767 -0.74136,0.20593 -2.1581,0.16055 -2.65642,-0.0851 z"
         id="path825"
         inkscape:connector-curvature="0" />
    </g>
  </g>
</svg>
